<?xml version="1.0" standalone="no"?>
<!DOCTYPE svg PUBLIC "-//W3C//DTD SVG 1.1//EN" "http://www.w3.org/Graphics/SVG/1.1/DTD/svg11.dtd" >
<svg>
<metadata>
Created by FontForge 20090914 at Thu Apr 14 20:56:58 2016
 By www-data
Copyright (c) 2010, 2011 by Daniel Johnson. Released under the terms of the SIL Open Font License.
</metadata>
<defs>
<font id="DidactGothic" horiz-adv-x="574" >
  <font-face 
    font-family="Didact Gothic"
    font-weight="500"
    font-stretch="normal"
    units-per-em="1024"
    panose-1="2 0 6 3 0 0 0 0 0 0"
    ascent="819"
    descent="-205"
    x-height="479"
    cap-height="698"
    bbox="-495 -205.003 930.001 969"
    underline-thickness="50"
    underline-position="-99"
    unicode-range="U+0020-U+04FF"
  />
<missing-glyph horiz-adv-x="512" 
d="M51 0v546h410v-546h-410zM102 51h308v444h-308v-444z" />
    <glyph glyph-name=".notdef" horiz-adv-x="512" 
d="M51 0v546h410v-546h-410zM102 51h308v444h-308v-444z" />
    <glyph glyph-name="space" unicode=" " horiz-adv-x="228" 
 />
    <glyph glyph-name="exclam" unicode="!" horiz-adv-x="238" 
d="M65 48c0 15.333 5.33301 28.333 16 39s23.667 16 39 16s28.333 -5.33301 39 -16s16 -23.667 16 -39s-5.33301 -28.5 -16 -39.5s-23.667 -16.5 -39 -16.5s-28.333 5.5 -39 16.5s-16 24.167 -16 39.5zM84 170v528h70v-528h-70z" />
    <glyph glyph-name="quotedbl" unicode="&#x22;" horiz-adv-x="337" 
d="M208 434v264h70v-264h-70zM60 434v264h70v-264h-70z" />
    <glyph glyph-name="numbersign" unicode="#" horiz-adv-x="552" 
d="M155 490l10 168h68l-10 -168h127l10 168h70l-10 -168h93v-70h-98l-12 -180h90v-70h-94l-11 -170h-70l12 170h-127l-12 -170h-68l11 170h-94v70h98l12 180h-90v70h95zM218 420l-11 -180h127l11 180h-127z" />
    <glyph glyph-name="dollar" unicode="$" horiz-adv-x="485" 
d="M219 698l42 -0.00390625v-101c84 -3.33301 141.333 -41 172 -113l-62 -31c-20 50 -56.667 76.333 -110 79v-156c24.667 -4 46.334 -8.66699 65.001 -14s38.334 -13.166 59.001 -23.499s36.5 -24.166 47.5 -41.499s16.5 -37.666 16.5 -60.999
c0 -42 -17.833 -76.5 -53.5 -103.5s-80.5 -42.5 -134.5 -46.5v-86h-42v85c-42.667 1.33301 -80.167 11.833 -112.5 31.5s-55.833 46.834 -70.5 81.501l62 31c8.66699 -22 23.667 -40.167 45 -54.5s46.666 -22.5 75.999 -24.5v163
c-17.333 3.33301 -32.5 6.66602 -45.5 9.99902s-27.833 8.5 -44.5 15.5s-30.334 15 -41.001 24s-19.667 20.667 -27 35s-11 30.5 -11 48.5c0 42 15.5 76.333 46.5 103s71.833 42.334 122.5 47.001v102zM219 382.996v148c-32 -4 -56.333 -13.5 -73 -28.5
s-25 -33.833 -25 -56.5c0 -19.333 8.66699 -33.5 26 -42.5s41.333 -15.833 72 -20.5zM261 304.996v-154c35.333 3.33301 63.833 13 85.5 29s32.5 34.667 32.5 56c0 12 -3.16699 22.167 -9.5 30.5s-17 15 -32 20s-26.5 8.5 -34.5 10.5s-22 4.66699 -42 8z" />
    <glyph glyph-name="percent" unicode="%" horiz-adv-x="543" 
d="M84 434c0 -13.333 4.66699 -24.666 14 -33.999s20.666 -14 33.999 -14s24.666 4.66699 33.999 14s14 20.666 14 33.999s-4.66699 24.666 -14 33.999s-20.666 14 -33.999 14s-24.666 -4.66699 -33.999 -14s-14 -20.666 -14 -33.999zM40 434c0 25.333 9 47 27 65
s39.667 27 65 27s47 -9 65 -27s27 -39.667 27 -65s-9 -47 -27 -65s-39.667 -27 -65 -27s-47 9 -65 27s-27 39.667 -27 65zM364 98c0 -13.333 4.66699 -24.666 14 -33.999s20.666 -14 33.999 -14s24.666 4.66699 33.999 14s14 20.666 14 33.999s-4.66699 24.666 -14 33.999
s-20.666 14 -33.999 14s-24.666 -4.66699 -33.999 -14s-14 -20.666 -14 -33.999zM319 98c0 25.333 9.16699 47 27.5 65s40.166 27 65.499 27s47 -9 65 -27s27 -39.667 27 -65s-9 -47 -27 -65s-39.667 -27 -65 -27s-47.166 9 -65.499 27s-27.5 39.667 -27.5 65zM50 41
l406 483l38 -34l-406 -482z" />
    <glyph glyph-name="ampersand" unicode="&#x26;" horiz-adv-x="548" 
d="M215 457c50 53.333 75 97.666 75 132.999c0 14 -5.66699 25.833 -17 35.5s-23 14.5 -35 14.5c-12.667 0 -26.5 -5.83301 -41.5 -17.5s-22.5 -24.5 -22.5 -38.5c0 -41.333 13.667 -83.666 41 -126.999zM446 126l89.001 -126.001h-94l-43 61
c-46.667 -48.667 -102.334 -73 -167.001 -73c-55.333 0 -102.5 20.333 -141.5 61s-58.5 89.667 -58.5 147c0 22.667 7 46.667 21 72s28.667 46.666 44 63.999s37 40 65 68l-26 37c-26 36.667 -39 86.334 -39 149.001c0 37.333 14.5 67.333 43.5 90s61.833 34 98.5 34
c36 0 66.667 -10.167 92 -30.5s38 -49.5 38 -87.5c0 -54 -37.333 -119 -112 -195l139 -198c17.333 38 31.333 80.667 42 128l77 -17c-12 -67.333 -34.667 -128.666 -68 -183.999zM202.001 342.999c-30.667 -31.333 -53.833 -58.167 -69.5 -80.5s-23.5 -43.833 -23.5 -64.5
c0 -38.667 11.833 -71.667 35.5 -99s52.5 -41 86.5 -41c44 0 84.333 23.333 121 70z" />
    <glyph glyph-name="quotesingle" unicode="'" horiz-adv-x="190" 
d="M60 434v264h70v-264h-70z" />
    <glyph glyph-name="parenleft" unicode="(" horiz-adv-x="240" 
d="M199 644c-18 -10 -35.333 -43.833 -52 -101.5s-25 -122.5 -25 -194.5s8.33301 -136.5 25 -193.5s34 -90.5 52 -100.5v-70c-46.667 0 -84.167 35.167 -112.5 105.5s-42.5 156.5 -42.5 258.5s14.167 188.5 42.5 259.5s65.833 106.5 112.5 106.5v-70z" />
    <glyph glyph-name="parenright" unicode=")" horiz-adv-x="240" 
d="M42 54c18 10 35.333 43.833 52 101.5s25 122.5 25 194.5s-8.33301 136.5 -25 193.5s-34 90.5 -52 100.5v70c46.667 0 84.167 -35.167 112.5 -105.5s42.5 -156.5 42.5 -258.5s-14.167 -188.5 -42.5 -259.5s-65.833 -106.5 -112.5 -106.5v70z" />
    <glyph glyph-name="asterisk" unicode="*" horiz-adv-x="356" 
d="M221 605h88v-48h-89l45 -78l-42 -24l-44 76l-45 -76l-42 24l45 78h-90v48h89l-44 77l42 24l45 -77l44 77l42 -24z" />
    <glyph glyph-name="plus" unicode="+" horiz-adv-x="453" 
d="M199 218h-160v56h160v160h56v-160h160v-56h-160v-160h-56v160z" />
    <glyph glyph-name="comma" unicode="," horiz-adv-x="209" 
d="M49 48c0 15.333 5.33301 28.332 16 38.999s23.667 16 39 16s28.5 -5.33301 39.5 -16s16.5 -23.667 16.5 -39c0 -23.333 -3.16699 -45.166 -9.5 -65.499s-14 -36.833 -23 -49.5s-18.167 -23.667 -27.5 -33c-8 -8 -15.333 -14 -22 -18l-10 -6l-18 10
c26 26 44 61.333 54 106c-15.333 0 -28.333 5.5 -39 16.5s-16 24.167 -16 39.5z" />
    <glyph glyph-name="hyphen" unicode="-" horiz-adv-x="340" 
d="M57 274h227v-56h-227v56z" />
    <glyph glyph-name="period" unicode="." horiz-adv-x="208" 
d="M49 48c0 15.333 5.33301 28.333 16 39s23.667 16 39 16s28.5 -5.33301 39.5 -16s16.5 -23.667 16.5 -39s-5.5 -28.5 -16.5 -39.5s-24.167 -16.5 -39.5 -16.5s-28.333 5.5 -39 16.5s-16 24.167 -16 39.5z" />
    <glyph glyph-name="slash" unicode="/" horiz-adv-x="386" 
d="M352 698l-254 -698h-63l254 698h63z" />
    <glyph glyph-name="zero" unicode="0" 
d="M109 349c0 -84 17 -155.333 51 -214s73.333 -88 118 -88s83.667 29.333 117 88s50 130 50 214s-16.667 155.167 -50 213.5s-72.333 87.5 -117 87.5s-84 -29.167 -118 -87.5s-51 -129.5 -51 -213.5zM40 349c0 110 23.999 198.333 71.999 265s103.333 100 166 100
s117.834 -33.167 165.501 -99.5s71.5 -154.833 71.5 -265.5s-23.667 -199.167 -71 -265.5s-102.333 -99.5 -165 -99.5c-63.333 0 -119 33.333 -167 100s-72 155 -72 265z" />
    <glyph glyph-name="one" unicode="1" 
d="M392 0h-76v526l-110 -104l-43 16l153 260h76v-698z" />
    <glyph glyph-name="two" unicode="2" 
d="M492 70v-69.999h-420v44c0 47.333 18 94.666 54 141.999s86.667 97 152 149c46.667 38 79.667 70.167 99 96.5s29 57.166 29 92.499c0 80 -44.667 120 -134 120c-32.667 0 -59.667 -7.66699 -81 -23s-45 -40.333 -71 -75l-57 48c32.667 42.667 64.667 73.334 96 92.001
s69 28 113 28c65.333 0 117 -16.5 155 -49.5s57 -79.833 57 -140.5c0 -46.667 -12.5 -88 -37.5 -124s-69.833 -78 -134.5 -126c-38.667 -28 -73 -60.5 -103 -97.5s-48.667 -72.5 -56 -106.5h339z" />
    <glyph glyph-name="three" unicode="3" 
d="M360 385c94.667 -39.333 142.003 -104.335 142.003 -195.002c0 -65.333 -25.5 -116 -76.5 -152s-109.5 -54 -175.5 -54c-34.667 0 -70.5 9 -107.5 27s-66.833 41.333 -89.5 70l55 43c15.333 -22 36.166 -39.333 62.499 -52s52.833 -19 79.5 -19
c50.667 0 92.5 10.667 125.5 32s49.5 56.333 49.5 105c0 30 -7 55.833 -21 77.5s-32.667 37.834 -56 48.501s-46.5 18.167 -69.5 22.5s-47.167 6.5 -72.5 6.5v69c48 0 92.5 11.167 133.5 33.5s61.5 51.166 61.5 86.499c0 32.667 -10.833 59.334 -32.5 80.001
s-52.834 31 -93.501 31c-51.333 0 -93 -22.333 -125 -67l-56 43c22.667 28.667 50.667 51.334 84 68.001s65.666 25 96.999 25c56.667 0 104.667 -16.5 144 -49.5s59 -76.5 59 -130.5c0 -29.333 -10.833 -57 -32.5 -83s-50.167 -48 -85.5 -66z" />
    <glyph glyph-name="four" unicode="4" 
d="M365 580l-228 -324h228v324zM365 698h76v-442h69v-76h-69v-180h-76v180h-310v76z" />
    <glyph glyph-name="five" unicode="5" 
d="M47 76l53.999 38.001c34.667 -44.667 89.334 -67 164.001 -67c50 0 91.5 17.667 124.5 53s49.5 77 49.5 125c0 52.667 -14.333 95.334 -43 128.001s-70.667 49 -126 49c-34 0 -62.667 -1.83301 -86 -5.5s-39.333 -7.33398 -48 -11.001s-24.667 -10.834 -48 -21.501v334
h354v-70h-278v-174c38 8 73.333 12 106 12c77.333 0 136.333 -20.333 177 -61s61 -100.667 61 -180c0 -71.333 -22 -129.333 -66 -174s-103.667 -67 -179 -67c-94.667 0 -166.667 30.667 -216 92z" />
    <glyph glyph-name="six" unicode="6" 
d="M515 230c0 -68.667 -24.499 -126.833 -73.499 -174.5s-104.167 -71.5 -165.5 -71.5s-116 23.833 -164 71.5s-72 105.834 -72 174.501c0 67.333 7.5 128.5 22.5 183.5s34.5 100.333 58.5 136s52 66 84 91s63.833 43 95.5 54s63.5 17.5 95.5 19.5v-66
c-130.667 -18.667 -217 -93 -259 -223c43.333 34 90.333 51 141 51c61.333 0 116.166 -23.833 164.499 -71.5s72.5 -105.834 72.5 -174.501zM446.001 230.001c0 52 -16.667 95.333 -50 130s-72.666 52 -117.999 52s-84.666 -17.333 -117.999 -52s-50 -78 -50 -130
s16.667 -95.5 50 -130.5s72.666 -52.5 117.999 -52.5s84.666 17.5 117.999 52.5s50 78.5 50 130.5z" />
    <glyph glyph-name="seven" unicode="7" 
d="M67 628v70h421l-237 -698h-83l214 628h-315z" />
    <glyph glyph-name="eight" unicode="8" 
d="M114 200c0 -50 15.334 -87.167 46.001 -111.5s70 -36.5 118 -36.5c47.333 0 86.166 12.167 116.499 36.5s45.5 61.5 45.5 111.5s-15 87 -45 111s-69 36 -117 36s-87.333 -12 -118 -36s-46 -61 -46 -111zM70.001 531c0 58 20.999 103 62.999 135s90.333 48 145 48
s102.834 -16 144.501 -48s62.5 -77 62.5 -135c0 -63.333 -26.333 -112.333 -79 -147c72.667 -40.667 109 -102 109 -184c0 -66.667 -23.5 -119.334 -70.5 -158.001s-102.167 -58 -165.5 -58c-64 0 -119.833 19.333 -167.5 58s-71.5 91.334 -71.5 158.001
c0 82 36.667 143.333 110 184c-53.333 34.667 -80 83.667 -80 147zM278 416c40 0 72 9.33301 96 28s36 47.667 36 87s-12 68.166 -36 86.499s-56 27.5 -96 27.5s-72.333 -9.16699 -97 -27.5s-37 -47.166 -37 -86.499c0 -38.667 12.5 -67.5 37.5 -86.5
s57.167 -28.5 96.5 -28.5z" />
    <glyph glyph-name="nine" unicode="9" 
d="M40 468c0 68.667 24.5 126.833 73.5 174.5s104.167 71.5 165.5 71.5s116 -23.833 164 -71.5s72 -105.834 72 -174.501c0 -67.333 -7.5 -128.5 -22.5 -183.5s-34.5 -100.333 -58.5 -136s-52 -66 -84 -91s-63.833 -43 -95.5 -54s-63.5 -17.5 -95.5 -19.5v66
c132 18.667 218.667 92.667 260 222c-42.667 -33.333 -89.667 -50 -141 -50c-61.333 0 -116.333 23.833 -165 71.5s-73 105.834 -73 174.501zM109 467.999c0 -52 16.833 -95.333 50.5 -130s73.167 -52 118.5 -52s84.5 17.333 117.5 52s49.5 78 49.5 130
s-16.5 95.5 -49.5 130.5s-72.167 52.5 -117.5 52.5s-84.833 -17.5 -118.5 -52.5s-50.5 -78.5 -50.5 -130.5z" />
    <glyph glyph-name="colon" unicode=":" horiz-adv-x="225" 
d="M57 48c0 15.333 5.5 28.333 16.5 39s24.167 16 39.5 16s28.333 -5.33301 39 -16s16 -23.667 16 -39s-5.33301 -28.5 -16 -39.5s-23.667 -16.5 -39 -16.5s-28.5 5.5 -39.5 16.5s-16.5 24.167 -16.5 39.5zM57 428c0 15.333 5.5 28.333 16.5 39s24.167 16 39.5 16
s28.333 -5.33301 39 -16s16 -23.667 16 -39s-5.33301 -28.5 -16 -39.5s-23.667 -16.5 -39 -16.5s-28.5 5.5 -39.5 16.5s-16.5 24.167 -16.5 39.5z" />
    <glyph glyph-name="semicolon" unicode=";" horiz-adv-x="225" 
d="M57 428c0 15.333 5.5 28.333 16.5 39s24.167 16 39.5 16s28.333 -5.33301 39 -16s16 -23.667 16 -39s-5.33301 -28.5 -16 -39.5s-23.667 -16.5 -39 -16.5s-28.5 5.5 -39.5 16.5s-16.5 24.167 -16.5 39.5zM57 48c0 15.333 5.5 28.332 16.5 38.999s24.167 16 39.5 16
s28.333 -5.33301 39 -16s16 -23.667 16 -39c0 -23.333 -3.16699 -45.166 -9.5 -65.499s-14 -36.833 -23 -49.5s-18.167 -23.667 -27.5 -33c-8 -8 -15.333 -14 -22 -18l-10 -6l-18 10c26.667 26 45 61.333 55 106c-15.333 0 -28.5 5.5 -39.5 16.5s-16.5 24.167 -16.5 39.5z
" />
    <glyph glyph-name="less" unicode="&#x3c;" horiz-adv-x="492" 
d="M27 292l367 308l45 -54l-303 -254l303 -254l-45 -54z" />
    <glyph glyph-name="equal" unicode="=" horiz-adv-x="408" 
d="M67 330h275v-56h-275v56zM67 218h275v-56h-275v56z" />
    <glyph glyph-name="greater" unicode="&#x3e;" horiz-adv-x="492" 
d="M466 292l-368 -308l-45 54l303 254l-303 254l45 54z" />
    <glyph glyph-name="question" unicode="?" horiz-adv-x="472" 
d="M159 48c0 15.333 5.33301 28.333 16 39s23.667 16 39 16s28.5 -5.33301 39.5 -16s16.5 -23.667 16.5 -39s-5.5 -28.5 -16.5 -39.5s-24.167 -16.5 -39.5 -16.5s-28.333 5.5 -39 16.5s-16 24.167 -16 39.5zM30 572c15.333 42.667 41.001 77 77.001 103s75 39 117 39
c58.667 0 108 -19 148 -57s60 -85 60 -141c0 -31.333 -4.5 -59 -13.5 -83s-20.167 -42.833 -33.5 -56.5s-28 -27.834 -44 -42.501l-44 -40.5c-13.333 -12.333 -24.5 -29.166 -33.5 -50.499s-13.5 -45.666 -13.5 -72.999h-70c0 31.333 4.5 59 13.5 83
s20.167 42.833 33.5 56.5s28 27.834 44 42.501l44 40.5c13.333 12.333 24.5 29.166 33.5 50.499s13.5 45.666 13.5 72.999c0 38.667 -12.333 70.667 -37 96s-58.334 38 -101.001 38c-30.667 0 -57.5 -8.5 -80.5 -25.5s-39.5 -41.167 -49.5 -72.5z" />
    <glyph glyph-name="at" unicode="@" horiz-adv-x="769" 
d="M384 56c-53.333 0 -94.1699 20.332 -122.503 60.999s-42.5 96.667 -42.5 168c0 70 14 124.667 42 164s68.333 59 121 59c38 0 71 -13 99 -39v21h64v-299c0 -21.333 5.83301 -37.333 17.5 -48s23.167 -16 34.5 -16c20.667 0 37 15.5 49 46.5s18 71.167 18 120.5
c0 112 -23.167 199 -69.5 261s-117.166 93 -212.499 93c-64 0 -125.167 -33.167 -183.5 -99.5s-87.5 -142.833 -87.5 -229.5c0 -124 27.667 -222.5 83 -295.5s130.333 -109.5 225 -109.5c40 0 85 9 135 27l28 -60c-58 -20.667 -112.333 -31 -163 -31
c-112.667 0 -203.834 42.333 -273.501 127s-104.5 197.667 -104.5 339c0 52.667 10.333 103.834 31 153.501s47.334 92 80.001 127s69.334 63 110.001 84s80.667 31.5 120 31.5c116 0 203.667 -38.667 263 -116s89 -183.333 89 -318c0 -26.667 -2.33301 -52.334 -7 -77.001
s-12 -48.167 -22 -70.5s-24.167 -40.166 -42.5 -53.499s-40.166 -20 -65.499 -20c-48.667 0 -82 18.333 -100 55c-29.333 -37.333 -67 -56 -113 -56zM480.996 281.999c0 44 -9 82 -27 114s-42 48 -72 48s-54.167 -16 -72.5 -48s-27.5 -70 -27.5 -114
c0 -45.333 9 -83.833 27 -115.5s42.333 -47.5 73 -47.5c30 0 54 15.5 72 46.5s27 69.833 27 116.5z" />
    <glyph glyph-name="A" unicode="A" horiz-adv-x="589" 
d="M336 696l254 -696h-82l-72 196h-282l-71 -196h-82l253 696v2h83zM295 584l-118 -325h237z" />
    <glyph glyph-name="B" unicode="B" horiz-adv-x="588" 
d="M81 0l-0.000976562 698h207c60 0 110.667 -16.333 152 -49s62 -74.667 62 -126c0 -57.333 -25.667 -103 -77 -137c37.333 -16 67.333 -39.167 90 -69.5s34 -67.5 34 -111.5c0 -66 -24.167 -116.667 -72.5 -152s-105.166 -53 -170.499 -53h-225zM157.999 346v-282.999h146
c46 0 84.333 12.333 115 37s46 59.667 46 105s-15.167 80.166 -45.5 104.499s-68.833 36.5 -115.5 36.5h-146zM157.999 634.001v-222.999h130c41.333 0 73.333 11.167 96 33.5s34 48.5 34 78.5c0 29.333 -11.333 55.166 -34 77.499s-54.667 33.5 -96 33.5h-130z" />
    <glyph glyph-name="C" unicode="C" horiz-adv-x="586" 
d="M559 147c-62.667 -108.667 -140.001 -162.999 -232.001 -162.999c-78 0 -144.5 35.833 -199.5 107.5s-82.5 157.167 -82.5 256.5s27.5 185.166 82.5 257.499s121.5 108.5 199.5 108.5c84.667 0 158 -48 220 -144l-61 -43c-47.333 78 -100.333 117 -159 117
c-59.333 0 -108.166 -29.333 -146.499 -88s-57.5 -128 -57.5 -208s19 -149 57 -207s87 -87 147 -87c64 0 119.333 43 166 129z" />
    <glyph glyph-name="D" unicode="D" horiz-adv-x="624" 
d="M81 0v698.001h152c45.333 0 88.166 -7 128.499 -21s77 -34.667 110 -62s59.167 -64 78.5 -110s29 -98.333 29 -157s-9.66699 -110.834 -29 -156.501s-45.5 -82.167 -78.5 -109.5s-69.667 -47.833 -110 -61.5s-83.166 -20.5 -128.499 -20.5h-152zM158 628.001v-558h53
c91.333 0 162 22.833 212 68.5s75 115.5 75 209.5c0 94.667 -25 165 -75 211s-120.667 69 -212 69h-53z" />
    <glyph glyph-name="E" unicode="E" horiz-adv-x="515" 
d="M81 0v698h391v-64h-314v-223h245v-63h-245v-285h317v-63h-394z" />
    <glyph glyph-name="F" unicode="F" horiz-adv-x="490" 
d="M81 0v698h391v-64h-314v-223h245v-63h-245v-348h-77z" />
    <glyph glyph-name="G" unicode="G" horiz-adv-x="621" 
d="M337 298l-0.00195312 62.999h241v-63c0 -110 -22.833 -189.833 -68.5 -239.5s-111.5 -74.5 -197.5 -74.5c-77.333 0 -141.166 35.5 -191.499 106.5s-75.5 156.833 -75.5 257.5s27 186.834 81 258.501s122.667 107.5 206 107.5c52.667 0 95.5 -11.833 128.5 -35.5
s65.167 -59.834 96.5 -108.501l-61 -43c-23.333 38.667 -47 67.834 -71 87.501s-55 29.5 -93 29.5c-62.667 0 -113.167 -29.167 -151.5 -87.5s-57.5 -127.833 -57.5 -208.5c0 -81.333 16.833 -150.666 50.5 -207.999s79.834 -86 138.501 -86
c30.667 0 56.167 2.83301 76.5 8.5s39.833 16.667 58.5 33s32.5 41.166 41.5 74.499s13.5 76 13.5 128h-165z" />
    <glyph glyph-name="H" unicode="H" horiz-adv-x="622" 
d="M81 0v698h77v-302h307v302h77v-698h-77v333h-307v-333h-77z" />
    <glyph glyph-name="I" unicode="I" horiz-adv-x="259" 
d="M168 631v-563h37v-68h-151v68h37v563h-37v67h151v-67h-37z" />
    <glyph glyph-name="J" unicode="J" horiz-adv-x="501" 
d="M77 161c10 -32.667 26.5 -58.5 49.5 -77.5s50.167 -28.5 81.5 -28.5c45.333 0 80.166 12.833 104.499 38.5s36.5 64.5 36.5 116.5v488h77v-488c0 -68.667 -20.667 -123.5 -62 -164.5s-92.666 -61.5 -153.999 -61.5c-42 0 -81 13.5 -117 40.5s-63 62.167 -81 105.5z" />
    <glyph glyph-name="K" unicode="K" horiz-adv-x="545" 
d="M81 0v698h77v-328l275 328h99l-260 -310l272 -388h-93l-230 328l-63 -76v-252h-77z" />
    <glyph glyph-name="L" unicode="L" horiz-adv-x="446" 
d="M81 0v698h77v-635h273v-63h-350z" />
    <glyph glyph-name="M" unicode="M" horiz-adv-x="812" 
d="M81 0v698h83l243 -597l241 597h83v-698h-76v515l-208 -515h-81l-208 514v-514h-77z" />
    <glyph glyph-name="N" unicode="N" horiz-adv-x="644" 
d="M81 0v698h77l329 -572v572h76v-698h-76l-329 570v-570h-77z" />
    <glyph glyph-name="O" unicode="O" horiz-adv-x="686" 
d="M124 348c0 -78 21.333 -146.5 64 -205.5s94.334 -88.5 155.001 -88.5s112.334 29.5 155.001 88.5s64 127.5 64 205.5c0 78.667 -21.333 147.667 -64 207s-94.334 89 -155.001 89s-112.334 -29.667 -155.001 -89s-64 -128.333 -64 -207zM43 348
c0 98 30.167 183.5 90.5 256.5s130.166 109.5 209.499 109.5s149.166 -36.5 209.499 -109.5s90.5 -158.5 90.5 -256.5s-30.167 -183.167 -90.5 -255.5s-130.166 -108.5 -209.499 -108.5s-149.166 36.167 -209.499 108.5s-90.5 157.5 -90.5 255.5z" />
    <glyph glyph-name="P" unicode="P" horiz-adv-x="570" 
d="M81 0l-0.000976562 698h223c65.333 0 122.5 -17.667 171.5 -53s73.5 -86 73.5 -152s-24.167 -116.667 -72.5 -152s-105.166 -53 -170.499 -53h-148v-288h-77zM157.999 634v-281.998h146c46.667 0 85.167 12.167 115.5 36.5s45.5 59.166 45.5 104.499
s-15.167 80.166 -45.5 104.499s-68.833 36.5 -115.5 36.5h-146z" />
    <glyph glyph-name="Q" unicode="Q" horiz-adv-x="686" 
d="M43 348c0 98 30.167 183.5 90.5 256.5s130.166 109.5 209.499 109.5s149.166 -36.5 209.499 -109.5s90.5 -158.5 90.5 -256.5c0 -100 -31.333 -186.667 -94 -260l74 -74l-45 -44l-75 74c-49.333 -40 -102.666 -60 -159.999 -60c-79.333 0 -149.166 36.167 -209.499 108.5
s-90.5 157.5 -90.5 255.5zM124 348c0 -78 21.333 -146.499 64 -205.499s94.334 -88.5 155.001 -88.5c40.667 0 77.334 13.333 110.001 40l-78 77l45 45l77 -76c43.333 57.333 65 126.666 65 207.999c0 78.667 -21.333 147.667 -64 207s-94.334 89 -155.001 89
s-112.334 -29.667 -155.001 -89s-64 -128.333 -64 -207z" />
    <glyph glyph-name="R" unicode="R" horiz-adv-x="594" 
d="M81 0v698.001h223c65.333 0 122.5 -17.667 171.5 -53s73.5 -86 73.5 -152c0 -52 -15.167 -94.333 -45.5 -127s-69.5 -55.334 -117.5 -68.001l172 -298h-85l-166 288h-1h-148v-288h-77zM158 634.001v-281.998h146c46.667 0 85.167 12.167 115.5 36.5
s45.5 59.166 45.5 104.499s-15.167 80.166 -45.5 104.499s-68.833 36.5 -115.5 36.5h-146z" />
    <glyph glyph-name="S" unicode="S" horiz-adv-x="565" 
d="M285 314c-74 20 -130.333 46.001 -169 78.001s-58 76 -58 132c0 61.333 19.667 108.333 59 141s94.666 49 165.999 49c87.333 0 161.666 -40 222.999 -120l-57 -48c-48.667 65.333 -104 98 -166 98c-52 0 -89.5 -9.66699 -112.5 -29s-34.5 -49.666 -34.5 -90.999
c0 -16 2.5 -30.167 7.5 -42.5s10.5 -22.166 16.5 -29.499s15.833 -14.5 29.5 -21.5s24.5 -12 32.5 -15s21.333 -7.33301 40 -13s31.667 -9.83398 39 -12.501c68.667 -23.333 113.334 -41 134.001 -53c60.667 -34.667 91 -89 91 -163c0 -61.333 -22.833 -108.333 -68.5 -141
s-108.5 -49 -188.5 -49c-45.333 0 -89.166 13 -131.499 39s-77.5 61 -105.5 105l60 43c20.667 -34.667 46.834 -62.834 78.501 -84.501s64.5 -32.5 98.5 -32.5c61.333 0 106.666 9.66699 135.999 29s44 49.666 44 90.999c0 40 -12.333 69.333 -37 88s-67 36 -127 52z" />
    <glyph glyph-name="T" unicode="T" horiz-adv-x="514" 
d="M19 635v63h476v-63h-200v-635h-76v635h-200z" />
    <glyph glyph-name="U" unicode="U" horiz-adv-x="650" 
d="M75 290l0.000976562 408h82v-408c0 -70 13.667 -126.833 41 -170.5s70 -65.5 128 -65.5s100.667 21.833 128 65.5s41 100.5 41 170.5v408h80v-408c0 -98 -21.833 -173.5 -65.5 -226.5s-104.834 -79.5 -183.501 -79.5c-79.333 0 -141 26.5 -185 79.5s-66 128.5 -66 226.5z
" />
    <glyph glyph-name="V" unicode="V" horiz-adv-x="586" 
d="M252 1l-253 697h82l212 -584l213 584h82l-254 -697l1 -1h-83v1z" />
    <glyph glyph-name="W" unicode="W" horiz-adv-x="871" 
d="M288 0h-79l-186 698h78l148 -551l147 551h79l148 -550l147 550h79l-186 -698h-80l-148 551z" />
    <glyph glyph-name="X" unicode="X" horiz-adv-x="507" 
d="M297 357l190 -357h-86l-147 276l-146 -276h-86l189 357l-181 341h86l138 -261l139 261h86z" />
    <glyph glyph-name="Y" unicode="Y" horiz-adv-x="484" 
d="M243 442l153 256h89l-205 -343v-355h-76v358l-204 340h89z" />
    <glyph glyph-name="Z" unicode="Z" horiz-adv-x="515" 
d="M39 635v63h436v-76l-349 -559h349v-63h-436v65l355 570h-355z" />
    <glyph glyph-name="bracketleft" unicode="[" horiz-adv-x="265" 
d="M69 738h176v-40h-100v-698h100v-40h-176v778z" />
    <glyph glyph-name="backslash" unicode="\" horiz-adv-x="386" 
d="M34 698h63l254 -698h-63z" />
    <glyph glyph-name="bracketright" unicode="]" horiz-adv-x="265" 
d="M197 -40h-177v40h101v698h-101v40h177v-778z" />
    <glyph glyph-name="asciicircum" unicode="^" horiz-adv-x="489" 
d="M234 487l188 -250l-58 -42l-131 175l-131 -175l-56 42z" />
    <glyph glyph-name="underscore" unicode="_" horiz-adv-x="468" 
d="M0 -28h469v-60h-469v60z" />
    <glyph glyph-name="grave" unicode="`" horiz-adv-x="397" 
d="M296 581l-236 119l35 60l221 -145z" />
    <glyph glyph-name="a" unicode="a" 
d="M35 240c0 68.667 24.332 128.5 72.999 179.5s103.334 76.5 164.001 76.5c63.333 0 119.333 -26.667 168 -80v63h70v-479h-70v62c-48 -52 -103.333 -78 -166 -78c-60.667 0 -115.667 25.5 -165 76.5s-74 110.833 -74 179.5zM103.999 240c0 -52.667 16.833 -98 50.5 -136
s72.834 -57 117.501 -57s83.834 19 117.501 57s50.5 83.333 50.5 136s-16.833 97.834 -50.5 135.501s-72.834 56.5 -117.501 56.5s-83.834 -18.833 -117.501 -56.5s-50.5 -82.834 -50.5 -135.501z" />
    <glyph glyph-name="b" unicode="b" 
d="M134 65v-65h-69v743h69v-327c48.667 53.333 104.667 80 168 80c60.667 0 115.5 -25.5 164.5 -76.5s73.5 -110.833 73.5 -179.5c0 -69.333 -24.167 -129.333 -72.5 -180s-102.833 -76 -163.5 -76c-63.333 0 -120 27 -170 81zM134 240c0 -52.667 16.833 -98 50.5 -136
s72.834 -57 117.501 -57s83.834 19 117.501 57s50.5 83.333 50.5 136s-16.833 97.834 -50.5 135.501s-72.834 56.5 -117.501 56.5s-83.834 -18.833 -117.501 -56.5s-50.5 -82.834 -50.5 -135.501z" />
    <glyph glyph-name="c" unicode="c" horiz-adv-x="488" 
d="M465 76c-24.667 -30.667 -51.666 -53.666 -80.999 -68.999s-66 -23 -110 -23c-60.667 0 -115.667 25.5 -165 76.5s-74 110.833 -74 179.5s24.333 128.5 73 179.5s103.334 76.5 164.001 76.5c33.333 0 66.166 -8.83301 98.499 -26.5s60.166 -41.167 83.499 -70.5l-52 -40
c-34.667 48.667 -78 73 -130 73c-44.667 0 -83.834 -18.833 -117.501 -56.5s-50.5 -82.834 -50.5 -135.501s16.833 -98 50.5 -136s72.834 -57 117.501 -57c35.333 0 62.833 5.33301 82.5 16s38.5 27.667 56.5 51z" />
    <glyph glyph-name="d" unicode="d" 
d="M35 240c0 68.667 24.332 128.5 72.999 179.5s103.334 76.5 164.001 76.5c63.333 0 119.333 -26.667 168 -80v327h70v-743h-70v62c-48 -52 -103.333 -78 -166 -78c-60.667 0 -115.667 25.5 -165 76.5s-74 110.833 -74 179.5zM103.999 240c0 -52.667 16.833 -98 50.5 -136
s72.834 -57 117.501 -57s83.834 19 117.501 57s50.5 83.333 50.5 136s-16.833 97.834 -50.5 135.501s-72.834 56.5 -117.501 56.5s-83.834 -18.833 -117.501 -56.5s-50.5 -82.834 -50.5 -135.501z" />
    <glyph glyph-name="e" unicode="e" horiz-adv-x="538" 
d="M104 240c0 -52.667 16.832 -98.001 50.499 -136.001s72.834 -57 117.501 -57c48.667 0 84.167 6.83301 106.5 20.5s42.5 35.834 60.5 66.501l56 -37c-24.667 -38 -53.334 -66.333 -86.001 -85s-77.667 -28 -135 -28c-60.667 0 -115.667 25.5 -165 76.5
s-74 110.833 -74 179.5s24.333 128.5 73 179.5s103.334 76.5 164.001 76.5s115.5 -25.5 164.5 -76.5s73.5 -110.833 73.5 -179.5h-406zM114.999 302.999h315c-12 38 -32.667 69 -62 93s-61.333 36 -96 36s-66.5 -12 -95.5 -36s-49.5 -55 -61.5 -93z" />
    <glyph glyph-name="f" unicode="f" horiz-adv-x="282" 
d="M270 696h-28c-23.333 0 -42.833 -8.66699 -58.5 -26s-23.5 -38 -23.5 -62v-129h110v-63h-110v-416h-70v416h-61v63h61v129c0 42 14.833 77.833 44.5 107.5s65.5 44.5 107.5 44.5h28v-64z" />
    <glyph glyph-name="g" unicode="g" 
d="M35 240c0 68.667 24.3311 128.5 72.998 179.5s103.334 76.5 164.001 76.5c63.333 0 119.333 -26.667 168 -80v63h70v-461c0 -74.667 -19.167 -130.5 -57.5 -167.5s-89.5 -55.5 -153.5 -55.5h-158v64h158c44.667 0 79.334 13.5 104.001 40.5s37 66.5 37 118.5v44
c-48 -52 -103.333 -78 -166 -78c-60.667 0 -115.667 25.5 -165 76.5s-74 110.833 -74 179.5zM103.998 240c0 -52.667 16.833 -98 50.5 -136s72.834 -57 117.501 -57s83.834 19 117.501 57s50.5 83.333 50.5 136s-16.833 97.834 -50.5 135.501s-72.834 56.5 -117.501 56.5
s-83.834 -18.833 -117.501 -56.5s-50.5 -82.834 -50.5 -135.501z" />
    <glyph glyph-name="h" unicode="h" horiz-adv-x="547" 
d="M488 303l0.000976562 -302.999h-69v303c0 36 -13.167 66.5 -39.5 91.5s-60.833 37.5 -103.5 37.5s-77 -18.333 -103 -55s-39 -82.334 -39 -137.001v-240h-69v743h69v-308c39.333 40.667 86.666 61 141.999 61c61.333 0 112 -17.167 152 -51.5s60 -81.5 60 -141.5z" />
    <glyph glyph-name="i" unicode="i" horiz-adv-x="198" 
d="M44 628c0 15.333 5.33301 28.333 16 39s23.667 16 39 16s28.5 -5.33301 39.5 -16s16.5 -23.667 16.5 -39s-5.5 -28.5 -16.5 -39.5s-24.167 -16.5 -39.5 -16.5s-28.333 5.5 -39 16.5s-16 24.167 -16 39.5zM65 0v479h69v-479h-69z" />
    <glyph glyph-name="j" unicode="j" horiz-adv-x="198" 
d="M44 628c0 15.333 5.33301 28.333 16 39s23.667 16 39 16s28.5 -5.33301 39.5 -16s16.5 -23.667 16.5 -39s-5.5 -28.5 -16.5 -39.5s-24.167 -16.5 -39.5 -16.5s-28.333 5.5 -39 16.5s-16 24.167 -16 39.5zM-46 -141h29c23.333 0 42.833 8.66699 58.5 26s23.5 38 23.5 62
v532h69v-532c0 -42 -14.667 -77.833 -44 -107.5s-65 -44.5 -107 -44.5h-29v64z" />
    <glyph glyph-name="k" unicode="k" horiz-adv-x="446" 
d="M65 0v743h69v-454l190 190h100l-184 -184l198 -295h-85l-164 245l-55 -55v-190h-69z" />
    <glyph glyph-name="l" unicode="l" horiz-adv-x="208" 
d="M70 0v743h69v-743h-69z" />
    <glyph glyph-name="m" unicode="m" horiz-adv-x="788" 
d="M728 303v-302.998h-69v303c0 36 -10.667 66.5 -32 91.5s-49 37.5 -83 37.5s-61.333 -18.333 -82 -55s-31 -82.334 -31 -137.001v-240h-69v303c0 36 -10.667 66.5 -32 91.5s-49 37.5 -83 37.5s-61.333 -18.333 -82 -55s-31 -82.334 -31 -137.001v-240h-69v479h69v-36
c33.333 35.333 71 53 113 53c32 0 62 -7.66699 90 -23s50.333 -37 67 -65c16.667 28 37.5 49.667 62.5 65s50.833 23 77.5 23c50 0 93.167 -17.5 129.5 -52.5s54.5 -81.833 54.5 -140.5z" />
    <glyph glyph-name="n" unicode="n" horiz-adv-x="547" 
d="M488 303v-302.999h-69v303c0 36 -13.167 66.5 -39.5 91.5s-60.833 37.5 -103.5 37.5s-77 -18.333 -103 -55s-39 -82.334 -39 -137.001v-240h-69v479h69v-43c38.667 40 86 60 142 60c61.333 0 112 -17.167 152 -51.5s60 -81.5 60 -141.5z" />
    <glyph glyph-name="o" unicode="o" horiz-adv-x="544" 
d="M104 240c0 -52.667 16.833 -98 50.5 -136s72.834 -57 117.501 -57s83.834 19 117.501 57s50.5 83.333 50.5 136s-16.833 97.834 -50.5 135.501s-72.834 56.5 -117.501 56.5s-83.834 -18.833 -117.501 -56.5s-50.5 -82.834 -50.5 -135.501zM35 240
c0 68.667 24.332 128.5 72.999 179.5s103.334 76.5 164.001 76.5s115.5 -25.5 164.5 -76.5s73.5 -110.833 73.5 -179.5c0 -69.333 -24.167 -129.333 -72.5 -180s-102.833 -76 -163.5 -76s-115.667 25.5 -165 76.5s-74 110.833 -74 179.5z" />
    <glyph glyph-name="p" unicode="p" 
d="M134 65v-269h-69v683h69v-63c48.667 53.333 104.667 80 168 80c60.667 0 115.5 -25.5 164.5 -76.5s73.5 -110.833 73.5 -179.5c0 -69.333 -24.167 -129.333 -72.5 -180s-102.833 -76 -163.5 -76c-63.333 0 -120 27 -170 81zM134 240c0 -52.667 16.833 -98 50.5 -136
s72.834 -57 117.501 -57s83.834 19 117.501 57s50.5 83.333 50.5 136s-16.833 97.834 -50.5 135.501s-72.834 56.5 -117.501 56.5s-83.834 -18.833 -117.501 -56.5s-50.5 -82.834 -50.5 -135.501z" />
    <glyph glyph-name="q" unicode="q" 
d="M35 240c0 68.667 24.332 128.5 72.999 179.5s103.334 76.5 164.001 76.5c63.333 0 119.333 -26.667 168 -80v63h70v-684h-70v267c-48 -52 -103.333 -78 -166 -78c-60.667 0 -115.667 25.5 -165 76.5s-74 110.833 -74 179.5zM103.999 240c0 -52.667 16.833 -98 50.5 -136
s72.834 -57 117.501 -57s83.834 19 117.501 57s50.5 83.333 50.5 136s-16.833 97.834 -50.5 135.501s-72.834 56.5 -117.501 56.5s-83.834 -18.833 -117.501 -56.5s-50.5 -82.834 -50.5 -135.501z" />
    <glyph glyph-name="r" unicode="r" horiz-adv-x="445" 
d="M384 352c-21.333 53.333 -60.667 80 -118 80c-42 0 -74.5 -18 -97.5 -54s-34.5 -82 -34.5 -138v-240h-69v479h69v-38c36.667 36.667 80.667 55 132 55c88.667 0 149 -37.667 181 -113z" />
    <glyph glyph-name="s" unicode="s" horiz-adv-x="475" 
d="M246 206c-2 0.666992 -9.50098 2.16992 -22.501 4.50293s-21.667 4 -26 5l-26 6c-13 3 -22.167 5.66699 -27.5 8l-24.5 10.5c-11 4.66699 -19.167 9.16699 -24.5 13.5l-19.5 16c-7.66699 6.33301 -13.334 13.166 -17.001 20.499s-6.83398 15.666 -9.50098 24.999
s-4 19.333 -4 30c0 46.667 18.833 83.5 56.5 110.5s86.5 40.5 146.5 40.5c88 0 148 -37.667 180 -113l-62 -31c-21.333 53.333 -60.666 80 -117.999 80c-42.667 0 -75.334 -7.83301 -98.001 -23.5s-34 -36.834 -34 -63.501c0 -6 0.833008 -11.333 2.5 -16
s4.33398 -9 8.00098 -13s7.5 -7.5 11.5 -10.5s9.16699 -5.66699 15.5 -8s12 -4.33301 17 -6s11.667 -3.33398 20 -5.00098l20 -4c5 -1 12.167 -2.16699 21.5 -3.5s16 -2.33301 20 -3c25.333 -4 47.333 -8.66699 66 -14s38.5 -13.166 59.5 -23.499
s37.167 -24.166 48.5 -41.499s17 -38 17 -62c0 -46 -20.833 -82.667 -62.5 -110s-93.167 -41 -154.5 -41c-45.333 0 -85.333 9.83301 -120 29.5s-59.667 47.5 -75 83.5l62 31c10 -24 26.667 -43.333 50 -58s51 -22 83 -22c43.333 0 78.833 8.33301 106.5 25
s41.5 37.334 41.5 62.001c0 7.33301 -1.16699 14.166 -3.5 20.499s-6.66602 11.666 -12.999 15.999l-16.5 11c-4.66699 3 -12.167 5.83301 -22.5 8.5l-23 6c-5 1.33301 -13.667 3 -26 5s-20.166 3.33301 -23.499 4z" />
    <glyph glyph-name="t" unicode="t" horiz-adv-x="282" 
d="M29 416v63h61v159h70v-159h110v-63h-110v-416h-70v416h-61z" />
    <glyph glyph-name="u" unicode="u" horiz-adv-x="547" 
d="M59 176l-0.000976562 302.999h69v-303c0 -36 13.167 -66.5 39.5 -91.5s60.833 -37.5 103.5 -37.5s77 18.333 103 55s39 82.334 39 137.001v240h70v-479h-70v42c-39.333 -39.333 -86.666 -59 -141.999 -59c-61.333 0 -112 17.167 -152 51.5s-60 81.5 -60 141.5z" />
    <glyph glyph-name="v" unicode="v" horiz-adv-x="466" 
d="M195 0l-194 479h76l156 -389l157 389h76l-195 -479h-76z" />
    <glyph glyph-name="w" unicode="w" horiz-adv-x="736" 
d="M172 0l-156 479h74l121 -375l121 375h71l121 -374l122 374h74l-156 -479h-78l-118 362l-118 -362h-78z" />
    <glyph glyph-name="x" unicode="x" horiz-adv-x="424" 
d="M171 250l-143 229h82l102 -164l102 164h83l-143 -229l156 -250h-83l-115 183l-115 -183h-82z" />
    <glyph glyph-name="y" unicode="y" horiz-adv-x="466" 
d="M233 90l157 389h76l-278 -684h-74l82 204l-195 480h76z" />
    <glyph glyph-name="z" unicode="z" horiz-adv-x="430" 
d="M38 416v63h354v-63l-270 -353h270v-63h-354v63l270 353h-270z" />
    <glyph glyph-name="braceleft" unicode="{" horiz-adv-x="253" 
d="M168 207c0 -22.667 -2.83105 -52.002 -8.49805 -88.002s-8.5 -60 -8.5 -72c0 -23.333 7.16699 -42.166 21.5 -56.499s29.5 -23.166 45.5 -26.499v-47c-36.667 5.33301 -69.334 18.5 -98.001 39.5s-43 51.5 -43 91.5c0 22.667 2.83301 52.167 8.5 88.5
s8.5 60.166 8.5 71.499c0 18.667 -7.33301 36.667 -22 54s-29.334 27.333 -44.001 30v47c15.333 2.66699 31.333 12.667 48 30s25 35.333 25 54c0 11.333 -4 35.166 -12 71.499s-12 65.833 -12 88.5c0 40 14.167 70.5 42.5 91.5s60.833 34.167 97.5 39.5l1 -47
c-16 -3.33301 -31 -12.166 -45 -26.499s-21 -33.166 -21 -56.499c0 -12 2.83301 -36 8.5 -72s8.5 -65.333 8.5 -88c0 -48 -20 -84.333 -60 -109c39.333 -24.667 59 -60.667 59 -108z" />
    <glyph glyph-name="bar" unicode="|" horiz-adv-x="177" 
d="M68 -70v838h42v-838h-42z" />
    <glyph glyph-name="braceright" unicode="}" horiz-adv-x="253" 
d="M86 424c0 22.667 2.83105 52.002 8.49805 88.002s8.5 60 8.5 72c0 23.333 -7.16699 42.166 -21.5 56.499s-29.5 23.166 -45.5 26.499v47c36.667 -5.33301 69.334 -18.5 98.001 -39.5s43 -51.5 43 -91.5c0 -22.667 -2.83301 -52.167 -8.5 -88.5s-8.5 -60.166 -8.5 -71.499
c0 -18.667 7.33301 -36.667 22 -54s29.334 -27.333 44.001 -30v-47c-15.333 -2.66699 -31.333 -12.667 -48 -30s-25 -35.333 -25 -54c0 -11.333 4 -35.166 12 -71.499s12 -65.833 12 -88.5c0 -40 -14.167 -70.5 -42.5 -91.5s-60.833 -34.167 -97.5 -39.5l-1 47
c16 3.33301 31 12.166 45 26.499s21 33.166 21 56.499c0 12 -2.83301 36 -8.5 72s-8.5 65.333 -8.5 88c0 47.333 20 83.333 60 108c-39.333 24.667 -59 61 -59 109z" />
    <glyph glyph-name="asciitilde" unicode="~" horiz-adv-x="517" 
d="M342 329c18.667 0 36.6689 7.16699 54.002 21.5s27.333 28.833 30 43.5h47c-3.33301 -30.667 -18.666 -60.5 -45.999 -89.5s-55.666 -43.5 -84.999 -43.5c-22.667 0 -51.834 10.833 -87.501 32.5s-59.167 32.5 -70.5 32.5c-18.667 0 -36.834 -7.16699 -54.501 -21.5
s-27.834 -28.833 -30.501 -43.5h-46c3.33301 30.667 18.666 60.5 45.999 89.5s55.666 43.5 84.999 43.5c22.667 0 51.834 -10.833 87.501 -32.5s59.167 -32.5 70.5 -32.5z" />
    <glyph glyph-name="uni0400" unicode="&#x400;" horiz-adv-x="515" 
d="M352 743l-236 119l35 60l221 -145zM81 0v698h391v-64h-314v-223h245v-63h-245v-285h317v-63h-394z" />
    <glyph glyph-name="afii10023" unicode="&#x401;" horiz-adv-x="515" 
d="M337 790c0 15.333 5.33301 28.333 16 39s23.667 16 39 16s28.666 -5.33301 39.999 -16s17 -23.667 17 -39s-5.66699 -28.5 -17 -39.5s-24.666 -16.5 -39.999 -16.5s-28.333 5.5 -39 16.5s-16 24.167 -16 39.5zM137 790c0 15.333 5.5 28.333 16.5 39s24.167 16 39.5 16
s28.5 -5.33301 39.5 -16s16.5 -23.667 16.5 -39s-5.5 -28.5 -16.5 -39.5s-24.167 -16.5 -39.5 -16.5s-28.5 5.5 -39.5 16.5s-16.5 24.167 -16.5 39.5zM81 0v698h391v-64h-314v-223h245v-63h-245v-285h317v-63h-394z" />
    <glyph glyph-name="afii10051" unicode="&#x402;" horiz-adv-x="724" 
d="M19 635l0.00195312 63.002h476v-63h-200v-205c38 39.333 91 59 159 59c79.333 0 138.166 -22.333 176.499 -67s57.5 -115.667 57.5 -213c0 -106.667 -19.333 -184.334 -58 -233.001s-103.334 -73 -194.001 -73v63c62 0 106 18.167 132 54.5s39 99.166 39 188.499
c0 70 -11 122.667 -33 158s-62 53 -120 53c-106 0 -159 -79 -159 -237v-183h-76v635h-200z" />
    <glyph glyph-name="afii10052" unicode="&#x403;" horiz-adv-x="477" 
d="M212 777l222 145l34 -60l-235 -119zM158 634v-634h-77v698h391v-64h-314z" />
    <glyph glyph-name="afii10053" unicode="&#x404;" horiz-adv-x="586" 
d="M559 147c-62.667 -108.667 -140 -162.999 -232 -162.999c-78 0 -144.5 35.833 -199.5 107.5s-82.5 157.167 -82.5 256.5s27.5 185.166 82.5 257.499s121.5 108.5 199.5 108.5c84.667 0 158 -48 220 -144l-61 -43c-47.333 78 -100.333 117 -159 117
c-55.333 0 -101.666 -25.667 -138.999 -77s-58.666 -113.333 -63.999 -186h270v-64h-270c5.33301 -73.333 26.666 -135.5 63.999 -186.5s83.666 -76.5 138.999 -76.5c64 0 119.333 43 166 129z" />
    <glyph glyph-name="afii10054" unicode="&#x405;" horiz-adv-x="565" 
d="M285 314c-74 20 -130.333 46.001 -169 78.001s-58 76 -58 132c0 61.333 19.667 108.333 59 141s94.666 49 165.999 49c87.333 0 161.666 -40 222.999 -120l-57 -48c-48.667 65.333 -104 98 -166 98c-52 0 -89.5 -9.66699 -112.5 -29s-34.5 -49.666 -34.5 -90.999
c0 -16 2.5 -30.167 7.5 -42.5s10.5 -22.166 16.5 -29.499s15.833 -14.5 29.5 -21.5s24.5 -12 32.5 -15s21.333 -7.33301 40 -13s31.667 -9.83398 39 -12.501c68.667 -23.333 113.334 -41 134.001 -53c60.667 -34.667 91 -89 91 -163c0 -61.333 -22.833 -108.333 -68.5 -141
s-108.5 -49 -188.5 -49c-45.333 0 -89.166 13 -131.499 39s-77.5 61 -105.5 105l60 43c20.667 -34.667 46.834 -62.834 78.501 -84.501s64.5 -32.5 98.5 -32.5c61.333 0 106.666 9.66699 135.999 29s44 49.666 44 90.999c0 40 -12.333 69.333 -37 88s-67 36 -127 52z" />
    <glyph glyph-name="afii10055" unicode="&#x406;" horiz-adv-x="259" 
d="M168 631v-563h37v-68h-151v68h37v563h-37v67h151v-67h-37z" />
    <glyph glyph-name="afii10056" unicode="&#x407;" horiz-adv-x="259" 
d="M175 790c0 15.333 5.33301 28.333 16 39s23.667 16 39 16s28.666 -5.33301 39.999 -16s17 -23.667 17 -39s-5.66699 -28.5 -17 -39.5s-24.666 -16.5 -39.999 -16.5s-28.333 5.5 -39 16.5s-16 24.167 -16 39.5zM-25 790c0 15.333 5.5 28.333 16.5 39s24.167 16 39.5 16
s28.5 -5.33301 39.5 -16s16.5 -23.667 16.5 -39s-5.5 -28.5 -16.5 -39.5s-24.167 -16.5 -39.5 -16.5s-28.5 5.5 -39.5 16.5s-16.5 24.167 -16.5 39.5zM168 631v-563h37v-68h-151v68h37v563h-37v67h151v-67h-37z" />
    <glyph glyph-name="afii10057" unicode="&#x408;" horiz-adv-x="501" 
d="M77 161c10 -32.667 26.5 -58.5 49.5 -77.5s50.167 -28.5 81.5 -28.5c45.333 0 80.166 12.833 104.499 38.5s36.5 64.5 36.5 116.5v488h77v-488c0 -68.667 -20.667 -123.5 -62 -164.5s-92.666 -61.5 -153.999 -61.5c-42 0 -81 13.5 -117 40.5s-63 62.167 -81 105.5z" />
    <glyph glyph-name="afii10058" unicode="&#x409;" horiz-adv-x="905" 
d="M221 152c0 -42 -14.668 -77.833 -44.001 -107.5s-65 -44.5 -107 -44.5h-70v63h62c23.333 0 42.833 8.83301 58.5 26.5s23.5 38.5 23.5 62.5v546h349v-288h146c65.333 0 122.5 -17.667 171.5 -53s73.5 -86 73.5 -152s-24.167 -116.667 -72.5 -152
s-105.166 -53 -170.499 -53h-225v635h-195v-483zM492.999 63l146 0.000976562c46 0 84.333 12.333 115 37s46 59.667 46 105s-15.167 80.166 -45.5 104.499s-68.833 36.5 -115.5 36.5h-146v-283z" />
    <glyph glyph-name="afii10059" unicode="&#x40a;" horiz-adv-x="920" 
d="M81 0l-0.000976562 698h77v-288h273v288h78v-288h145c65.333 0 122.5 -17.667 171.5 -53s73.5 -86 73.5 -152s-24.167 -116.667 -72.5 -152s-105.166 -53 -170.499 -53h-225v346h-273v-346h-77zM508.999 346v-282.999h145c46 0 84.333 12.333 115 37s46 59.667 46 105
s-15.167 80.166 -45.5 104.499s-68.833 36.5 -115.5 36.5h-145z" />
    <glyph glyph-name="afii10060" unicode="&#x40b;" horiz-adv-x="723" 
d="M607 0v183c0 158 -51 237 -153 237c-106 0 -159 -79 -159 -237v-183h-76v635h-200v63h476v-63h-200v-205c38 39.333 91 59 159 59c152.667 0 229 -102 229 -306v-183h-76z" />
    <glyph glyph-name="afii10061" unicode="&#x40c;" horiz-adv-x="565" 
d="M239 779l222 145l34 -60l-235 -119zM81 0l0.00195312 697.999h77v-311c30.667 6.66699 58 22 82 46s44 50.5 60 79.5s33 57.667 51 86s41.167 52 69.5 71s61.833 28.5 100.5 28.5c0 -10 0.333008 -22.167 1 -36.5s1 -27.166 1 -38.499c-26 0 -49.833 -8.66699 -71.5 -26
s-39 -37.166 -52 -59.499l-49 -81c-19.667 -31.667 -38.834 -56.834 -57.501 -75.501c68 -56.667 126.833 -122 176.5 -196s74.5 -135.667 74.5 -185h-93c0 44 -18.833 96.667 -56.5 158s-92.834 120 -165.501 176c-24 -12 -47.667 -19.667 -71 -23v-311h-77z" />
    <glyph glyph-name="uni040D" unicode="&#x40d;" horiz-adv-x="644" 
d="M388 744l-236 119l35 60l221 -145zM563 0h-77v570l-329 -570h-76v698h76v-572l329 572h77v-698z" />
    <glyph glyph-name="afii10062" unicode="&#x40e;" horiz-adv-x="457" 
d="M252 736h-27c-40.667 0 -74 6.16699 -100 18.5s-39 28.5 -39 48.5c0 13.333 7.33301 28.333 22 45h40c-4.66699 -12.667 -7 -22 -7 -28c0 -14.667 7 -24.667 21 -30s35 -8 63 -8h27c28 0 49 2.66699 63 8s21 15.333 21 30c0 8 -2 17.333 -6 28h40c14 -16 21 -31 21 -45
c0 -20 -13 -36.167 -39 -48.5s-59.333 -18.5 -100 -18.5zM457 698l-187.001 -542c-35.333 -104 -107.666 -156 -216.999 -156v63c68 0 113.667 33.333 137 100l21 58l-193 477h83l148 -367l127 367h81z" />
    <glyph glyph-name="afii10145" unicode="&#x40f;" horiz-adv-x="643" 
d="M364 0v-84h-77v84h-206v698h77v-635h327v635h77v-698h-198z" />
    <glyph glyph-name="afii10017" unicode="&#x410;" horiz-adv-x="589" 
d="M336 696l254 -696h-82l-72 196h-282l-71 -196h-82l253 696v2h83zM295 584l-118 -325h237z" />
    <glyph glyph-name="afii10018" unicode="&#x411;" horiz-adv-x="581" 
d="M81 0l-0.000976562 698h412v-64h-335v-224h146c65.333 0 122.5 -17.667 171.5 -53s73.5 -86 73.5 -152s-24.167 -116.667 -72.5 -152s-105.166 -53 -170.499 -53h-225zM157.999 346v-282.999h146c46 0 84.333 12.333 115 37s46 59.667 46 105
s-15.167 80.166 -45.5 104.499s-68.833 36.5 -115.5 36.5h-146z" />
    <glyph glyph-name="afii10019" unicode="&#x412;" horiz-adv-x="588" 
d="M81 0l-0.000976562 698h207c60 0 110.667 -16.333 152 -49s62 -74.667 62 -126c0 -57.333 -25.667 -103 -77 -137c37.333 -16 67.333 -39.167 90 -69.5s34 -67.5 34 -111.5c0 -66 -24.167 -116.667 -72.5 -152s-105.166 -53 -170.499 -53h-225zM157.999 346v-282.999h146
c46 0 84.333 12.333 115 37s46 59.667 46 105s-15.167 80.166 -45.5 104.499s-68.833 36.5 -115.5 36.5h-146zM157.999 634.001v-222.999h130c41.333 0 73.333 11.167 96 33.5s34 48.5 34 78.5c0 29.333 -11.333 55.166 -34 77.499s-54.667 33.5 -96 33.5h-130z" />
    <glyph glyph-name="afii10020" unicode="&#x413;" horiz-adv-x="477" 
d="M158 634v-634h-77v698h391v-64h-314z" />
    <glyph glyph-name="afii10021" unicode="&#x414;" horiz-adv-x="652" 
d="M85 0l-0.000976562 -84h-77v147h67c30.667 74 56.834 167.667 78.501 281s32.5 231.333 32.5 354h374v-635h39v-147h-77v84h-39h-398zM159.999 63h323v572h-220c0 -208 -34.333 -398.667 -103 -572z" />
    <glyph glyph-name="afii10022" unicode="&#x415;" horiz-adv-x="515" 
d="M81 0v698h391v-64h-314v-223h245v-63h-245v-285h317v-63h-394z" />
    <glyph glyph-name="afii10024" unicode="&#x416;" horiz-adv-x="892" 
d="M43 623c0 11.333 0.331055 24.166 0.998047 38.499s1 26.5 1 36.5c38.667 0 72.334 -9.5 101.001 -28.5s51.834 -42.667 69.501 -71s34.667 -57 51 -86s36.5 -55.5 60.5 -79.5s51.333 -39.333 82 -46v311h76v-311c30.667 6.66699 58 22 82 46s44.167 50.5 60.5 79.5
s33.333 57.667 51 86s40.834 52 69.501 71s62.334 28.5 101.001 28.5c0 -10 0.333008 -22.167 1 -36.5s1 -27.166 1 -38.499c-26 0 -49.833 -8.66699 -71.5 -26s-39 -37.166 -52 -59.499l-49 -81c-19.667 -31.667 -38.834 -56.834 -57.501 -75.501
c68 -56.667 126.667 -122 176 -196s74 -135.667 74 -185h-93c0 44.667 -18.667 97.5 -56 158.5s-92.333 119.5 -165 175.5c-24 -12 -48 -19.667 -72 -23v-311h-76v311c-24 3.33301 -48 11 -72 23c-72.667 -56 -127.667 -114.5 -165 -175.5s-56 -113.833 -56 -158.5h-93
c0 49.333 24.667 111 74 185s108 139.333 176 196c-18.667 18.667 -37.834 43.834 -57.501 75.501l-49 81c-13 22.333 -30.333 42.166 -52 59.499s-45.5 26 -71.5 26z" />
    <glyph glyph-name="afii10025" unicode="&#x417;" horiz-adv-x="525" 
d="M378 374c68.667 -32 103 -87.668 103 -167.001c0 -70.667 -22.167 -125.5 -66.5 -164.5s-102.5 -58.5 -174.5 -58.5c-58 0 -104.5 8.16699 -139.5 24.5s-65.167 40.5 -90.5 72.5l55 43c33.333 -47.333 91.666 -71 174.999 -71c46.667 0 85.667 13.5 117 40.5
s47 59.167 47 96.5c0 42.667 -16.5 77.5 -49.5 104.5s-78.833 40.5 -137.5 40.5v68c57.333 0 99 11.333 125 34s39 51.334 39 86.001c0 32.667 -11.667 61.167 -35 85.5s-53.666 36.5 -90.999 36.5c-28 0 -56.5 -4.16699 -85.5 -12.5s-51.5 -21.833 -67.5 -40.5l-51 48
c23.333 24.667 54.333 43.167 93 55.5s75.667 18.5 111 18.5c58.667 0 107.167 -16 145.5 -48s57.5 -79.667 57.5 -143c0 -65.333 -26.667 -115 -80 -149z" />
    <glyph glyph-name="afii10026" unicode="&#x418;" horiz-adv-x="644" 
d="M563 0h-77v570l-329 -570h-76v698h76v-572l329 572h77v-698z" />
    <glyph glyph-name="afii10027" unicode="&#x419;" horiz-adv-x="644" 
d="M563 0h-77v570l-329 -570h-76v698h76v-572l329 572h77v-698zM341 736h-27c-40.667 0 -74 6.16699 -100 18.5s-39 28.5 -39 48.5c0 13.333 7.33301 28.333 22 45h40c-4.66699 -12.667 -7 -22 -7 -28c0 -14.667 7 -24.667 21 -30s35 -8 63 -8h27c28 0 49 2.66699 63 8
s21 15.333 21 30c0 8 -2 17.333 -6 28h40c14 -16 21 -31 21 -45c0 -20 -13 -36.167 -39 -48.5s-59.333 -18.5 -100 -18.5z" />
    <glyph glyph-name="afii10028" unicode="&#x41a;" horiz-adv-x="565" 
d="M81 0l0.00195312 697.999h77v-311c30.667 6.66699 58 22 82 46s44 50.5 60 79.5s33 57.667 51 86s41.167 52 69.5 71s61.833 28.5 100.5 28.5c0 -10 0.333008 -22.167 1 -36.5s1 -27.166 1 -38.499c-26 0 -49.833 -8.66699 -71.5 -26s-39 -37.166 -52 -59.499l-49 -81
c-19.667 -31.667 -38.834 -56.834 -57.501 -75.501c68 -56.667 126.833 -122 176.5 -196s74.5 -135.667 74.5 -185h-93c0 44 -18.833 96.667 -56.5 158s-92.834 120 -165.501 176c-24 -12 -47.667 -19.667 -71 -23v-311h-77z" />
    <glyph glyph-name="afii10029" unicode="&#x41b;" horiz-adv-x="654" 
d="M221 152c0 -42 -14.667 -77.833 -44 -107.5s-65 -44.5 -107 -44.5h-70v63h62c23.333 0 42.833 8.83301 58.5 26.5s23.5 38.5 23.5 62.5v546h429v-698h-76v635h-276v-483z" />
    <glyph glyph-name="afii10030" unicode="&#x41c;" horiz-adv-x="812" 
d="M81 0v698h83l243 -597l241 597h83v-698h-76v515l-208 -515h-81l-208 514v-514h-77z" />
    <glyph glyph-name="afii10031" unicode="&#x41d;" horiz-adv-x="622" 
d="M81 0v698h77v-302h307v302h77v-698h-77v333h-307v-333h-77z" />
    <glyph glyph-name="afii10032" unicode="&#x41e;" horiz-adv-x="686" 
d="M124 348c0 -78 21.333 -146.5 64 -205.5s94.334 -88.5 155.001 -88.5s112.334 29.5 155.001 88.5s64 127.5 64 205.5c0 78.667 -21.333 147.667 -64 207s-94.334 89 -155.001 89s-112.334 -29.667 -155.001 -89s-64 -128.333 -64 -207zM43 348
c0 98 30.167 183.5 90.5 256.5s130.166 109.5 209.499 109.5s149.166 -36.5 209.499 -109.5s90.5 -158.5 90.5 -256.5s-30.167 -183.167 -90.5 -255.5s-130.166 -108.5 -209.499 -108.5s-149.166 36.167 -209.499 108.5s-90.5 157.5 -90.5 255.5z" />
    <glyph glyph-name="afii10033" unicode="&#x41f;" horiz-adv-x="622" 
d="M81 0v698h77h307h77v-698h-77v635h-307v-635h-77z" />
    <glyph glyph-name="afii10034" unicode="&#x420;" horiz-adv-x="570" 
d="M81 0l-0.000976562 698h223c65.333 0 122.5 -17.667 171.5 -53s73.5 -86 73.5 -152s-24.167 -116.667 -72.5 -152s-105.166 -53 -170.499 -53h-148v-288h-77zM157.999 634v-281.998h146c46.667 0 85.167 12.167 115.5 36.5s45.5 59.166 45.5 104.499
s-15.167 80.166 -45.5 104.499s-68.833 36.5 -115.5 36.5h-146z" />
    <glyph glyph-name="afii10035" unicode="&#x421;" horiz-adv-x="586" 
d="M559 147c-62.667 -108.667 -140.001 -162.999 -232.001 -162.999c-78 0 -144.5 35.833 -199.5 107.5s-82.5 157.167 -82.5 256.5s27.5 185.166 82.5 257.499s121.5 108.5 199.5 108.5c84.667 0 158 -48 220 -144l-61 -43c-47.333 78 -100.333 117 -159 117
c-59.333 0 -108.166 -29.333 -146.499 -88s-57.5 -128 -57.5 -208s19 -149 57 -207s87 -87 147 -87c64 0 119.333 43 166 129z" />
    <glyph glyph-name="afii10036" unicode="&#x422;" horiz-adv-x="514" 
d="M19 635v63h476v-63h-200v-635h-76v635h-200z" />
    <glyph glyph-name="afii10037" unicode="&#x423;" horiz-adv-x="457" 
d="M457 698l-187.001 -542c-35.333 -104 -107.666 -156 -216.999 -156v63c68 0 113.667 33.333 137 100l21 58l-193 477h83l148 -367l127 367h81z" />
    <glyph glyph-name="afii10038" unicode="&#x424;" horiz-adv-x="653" 
d="M367 78v-77.998h-77v77c-71.333 8.66699 -133 39.167 -185 91.5s-78 112.166 -78 179.499s26 127.5 78 180.5s113.667 83.833 185 92.5v77h77v-78c70.667 -9.33301 131.667 -40.333 183 -93s77 -112.334 77 -179.001s-25.5 -126 -76.5 -178s-112.167 -82.667 -183.5 -92z
M367 549.002v-398.999c49.333 9.33301 91.5 32.833 126.5 70.5s52.5 80.167 52.5 127.5c0 48 -17.5 91.167 -52.5 129.5s-77.167 62.166 -126.5 71.499zM290 550.003c-50 -8.66699 -92.833 -32.5 -128.5 -71.5s-53.5 -82.5 -53.5 -130.5s17.833 -91.167 53.5 -129.5
s78.5 -61.833 128.5 -70.5v402z" />
    <glyph glyph-name="afii10039" unicode="&#x425;" horiz-adv-x="507" 
d="M297 357l190 -357h-86l-147 276l-146 -276h-86l189 357l-181 341h86l138 -261l139 261h86z" />
    <glyph glyph-name="afii10040" unicode="&#x426;" horiz-adv-x="695" 
d="M655 63v-147h-76v84h-498v698h77v-635h348v635h77v-635h72z" />
    <glyph glyph-name="afii10041" unicode="&#x427;" horiz-adv-x="599" 
d="M440 537l-0.00195312 161h78v-698h-78v334c-44 -44 -99 -66 -165 -66c-72 0 -130.333 25.833 -175 77.5s-67 115.5 -67 191.5v161h77v-161c0 -56 14.833 -104 44.5 -144s69.834 -60 120.501 -60s90.834 20 120.501 60s44.5 88 44.5 144z" />
    <glyph glyph-name="afii10042" unicode="&#x428;" horiz-adv-x="904" 
d="M823 698v-698h-742v698h77v-635h256v635h76v-635h256v635h77z" />
    <glyph glyph-name="afii10043" unicode="&#x429;" horiz-adv-x="936" 
d="M897 63v-147h-77v84h-739v698h77v-635h256v635h76v-635h256v635h77v-635h74z" />
    <glyph glyph-name="afii10044" unicode="&#x42a;" horiz-adv-x="643" 
d="M230 346v-282.999h147c46 0 84.333 12.333 115 37s46 59.667 46 105s-15.167 80.166 -45.5 104.499s-68.833 36.5 -115.5 36.5h-147zM379 0.000976562h-225.001v634h-145v64h221v-288h147c65.333 0 122.5 -17.667 171.5 -53s73.5 -86 73.5 -152
s-24.167 -116.667 -72.5 -152s-105.166 -53 -170.499 -53z" />
    <glyph glyph-name="afii10045" unicode="&#x42b;" horiz-adv-x="801" 
d="M711 631v-563h37v-68h-151v68h37v563h-37v67h151v-67h-37zM81 0l-0.000976562 698h77v-288h146c65.333 0 122.5 -17.667 171.5 -53s73.5 -86 73.5 -152s-24.167 -116.667 -72.5 -152s-105.166 -53 -170.499 -53h-225zM157.999 346v-282.999h146
c46 0 84.333 12.333 115 37s46 59.667 46 105s-15.167 80.166 -45.5 104.499s-68.833 36.5 -115.5 36.5h-146z" />
    <glyph glyph-name="afii10046" unicode="&#x42c;" horiz-adv-x="570" 
d="M81 0l-0.000976562 698h77v-288h146c65.333 0 122.5 -17.667 171.5 -53s73.5 -86 73.5 -152s-24.167 -116.667 -72.5 -152s-105.166 -53 -170.499 -53h-225zM157.999 346v-282.999h146c46 0 84.333 12.333 115 37s46 59.667 46 105s-15.167 80.166 -45.5 104.499
s-68.833 36.5 -115.5 36.5h-146z" />
    <glyph glyph-name="afii10047" unicode="&#x42d;" horiz-adv-x="586" 
d="M28 147l65.999 35.999c46.667 -86 102 -129 166 -129c55.333 0 101.666 25.5 138.999 76.5s58.666 113.167 63.999 186.5h-272v64h272c-5.33301 72.667 -26.666 134.667 -63.999 186s-83.666 77 -138.999 77c-59.333 0 -112.666 -39 -159.999 -117l-60 43
c62 96 135.333 144 220 144c78 0 144.5 -36.167 199.5 -108.5s82.5 -158.166 82.5 -257.499s-27.5 -184.833 -82.5 -256.5s-121.5 -107.5 -199.5 -107.5c-92 0 -169.333 54.333 -232 163z" />
    <glyph glyph-name="afii10048" unicode="&#x42e;" horiz-adv-x="912" 
d="M81 0v698h77v-317h112c6.66699 90.667 39.667 168.834 99 234.501s126 98.5 200 98.5c79.333 0 149.166 -36.5 209.499 -109.5s90.5 -158.5 90.5 -256.5s-30.167 -183.167 -90.5 -255.5s-130.166 -108.5 -209.499 -108.5c-74 0 -140.667 32.667 -200 98
s-92.333 143.666 -99 234.999h-112v-317h-77zM350 348c0 -78 21.333 -146.5 64 -205.5s94.334 -88.5 155.001 -88.5s112.334 29.5 155.001 88.5s64 127.5 64 205.5c0 78.667 -21.333 147.667 -64 207s-94.334 89 -155.001 89s-112.334 -29.667 -155.001 -89
s-64 -128.333 -64 -207z" />
    <glyph glyph-name="afii10049" unicode="&#x42f;" horiz-adv-x="575" 
d="M418 634l-105 -0.00195312c-46 0 -84.167 -12.167 -114.5 -36.5s-45.5 -59.166 -45.5 -104.499s15.167 -80.166 45.5 -104.499s68.5 -36.5 114.5 -36.5h105v282zM495 -0.00195312l-76.999 0.000976562v288h-27c-38 0 -74.5 -8 -109.5 -24s-58.5 -41 -70.5 -75
c-22.667 -66.667 -46.334 -114.834 -71.001 -144.501s-62.334 -44.5 -113.001 -44.5v63c6 0 11.833 0.666992 17.5 2s10.667 2.83301 15 4.5s8.66602 4.66699 12.999 9s7.83301 7.66602 10.5 9.99902s5.83398 7 9.50098 14s6.5 12 8.5 15s4.66699 9 8 18l7 19l7.5 21.5
c3.66699 10.667 6.16699 17.667 7.5 21c14.667 43.333 42.334 78.666 83.001 105.999c-43.333 14.667 -78.333 37.834 -105 69.501s-40 71.834 -40 120.501c0 66 24.333 116.667 73 152s105.667 53 171 53h182v-698z" />
    <glyph glyph-name="afii10065" unicode="&#x430;" 
d="M35 240c0 68.667 24.332 128.5 72.999 179.5s103.334 76.5 164.001 76.5c63.333 0 119.333 -26.667 168 -80v63h70v-479h-70v62c-48 -52 -103.333 -78 -166 -78c-60.667 0 -115.667 25.5 -165 76.5s-74 110.833 -74 179.5zM103.999 240c0 -52.667 16.833 -98 50.5 -136
s72.834 -57 117.501 -57s83.834 19 117.501 57s50.5 83.333 50.5 136s-16.833 97.834 -50.5 135.501s-72.834 56.5 -117.501 56.5s-83.834 -18.833 -117.501 -56.5s-50.5 -82.834 -50.5 -135.501z" />
    <glyph glyph-name="afii10066" unicode="&#x431;" horiz-adv-x="533" 
d="M450 743c0 -30 -12 -54.501 -36 -73.501s-59.333 -28.5 -106 -28.5c-89.333 0 -146.333 -67.667 -171 -203c42 38.667 88 58 138 58c59.333 0 111.333 -25.167 156 -75.5s67 -110.5 67 -180.5s-21.833 -130.167 -65.5 -180.5s-95.167 -75.5 -154.5 -75.5
c-60 0 -112.5 25.167 -157.5 75.5s-67.5 110.5 -67.5 180.5s3.66699 130.667 11 182s20 98.833 38 142.5s44.167 76.834 78.5 99.501s76.833 34 127.5 34c48 0 72 15 72 45h70zM123 239.999c0 -54 14.5 -99.667 43.5 -137s65.167 -56 108.5 -56s79.666 18.833 108.999 56.5
s44 83.167 44 136.5s-14.667 98.666 -44 135.999s-65.666 56 -108.999 56s-79.5 -18.667 -108.5 -56s-43.5 -82.666 -43.5 -135.999z" />
    <glyph glyph-name="afii10067" unicode="&#x432;" horiz-adv-x="478" 
d="M65 0l-0.000976562 479.002h137c73.333 0 125.333 -9.83301 156 -29.5s46 -51.834 46 -96.501c0 -37.333 -12.667 -66 -38 -86c51.333 -23.333 77 -62.333 77 -117c0 -50.667 -19.667 -88.334 -59 -113.001s-92.666 -37 -159.999 -37h-159zM133.999 63.002h88.001
c96 0 144 29 144 87c0 30.667 -11.833 51.167 -35.5 61.5s-59.834 15.5 -108.501 15.5h-88v-164zM134 416.002v-124.999h65c49.333 0 83 4 101 12s27 24.667 27 50s-8.5 42.166 -25.5 50.499s-50.167 12.5 -99.5 12.5h-68z" />
    <glyph glyph-name="afii10068" unicode="&#x433;" horiz-adv-x="374" 
d="M65 0v479h309v-63h-240v-416h-69z" />
    <glyph glyph-name="afii10069" unicode="&#x434;" horiz-adv-x="578" 
d="M81 0l-0.000976562 -84h-77v147h73c32.667 56.667 58.334 116.667 77.001 180s28 142 28 236h299v-416h79v-147h-77v84h-2h-69h-331zM159.999 63h252v353h-160c0 -133.333 -30.667 -251 -92 -353z" />
    <glyph glyph-name="afii10070" unicode="&#x435;" horiz-adv-x="538" 
d="M104 240c0 -52.667 16.832 -98.001 50.499 -136.001s72.834 -57 117.501 -57c48.667 0 84.167 6.83301 106.5 20.5s42.5 35.834 60.5 66.501l56 -37c-24.667 -38 -53.334 -66.333 -86.001 -85s-77.667 -28 -135 -28c-60.667 0 -115.667 25.5 -165 76.5
s-74 110.833 -74 179.5s24.333 128.5 73 179.5s103.334 76.5 164.001 76.5s115.5 -25.5 164.5 -76.5s73.5 -110.833 73.5 -179.5h-406zM114.999 302.999h315c-12 38 -32.667 69 -62 93s-61.333 36 -96 36s-66.5 -12 -95.5 -36s-49.5 -55 -61.5 -93z" />
    <glyph glyph-name="afii10072" unicode="&#x436;" horiz-adv-x="743" 
d="M48 403c0 11.333 0.161133 24.332 0.494141 38.999s0.5 27 0.5 37c30.667 0 56.834 -4.83301 78.501 -14.5s38 -22 49 -37s21.833 -31.333 32.5 -49s20.167 -34.667 28.5 -51s21 -30.666 38 -42.999s37.167 -20.5 60.5 -24.5v219h72v-219c23.333 4 43.5 12.167 60.5 24.5
s29.667 26.666 38 42.999s17.833 33.333 28.5 51s21.334 34 32.001 49s26.834 27.333 48.501 37s47.834 14.5 78.501 14.5c0 -10 0.166992 -22.333 0.5 -37s0.5 -27.667 0.5 -39c-28 0 -50.167 -7.5 -66.5 -22.5s-32.666 -37.5 -48.999 -67.5s-30.833 -52 -43.5 -66
c58 -32.667 102.833 -73.5 134.5 -122.5s47.5 -90.5 47.5 -124.5h-83c0 9.33301 -2.33301 21.166 -7 35.499s-12.167 31.5 -22.5 51.5s-27.166 40.333 -50.499 61s-51 38.334 -83 53.001c-24 -9.33301 -45.333 -14.666 -64 -15.999v-185h-72v185
c-20 1.33301 -41.667 6.66602 -65 15.999c-32 -14.667 -59.5 -32.334 -82.5 -53.001s-39.833 -41 -50.5 -61s-18.167 -37.167 -22.5 -51.5s-6.5 -26.166 -6.5 -35.499h-83c0 34 15.833 75.5 47.5 124.5s76.5 89.833 134.5 122.5c-11.333 12.667 -23.333 29.667 -36 51
l-31.5 52.5c-8.33301 13.667 -20.5 25.834 -36.5 36.501s-34.667 16 -56 16z" />
    <glyph glyph-name="afii10073" unicode="&#x437;" horiz-adv-x="433" 
d="M179 227v64c70 5.33301 105 26 105 62c0 48.667 -26.667 73 -80 73c-30.667 0 -67 -25.333 -109 -76l-48 41c2 2.66699 7.33301 9.16699 16 19.5s14.5 17.166 17.5 20.499s8.66699 9.16602 17 17.499s15.5 14 21.5 17l22.5 11.5c9 4.66699 18.667 7.83398 29 9.50098
s21.5 2.5 33.5 2.5c47.333 0 85.333 -12 114 -36s43 -57.333 43 -100c0 -36.667 -18.333 -65.667 -55 -87c62.667 -28 94 -71 94 -129c0 -45.333 -18.667 -81.166 -56 -107.499s-80 -39.5 -128 -39.5c-26.667 0 -50.5 2.33301 -71.5 7s-39.667 12.167 -56 22.5
s-28.5 18.833 -36.5 25.5s-19 17 -33 31l46 45c45.333 -45.333 95 -68 149 -68c29.333 0 54.833 8 76.5 24s32.5 36 32.5 60c0 60 -48 90 -144 90z" />
    <glyph glyph-name="afii10074" unicode="&#x438;" horiz-adv-x="542" 
d="M65 0v479h69v-400l258 400h86v-479h-69v395l-255 -395h-89z" />
    <glyph glyph-name="afii10075" unicode="&#x439;" horiz-adv-x="542" 
d="M284 580h-27c-40.667 0 -74 6.16699 -100 18.5s-39 28.5 -39 48.5c0 13.333 7.33301 28.333 22 45h40c-4.66699 -12.667 -7 -22 -7 -28c0 -14.667 7 -24.667 21 -30s35 -8 63 -8h27c28 0 49 2.66699 63 8s21 15.333 21 30c0 8 -2 17.333 -6 28h40c14 -16 21 -31 21 -45
c0 -20 -13 -36.167 -39 -48.5s-59.333 -18.5 -100 -18.5zM65 0v479h69v-400l258 400h86v-479h-69v395l-255 -395h-89z" />
    <glyph glyph-name="afii10076" unicode="&#x43a;" horiz-adv-x="471" 
d="M65 0l-0.00195312 479.001h69v-219c23.333 4 43.5 12.167 60.5 24.5s29.833 26.666 38.5 42.999s18.334 33.333 29.001 51s21.5 34 32.5 49s27.333 27.333 49 37s47.834 14.5 78.501 14.5c0 -10 0.166992 -22.333 0.5 -37s0.5 -27.667 0.5 -39
c-21.333 0 -40 -5.33301 -56 -16s-28.167 -22.834 -36.5 -36.501l-31.5 -52.5c-12.667 -21.333 -24.667 -38.333 -36 -51c58 -32.667 102.833 -73.5 134.5 -122.5s47.5 -90.5 47.5 -124.5h-83c0 9.33301 -2.16699 21.166 -6.5 35.499s-11.833 31.5 -22.5 51.5
s-27.5 40.333 -50.5 61s-50.5 38.334 -82.5 53.001c-23.333 -9.33301 -45.333 -14.666 -66 -15.999v-185h-69z" />
    <glyph glyph-name="afii10077" unicode="&#x43b;" horiz-adv-x="526" 
d="M219 152c0 -42.667 -13.668 -78.667 -41.001 -108s-61.666 -44 -102.999 -44h-70v63h63c23.333 0 42.833 8.83301 58.5 26.5s23.5 38.5 23.5 62.5v327h312v-479h-70v416h-173v-264z" />
    <glyph glyph-name="afii10078" unicode="&#x43c;" horiz-adv-x="627" 
d="M531 479l51 -479h-70l-36 344l-126 -344h-74l-124 344l-36 -344h-70l50 479h80l137 -378l138 378h80z" />
    <glyph glyph-name="afii10079" unicode="&#x43d;" horiz-adv-x="542" 
d="M65 0v479h69v-198h275v198h69v-479h-69v217h-275v-217h-69z" />
    <glyph glyph-name="afii10080" unicode="&#x43e;" horiz-adv-x="544" 
d="M104 240c0 -52.667 16.833 -98 50.5 -136s72.834 -57 117.501 -57s83.834 19 117.501 57s50.5 83.333 50.5 136s-16.833 97.834 -50.5 135.501s-72.834 56.5 -117.501 56.5s-83.834 -18.833 -117.501 -56.5s-50.5 -82.834 -50.5 -135.501zM35 240
c0 68.667 24.332 128.5 72.999 179.5s103.334 76.5 164.001 76.5s115.5 -25.5 164.5 -76.5s73.5 -110.833 73.5 -179.5c0 -69.333 -24.167 -129.333 -72.5 -180s-102.833 -76 -163.5 -76s-115.667 25.5 -165 76.5s-74 110.833 -74 179.5z" />
    <glyph glyph-name="afii10081" unicode="&#x43f;" horiz-adv-x="542" 
d="M65 0v479h413v-479h-69v416h-275v-416h-69z" />
    <glyph glyph-name="afii10082" unicode="&#x440;" 
d="M134 65v-269h-69v683h69v-63c48.667 53.333 104.667 80 168 80c60.667 0 115.5 -25.5 164.5 -76.5s73.5 -110.833 73.5 -179.5c0 -69.333 -24.167 -129.333 -72.5 -180s-102.833 -76 -163.5 -76c-63.333 0 -120 27 -170 81zM134 240c0 -52.667 16.833 -98 50.5 -136
s72.834 -57 117.501 -57s83.834 19 117.501 57s50.5 83.333 50.5 136s-16.833 97.834 -50.5 135.501s-72.834 56.5 -117.501 56.5s-83.834 -18.833 -117.501 -56.5s-50.5 -82.834 -50.5 -135.501z" />
    <glyph glyph-name="afii10083" unicode="&#x441;" horiz-adv-x="488" 
d="M465 76c-24.667 -30.667 -51.666 -53.666 -80.999 -68.999s-66 -23 -110 -23c-60.667 0 -115.667 25.5 -165 76.5s-74 110.833 -74 179.5s24.333 128.5 73 179.5s103.334 76.5 164.001 76.5c33.333 0 66.166 -8.83301 98.499 -26.5s60.166 -41.167 83.499 -70.5l-52 -40
c-34.667 48.667 -78 73 -130 73c-44.667 0 -83.834 -18.833 -117.501 -56.5s-50.5 -82.834 -50.5 -135.501s16.833 -98 50.5 -136s72.834 -57 117.501 -57c35.333 0 62.833 5.33301 82.5 16s38.5 27.667 56.5 51z" />
    <glyph glyph-name="afii10084" unicode="&#x442;" horiz-adv-x="466" 
d="M268 416v-416h-69v416h-186v63h441v-63h-186z" />
    <glyph glyph-name="afii10085" unicode="&#x443;" horiz-adv-x="466" 
d="M233 90l157 389h76l-278 -684h-74l82 204l-195 480h76z" />
    <glyph glyph-name="afii10086" unicode="&#x444;" horiz-adv-x="835" 
d="M383 97l-0.00195312 272.999c-31.333 41.333 -71.666 62 -120.999 62c-44 0 -81.333 -18.667 -112 -56s-46 -82.666 -46 -135.999c0 -52.667 16.833 -98 50.5 -136s72.834 -57 117.501 -57c40.667 0 77.667 16.667 111 50zM382.998 457.999l0.000976562 123h70v-123
c33.333 25.333 73.333 38 120 38c60 0 113 -25.333 159 -76s69 -110.667 69 -180c0 -68.667 -24.833 -128.5 -74.5 -179.5s-104.834 -76.5 -165.501 -76.5c-36.667 0 -72.667 10.333 -108 31v-220h-70v220c-35.333 -20.667 -71.666 -31 -108.999 -31
c-60.667 0 -115.667 25.5 -165 76.5s-74 110.833 -74 179.5c0 69.333 22.833 129.333 68.5 180s98.5 76 158.5 76c47.333 0 87.666 -12.667 120.999 -38zM452.999 369.999l-0.000976562 -272.999c33.333 -33.333 70 -50 110 -50c44.667 0 83.834 19 117.501 57
s50.5 83.333 50.5 136c0 53.333 -15.333 98.666 -46 135.999s-68 56 -112 56c-48.667 0 -88.667 -20.667 -120 -62z" />
    <glyph glyph-name="afii10087" unicode="&#x445;" horiz-adv-x="424" 
d="M171 250l-143 229h82l102 -164l102 164h83l-143 -229l156 -250h-83l-115 183l-115 -183h-82z" />
    <glyph glyph-name="afii10088" unicode="&#x446;" horiz-adv-x="565" 
d="M537 63v-147h-70v84h-402v479h69v-416h275v416h69v-416h59z" />
    <glyph glyph-name="afii10089" unicode="&#x447;" horiz-adv-x="485" 
d="M28 355v123.998h68v-124c0 -37.333 10.833 -68.166 32.5 -92.499s53.5 -36.5 95.5 -36.5s73.5 17.833 94.5 53.5s31.5 81.834 31.5 138.501v61h71v-479h-71v212c-33.333 -33.333 -75.333 -50 -126 -50c-60 0 -107.667 17 -143 51s-53 81.333 -53 142z" />
    <glyph glyph-name="afii10090" unicode="&#x448;" horiz-adv-x="706" 
d="M642 479v-479h-577v479h69v-416h184v416h70v-416h184v416h70z" />
    <glyph glyph-name="afii10091" unicode="&#x449;" horiz-adv-x="729" 
d="M700 63v-147h-69v84h-243h-323v479h69v-416h184v416h70v-416h184v416h70v-416h58z" />
    <glyph glyph-name="afii10092" unicode="&#x44a;" horiz-adv-x="535" 
d="M205 254v-191h88c45.333 0 80.5 8 105.5 24s37.5 40 37.5 72c0 63.333 -47.667 95 -143 95h-88zM135 416l-125.999 -0.000976562v63h196v-162h88c66.667 0 120.167 -13.667 160.5 -41s60.5 -66.333 60.5 -117c0 -51.333 -19.833 -90.666 -59.5 -117.999
s-92.834 -41 -159.501 -41h-160v416z" />
    <glyph glyph-name="afii10093" unicode="&#x44b;" horiz-adv-x="643" 
d="M509 0v479h70v-479h-70zM65 0l0.000976562 478.999h69v-162h88c66.667 0 120.167 -13.667 160.5 -41s60.5 -66.333 60.5 -117c0 -51.333 -19.833 -90.666 -59.5 -117.999s-92.834 -41 -159.501 -41h-159zM134.001 253.999v-191h88c45.333 0 80.666 8 105.999 24
s38 40 38 72c0 31.333 -12.667 55 -38 71s-60.666 24 -105.999 24h-88z" />
    <glyph glyph-name="afii10094" unicode="&#x44c;" horiz-adv-x="464" 
d="M65 0l0.000976562 478.999h69v-162h88c66.667 0 120.167 -13.667 160.5 -41s60.5 -66.333 60.5 -117c0 -51.333 -19.833 -90.666 -59.5 -117.999s-92.834 -41 -159.501 -41h-159zM134.001 253.999v-191h88c45.333 0 80.666 8 105.999 24s38 40 38 72
c0 31.333 -12.667 55 -38 71s-60.666 24 -105.999 24h-88z" />
    <glyph glyph-name="afii10095" unicode="&#x44d;" horiz-adv-x="484" 
d="M19 76l55.001 38c18 -23.333 36.667 -40.333 56 -51s46.666 -16 81.999 -16c41.333 0 78.333 16.333 111 49s51.334 73 56.001 121h-246v64h243c-8.66699 43.333 -28.5 79.333 -59.5 108s-65.833 43 -104.5 43c-52 0 -95.333 -24.333 -130 -73l-51 40
c23.333 29.333 51 52.833 83 70.5s64.667 26.5 98 26.5c60.667 0 115.5 -25.5 164.5 -76.5s73.5 -110.833 73.5 -179.5s-24.833 -128.5 -74.5 -179.5s-104.834 -76.5 -165.501 -76.5c-44 0 -80.667 7.66699 -110 23s-56.333 38.333 -81 69z" />
    <glyph glyph-name="afii10096" unicode="&#x44e;" horiz-adv-x="738" 
d="M298 240c0 -52.667 16.833 -98 50.5 -136s72.834 -57 117.501 -57s83.834 19 117.501 57s50.5 83.333 50.5 136s-16.833 97.834 -50.5 135.501s-72.834 56.5 -117.501 56.5s-83.834 -18.833 -117.501 -56.5s-50.5 -82.834 -50.5 -135.501zM65 0l-0.000976562 479h69v-198
h97c10 60 38.167 110.833 84.5 152.5s96.5 62.5 150.5 62.5c60.667 0 115.334 -25.5 164.001 -76.5s73 -110.833 73 -179.5c0 -69.333 -24.167 -129.333 -72.5 -180s-102.5 -76 -162.5 -76c-57.333 0 -110 22.833 -158 68.5s-75 100.5 -81 164.5h-95v-217h-69z" />
    <glyph glyph-name="afii10097" unicode="&#x44f;" horiz-adv-x="482" 
d="M348 225v191h-88c-95.333 0 -143 -31.667 -143 -95c0 -32 12.5 -56 37.5 -72s60.167 -24 105.5 -24h88zM418 479l-0.000976562 -479h-70v162h-88h-20l-114 -162h-85l122 174c-82.667 24 -124 73 -124 147c0 51.333 19.833 90.5 59.5 117.5s92.834 40.5 159.501 40.5h160z
" />
    <glyph glyph-name="uni0450" unicode="&#x450;" horiz-adv-x="538" 
d="M332 581l-236 119l35 60l221 -145zM104 240c0 -52.667 16.832 -98.001 50.499 -136.001s72.834 -57 117.501 -57c48.667 0 84.167 6.83301 106.5 20.5s42.5 35.834 60.5 66.501l56 -37c-24.667 -38 -53.334 -66.333 -86.001 -85s-77.667 -28 -135 -28
c-60.667 0 -115.667 25.5 -165 76.5s-74 110.833 -74 179.5s24.333 128.5 73 179.5s103.334 76.5 164.001 76.5s115.5 -25.5 164.5 -76.5s73.5 -110.833 73.5 -179.5h-406zM114.999 302.999h315c-12 38 -32.667 69 -62 93s-61.333 36 -96 36s-66.5 -12 -95.5 -36
s-49.5 -55 -61.5 -93z" />
    <glyph glyph-name="afii10071" unicode="&#x451;" horiz-adv-x="538" 
d="M317 628c0 15.333 5.33301 28.333 16 39s23.667 16 39 16s28.5 -5.33301 39.5 -16s16.5 -23.667 16.5 -39s-5.5 -28.5 -16.5 -39.5s-24.167 -16.5 -39.5 -16.5s-28.333 5.5 -39 16.5s-16 24.167 -16 39.5zM117 628c0 15.333 5.33301 28.333 16 39s23.667 16 39 16
s28.666 -5.33301 39.999 -16s17 -23.667 17 -39s-5.66699 -28.5 -17 -39.5s-24.666 -16.5 -39.999 -16.5s-28.333 5.5 -39 16.5s-16 24.167 -16 39.5zM104 240c0 -52.667 16.832 -98.001 50.499 -136.001s72.834 -57 117.501 -57c48.667 0 84.167 6.83301 106.5 20.5
s42.5 35.834 60.5 66.501l56 -37c-24.667 -38 -53.334 -66.333 -86.001 -85s-77.667 -28 -135 -28c-60.667 0 -115.667 25.5 -165 76.5s-74 110.833 -74 179.5s24.333 128.5 73 179.5s103.334 76.5 164.001 76.5s115.5 -25.5 164.5 -76.5s73.5 -110.833 73.5 -179.5h-406z
M114.999 302.999h315c-12 38 -32.667 69 -62 93s-61.333 36 -96 36s-66.5 -12 -95.5 -36s-49.5 -55 -61.5 -93z" />
    <glyph glyph-name="afii10099" unicode="&#x452;" horiz-adv-x="547" 
d="M488 -22c0 -42 -14.666 -77.832 -43.999 -107.499s-65 -44.5 -107 -44.5h-82v64h82c23.333 0 42.833 8.66699 58.5 26s23.5 38 23.5 62v325c0 36 -13.167 66.5 -39.5 91.5s-60.833 37.5 -103.5 37.5s-77 -18.333 -103 -55s-39 -82.334 -39 -137.001v-240h-69v634h-48v64
h48v45h69v-45h172v-64h-172v-199c39.333 40.667 86.666 61 141.999 61c61.333 0 112 -17.167 152 -51.5s60 -81.5 60 -141.5v-325z" />
    <glyph glyph-name="afii10100" unicode="&#x453;" horiz-adv-x="374" 
d="M159 618l222 145l34 -60l-235 -119zM65 0v479h309v-63h-240v-416h-69z" />
    <glyph glyph-name="afii10101" unicode="&#x454;" horiz-adv-x="484" 
d="M465 76c-24.667 -30.667 -51.665 -53.667 -80.998 -69s-66 -23 -110 -23c-60.667 0 -115.667 25.5 -165 76.5s-74 110.833 -74 179.5s24.333 128.5 73 179.5s103.334 76.5 164.001 76.5c33.333 0 66.166 -8.83301 98.499 -26.5s60.166 -41.167 83.499 -70.5l-52 -40
c-34.667 48.667 -78 73 -130 73c-38.667 0 -73.334 -14.333 -104.001 -43s-50.334 -64.667 -59.001 -108h238v-64h-242c4.66699 -48 23.334 -88.333 56.001 -121s69.667 -49 111 -49c35.333 0 62.833 5.33301 82.5 16s38.5 27.667 56.5 51z" />
    <glyph glyph-name="afii10102" unicode="&#x455;" horiz-adv-x="475" 
d="M246 206c-2 0.666992 -9.50098 2.16992 -22.501 4.50293s-21.667 4 -26 5l-26 6c-13 3 -22.167 5.66699 -27.5 8l-24.5 10.5c-11 4.66699 -19.167 9.16699 -24.5 13.5l-19.5 16c-7.66699 6.33301 -13.334 13.166 -17.001 20.499s-6.83398 15.666 -9.50098 24.999
s-4 19.333 -4 30c0 46.667 18.833 83.5 56.5 110.5s86.5 40.5 146.5 40.5c88 0 148 -37.667 180 -113l-62 -31c-21.333 53.333 -60.666 80 -117.999 80c-42.667 0 -75.334 -7.83301 -98.001 -23.5s-34 -36.834 -34 -63.501c0 -6 0.833008 -11.333 2.5 -16
s4.33398 -9 8.00098 -13s7.5 -7.5 11.5 -10.5s9.16699 -5.66699 15.5 -8s12 -4.33301 17 -6s11.667 -3.33398 20 -5.00098l20 -4c5 -1 12.167 -2.16699 21.5 -3.5s16 -2.33301 20 -3c25.333 -4 47.333 -8.66699 66 -14s38.5 -13.166 59.5 -23.499
s37.167 -24.166 48.5 -41.499s17 -38 17 -62c0 -46 -20.833 -82.667 -62.5 -110s-93.167 -41 -154.5 -41c-45.333 0 -85.333 9.83301 -120 29.5s-59.667 47.5 -75 83.5l62 31c10 -24 26.667 -43.333 50 -58s51 -22 83 -22c43.333 0 78.833 8.33301 106.5 25
s41.5 37.334 41.5 62.001c0 7.33301 -1.16699 14.166 -3.5 20.499s-6.66602 11.666 -12.999 15.999l-16.5 11c-4.66699 3 -12.167 5.83301 -22.5 8.5l-23 6c-5 1.33301 -13.667 3 -26 5s-20.166 3.33301 -23.499 4z" />
    <glyph glyph-name="afii10103" unicode="&#x456;" horiz-adv-x="198" 
d="M44 628c0 15.333 5.33301 28.333 16 39s23.667 16 39 16s28.5 -5.33301 39.5 -16s16.5 -23.667 16.5 -39s-5.5 -28.5 -16.5 -39.5s-24.167 -16.5 -39.5 -16.5s-28.333 5.5 -39 16.5s-16 24.167 -16 39.5zM65 0v479h69v-479h-69z" />
    <glyph glyph-name="afii10104" unicode="&#x457;" horiz-adv-x="198" 
d="M144 628c0 15.333 5.33301 28.333 16 39s23.667 16 39 16s28.5 -5.33301 39.5 -16s16.5 -23.667 16.5 -39s-5.5 -28.5 -16.5 -39.5s-24.167 -16.5 -39.5 -16.5s-28.333 5.5 -39 16.5s-16 24.167 -16 39.5zM-56 628c0 15.333 5.33301 28.333 16 39s23.667 16 39 16
s28.666 -5.33301 39.999 -16s17 -23.667 17 -39s-5.66699 -28.5 -17 -39.5s-24.666 -16.5 -39.999 -16.5s-28.333 5.5 -39 16.5s-16 24.167 -16 39.5zM65 0v479h69v-479h-69z" />
    <glyph glyph-name="afii10105" unicode="&#x458;" horiz-adv-x="198" 
d="M44 628c0 15.333 5.33301 28.333 16 39s23.667 16 39 16s28.5 -5.33301 39.5 -16s16.5 -23.667 16.5 -39s-5.5 -28.5 -16.5 -39.5s-24.167 -16.5 -39.5 -16.5s-28.333 5.5 -39 16.5s-16 24.167 -16 39.5zM-46 -141h29c23.333 0 42.833 8.66699 58.5 26s23.5 38 23.5 62
v532h69v-532c0 -42 -14.667 -77.833 -44 -107.5s-65 -44.5 -107 -44.5h-29v64z" />
    <glyph glyph-name="afii10106" unicode="&#x459;" horiz-adv-x="791" 
d="M219 152c0 -42.667 -13.667 -78.668 -41 -108.001s-61.666 -44 -102.999 -44h-70v63h63c23.333 0 42.833 8.83301 58.5 26.5s23.5 38.5 23.5 62.5v327h312v-162h87c66.667 0 120.167 -13.667 160.5 -41s60.5 -66.333 60.5 -117c0 -51.333 -19.833 -90.666 -59.5 -117.999
s-92.834 -41 -159.501 -41h-160v416h-172v-264zM462 253.999v-191h87c45.333 0 80.5 8 105.5 24s37.5 40 37.5 72c0 63.333 -47.667 95 -143 95h-87z" />
    <glyph glyph-name="afii10107" unicode="&#x45a;" horiz-adv-x="807" 
d="M65 0l0.000976562 478.999h69v-198h274v198h70v-162h87c66.667 0 120.167 -13.667 160.5 -41s60.5 -66.333 60.5 -117c0 -51.333 -19.833 -90.666 -59.5 -117.999s-92.834 -41 -159.501 -41h-159v217h-274v-217h-69zM478.001 253.999v-191h87
c45.333 0 80.666 8 105.999 24s38 40 38 72c0 31.333 -12.667 55 -38 71s-60.666 24 -105.999 24h-87z" />
    <glyph glyph-name="afii10108" unicode="&#x45b;" horiz-adv-x="547" 
d="M419 0l0.000976562 303.001c0 36 -13.167 66.5 -39.5 91.5s-60.833 37.5 -103.5 37.5s-77 -18.333 -103 -55s-39 -82.334 -39 -137.001v-240h-69v634h-48v64h48v45h69v-45h172v-64h-172v-199c39.333 40.667 86.666 61 141.999 61c61.333 0 112 -17.167 152 -51.5
s60 -81.5 60 -141.5v-303h-69z" />
    <glyph glyph-name="afii10109" unicode="&#x45c;" horiz-adv-x="471" 
d="M178 616l222 145l34 -60l-235 -119zM65 0l-0.00195312 479.001h69v-219c23.333 4 43.5 12.167 60.5 24.5s29.833 26.666 38.5 42.999s18.334 33.333 29.001 51s21.5 34 32.5 49s27.333 27.333 49 37s47.834 14.5 78.501 14.5c0 -10 0.166992 -22.333 0.5 -37
s0.5 -27.667 0.5 -39c-21.333 0 -40 -5.33301 -56 -16s-28.167 -22.834 -36.5 -36.501l-31.5 -52.5c-12.667 -21.333 -24.667 -38.333 -36 -51c58 -32.667 102.833 -73.5 134.5 -122.5s47.5 -90.5 47.5 -124.5h-83c0 9.33301 -2.16699 21.166 -6.5 35.499
s-11.833 31.5 -22.5 51.5s-27.5 40.333 -50.5 61s-50.5 38.334 -82.5 53.001c-23.333 -9.33301 -45.333 -14.666 -66 -15.999v-185h-69z" />
    <glyph glyph-name="uni045D" unicode="&#x45d;" horiz-adv-x="542" 
d="M325 581l-236 119l35 60l221 -145zM65 0v479h69v-400l258 400h86v-479h-69v395l-255 -395h-89z" />
    <glyph glyph-name="afii10110" unicode="&#x45e;" horiz-adv-x="466" 
d="M254 580h-27c-40.667 0 -74 6.16699 -100 18.5s-39 28.5 -39 48.5c0 13.333 7.33301 28.333 22 45h40c-4.66699 -12.667 -7 -22 -7 -28c0 -14.667 7 -24.667 21 -30s35 -8 63 -8h27c28 0 49 2.66699 63 8s21 15.333 21 30c0 8 -2 17.333 -6 28h40c14 -16 21 -31 21 -45
c0 -20 -13 -36.167 -39 -48.5s-59.333 -18.5 -100 -18.5zM233 90l157 389h76l-278 -684h-74l82 204l-195 480h76z" />
    <glyph glyph-name="afii10193" unicode="&#x45f;" horiz-adv-x="542" 
d="M478 479v-479h-171v-84h-69v84h-173v479h69v-416h275v416h69z" />
    <glyph glyph-name="uni048A" unicode="&#x48a;" horiz-adv-x="685" 
d="M314 736c-52.667 0 -88.833 8.66699 -108.5 26s-29.5 46 -29.5 86h61c0 -24.667 5.16699 -41.834 15.5 -51.501s30.833 -14.5 61.5 -14.5h27c30.667 0 51.5 4.83301 62.5 14.5s16.5 26.834 16.5 51.501h60c0 -40 -10 -68.667 -30 -86s-56.333 -26 -109 -26h-27z
M594.001 0h-108v570l-329 -570h-76v698h76v-572l329 572h77v-665h127l-110 -201h-48z" />
    <glyph glyph-name="uni048B" unicode="&#x48b;" horiz-adv-x="600" 
d="M65 0v479h69v-400l258 400h86v-446h127l-110 -201h-48l62 168h-100v395l-255 -395h-89zM257 581c-52.667 0 -88.835 8.5 -108.502 25.5s-29.5 45.5 -29.5 85.5h60c0 -24.667 5.33301 -41.667 16 -51s31.334 -14 62.001 -14h27c30.667 0 51.334 4.66699 62.001 14
s16 26.333 16 51h61c0 -40 -10 -68.5 -30 -85.5s-56.333 -25.5 -109 -25.5h-27z" />
    <glyph glyph-name="uni048C" unicode="&#x48c;" horiz-adv-x="614" 
d="M202 346v-282.999h146c46 0 84.333 12.333 115 37s46 59.667 46 105s-15.167 80.166 -45.5 104.499s-68.833 36.5 -115.5 36.5h-146zM202 524.001l-0.000976562 -114h146c65.333 0 122.5 -17.667 171.5 -53s73.5 -86 73.5 -152s-24.167 -116.667 -72.5 -152
s-105.166 -53 -170.499 -53h-225v524h-100v57h100v117h77v-117h107v-57h-107z" />
    <glyph glyph-name="uni048D" unicode="&#x48d;" horiz-adv-x="495" 
d="M165 254v-191h88c45.333 0 80.5 8 105.5 24s37.5 40 37.5 72c0 63.333 -47.667 95 -143 95h-88zM165 416l0.000976562 -99.001h88c66.667 0 120.167 -13.667 160.5 -41s60.5 -66.333 60.5 -117c0 -51.333 -19.833 -90.666 -59.5 -117.999s-92.834 -41 -159.501 -41h-160
v416h-67v63h67v102h70v-102h76v-63h-76z" />
    <glyph glyph-name="uni048E" unicode="&#x48e;" horiz-adv-x="586" 
d="M158 634v-281.999h146c20.667 0 40.667 2.66699 60 8l-68 72l53 43l67 -89c32.667 26 49 61.667 49 107s-15.167 80.166 -45.5 104.499s-68.833 36.5 -115.5 36.5h-146zM81 0.000976562v698h223c65.333 0 122.5 -17.667 171.5 -53s73.5 -86 73.5 -152
c0 -72 -30 -126.667 -90 -164l48 -65l-31 -25l-63 67c-34 -12 -69.667 -18 -107 -18h-148v-288h-77z" />
    <glyph glyph-name="uni048F" unicode="&#x48f;" horiz-adv-x="575" 
d="M134 240c0 -52.667 16.834 -98 50.501 -136s72.834 -57 117.501 -57c24.667 0 50.667 8 78 24l-78 83l53 43l67 -89c32 38.667 48 82.667 48 132c0 52.667 -16.833 97.834 -50.5 135.501s-72.834 56.5 -117.501 56.5s-83.834 -18.833 -117.501 -56.5
s-50.5 -82.834 -50.5 -135.501zM134.001 65v-269h-69v683h69v-63c48.667 53.333 104.667 80 168 80c60.667 0 115.5 -25.5 164.5 -76.5s73.5 -110.833 73.5 -179.5c0 -70.667 -26 -132.667 -78 -186l51 -68l-31 -26l-58 63c-38.667 -26 -78.667 -39 -120 -39
c-63.333 0 -120 27 -170 81z" />
    <glyph glyph-name="afii10050" unicode="&#x490;" horiz-adv-x="476" 
d="M158 634v-634h-77v698h314v83h77v-147h-314z" />
    <glyph glyph-name="afii10098" unicode="&#x491;" horiz-adv-x="374" 
d="M65 0v479h232v84h77v-147h-240v-416h-69z" />
    <glyph glyph-name="uni0492" unicode="&#x492;" horiz-adv-x="480" 
d="M16 423v56h68v219h391v-64h-314v-155h140v-56h-140v-423h-77v423h-68z" />
    <glyph glyph-name="uni0493" unicode="&#x493;" horiz-adv-x="384" 
d="M11 255v56h62v168h309v-63h-240v-105h106v-56h-106v-255h-69v255h-62z" />
    <glyph glyph-name="uni0494" unicode="&#x494;" horiz-adv-x="565" 
d="M81 0v697.999h391v-64h-314v-254c39.333 37.333 88 56 146 56c68 0 122.167 -21.667 162.5 -65s60.5 -104.666 60.5 -183.999c0 -91.333 -16.333 -157.5 -49 -198.5s-87.667 -61.5 -165 -61.5v63c52 0 87.333 13.667 106 41s28 79.333 28 156
c0 55.333 -12.667 99.333 -38 132s-60.333 49 -105 49c-39.333 0 -72 -15.833 -98 -47.5s-42 -71.5 -48 -119.5v-201h-77z" />
    <glyph glyph-name="uni0495" unicode="&#x495;" horiz-adv-x="464" 
d="M65 0l-0.00195312 479h309v-63h-240v-115c30.667 28.667 69.334 43 116.001 43c56.667 0 100.834 -18.167 132.501 -54.5s47.5 -88.5 47.5 -156.5c0 -77.333 -14 -133.5 -42 -168.5s-74.667 -52.5 -140 -52.5v53c38 0 66.333 12.333 85 37s28 68.334 28 131.001
c0 102 -37 153 -111 153c-37.333 0 -66 -16.333 -86 -49s-30 -73.334 -30 -122.001v-115h-69z" />
    <glyph glyph-name="uni0496" unicode="&#x496;" horiz-adv-x="935" 
d="M43 623c0 11.333 0.331055 24.166 0.998047 38.499s1 26.5 1 36.5c38.667 0 72.334 -9.5 101.001 -28.5s51.834 -42.667 69.501 -71s34.667 -57 51 -86s36.5 -55.5 60.5 -79.5s51.333 -39.333 82 -46v311h76v-311c30.667 6.66699 58 22 82 46s44.167 50.5 60.5 79.5
s33.333 57.667 51 86s40.834 52 69.501 71s62.334 28.5 101.001 28.5c0 -10 0.333008 -22.167 1 -36.5s1 -27.166 1 -38.499c-26 0 -49.833 -8.66699 -71.5 -26s-39 -37.166 -52 -59.499l-49 -81c-19.667 -31.667 -38.834 -56.834 -57.501 -75.501
c54 -44.667 103.167 -96.667 147.5 -156s74.833 -114 91.5 -164h70v-245h-41l-24 184h-87c0 44.667 -18.667 97.5 -56 158.5s-92.333 119.5 -165 175.5c-24 -12 -48 -19.667 -72 -23v-311h-76v311c-24 3.33301 -48 11 -72 23c-72.667 -56 -127.667 -114.5 -165 -175.5
s-56 -113.833 -56 -158.5h-93c0 49.333 24.667 111 74 185s108 139.333 176 196c-18.667 18.667 -37.834 43.834 -57.501 75.501l-49 81c-13 22.333 -30.333 42.166 -52 59.499s-45.5 26 -71.5 26z" />
    <glyph glyph-name="uni0497" unicode="&#x497;" horiz-adv-x="789" 
d="M48 403c0 11.333 0.160156 24.332 0.493164 38.999s0.5 27 0.5 37c30.667 0 56.834 -4.83301 78.501 -14.5s38 -22 49 -37s21.833 -31.333 32.5 -49s20.167 -34.667 28.5 -51s21 -30.666 38 -42.999s37.167 -20.5 60.5 -24.5v219h72v-219c23.333 4 43.5 12.167 60.5 24.5
s29.667 26.666 38 42.999s17.833 33.333 28.5 51s21.334 34 32.001 49s26.834 27.333 48.501 37s47.834 14.5 78.501 14.5c0 -10 0.166992 -22.333 0.5 -37s0.5 -27.667 0.5 -39c-28 0 -50.167 -7.5 -66.5 -22.5s-32.666 -37.5 -48.999 -67.5s-30.833 -52 -43.5 -66
c78.667 -43.333 134.334 -105.333 167.001 -186h71v-245h-41l-22 184h-76c0 9.33301 -2.33301 21.166 -7 35.499s-12.167 31.5 -22.5 51.5s-27.166 40.333 -50.499 61s-51 38.334 -83 53.001c-24 -9.33301 -45.333 -14.666 -64 -15.999v-185h-72v185
c-20 1.33301 -41.667 6.66602 -65 15.999c-32 -14.667 -59.5 -32.334 -82.5 -53.001s-39.833 -41 -50.5 -61s-18.167 -37.167 -22.5 -51.5s-6.5 -26.166 -6.5 -35.499h-83c0 34 15.833 75.5 47.5 124.5s76.5 89.833 134.5 122.5c-11.333 12.667 -23.333 29.667 -36 51
l-31.5 52.5c-8.33301 13.667 -20.5 25.834 -36.5 36.501s-34.667 16 -56 16z" />
    <glyph glyph-name="uni0498" unicode="&#x498;" horiz-adv-x="528" 
d="M379 374c68.667 -32 103 -87.6699 103 -167.003c0 -63.333 -17.833 -114 -53.5 -152s-83.5 -60.667 -143.5 -68l-28 -57c36.667 0 64.167 -6 82.5 -18s27.5 -25.333 27.5 -40c0 -51.333 -70 -77 -210 -77v28c34 0 66.333 3.83301 97 11.5s46 18.167 46 31.5
c0 6.66699 -2.5 12 -7.5 16s-15.667 7.16699 -32 9.5s-40.166 3.5 -71.499 3.5l42 89c-54.667 0.666992 -98.834 9.33398 -132.501 26.001s-62.834 40.334 -87.501 71.001l55 43c33.333 -47.333 91.666 -71 174.999 -71c46.667 0 85.834 13.5 117.501 40.5
s47.5 59.167 47.5 96.5c0 42.667 -16.667 77.5 -50 104.5s-79.333 40.5 -138 40.5v68c57.333 0 99 11.333 125 34s39 51.334 39 86.001c0 32.667 -11.667 61.167 -35 85.5s-53.666 36.5 -90.999 36.5c-28 0 -56.5 -4.16699 -85.5 -12.5s-51.5 -21.833 -67.5 -40.5l-51 48
c23.333 24.667 54.333 43.167 93 55.5s75.667 18.5 111 18.5c58.667 0 107.167 -16 145.5 -48s57.5 -79.667 57.5 -143c0 -65.333 -26.667 -115 -80 -149z" />
    <glyph glyph-name="uni0499" unicode="&#x499;" horiz-adv-x="434" 
d="M179 227l-0.000976562 64.002c70 5.33301 105 26 105 62c0 48.667 -26.667 73 -80 73c-30.667 0 -67 -25.333 -109 -76l-48 41c2 2.66699 7.33301 9.16699 16 19.5s14.5 17.166 17.5 20.499s8.66699 9.16602 17 17.499s15.5 14 21.5 17l22.5 11.5
c9 4.66699 18.667 7.83398 29 9.50098s21.5 2.5 33.5 2.5c47.333 0 85.333 -12 114 -36s43 -57.333 43 -100c0 -36.667 -18.333 -65.667 -55 -87c62.667 -28 94 -71 94 -129c0 -42.667 -17 -77.167 -51 -103.5s-74 -40.833 -120 -43.5l-28 -60c36.667 0 64 -6 82 -18
s27 -25.333 27 -40c0 -51.333 -70 -77 -210 -77v28c34 0 66.5 3.83301 97.5 11.5s46.5 18.167 46.5 31.5c0 6.66699 -2.5 12 -7.5 16s-15.667 7.16699 -32 9.5s-40.166 3.5 -71.499 3.5l45 97c-26.667 2.66699 -51 9.16699 -73 19.5s-37.833 19.666 -47.5 27.999
s-22.5 20.5 -38.5 36.5l46 45c45.333 -45.333 95 -68 149 -68c29.333 0 54.833 8 76.5 24s32.5 36 32.5 60c0 60 -48 90 -144 90z" />
    <glyph glyph-name="uni049A" unicode="&#x49a;" horiz-adv-x="605" 
d="M81 0l0.00195312 697.999h77v-311c30.667 6.66699 58 22 82 46s44 50.5 60 79.5s33 57.667 51 86s41.167 52 69.5 71s61.833 28.5 100.5 28.5c0 -10 0.333008 -22.167 1 -36.5s1 -27.166 1 -38.499c-26 0 -49.833 -8.66699 -71.5 -26s-39 -37.166 -52 -59.499l-49 -81
c-19.667 -31.667 -38.834 -56.834 -57.501 -75.501c54 -44.667 103.167 -96.667 147.5 -156s74.833 -114 91.5 -164h67v-245h-41l-22 184h-85c0 44 -18.833 96.667 -56.5 158s-92.834 120 -165.501 176c-24 -12 -47.667 -19.667 -71 -23v-311h-77z" />
    <glyph glyph-name="uni049B" unicode="&#x49b;" horiz-adv-x="516" 
d="M65 0l-0.00195312 479.001h69v-219c23.333 4 43.5 12.167 60.5 24.5s29.833 26.666 38.5 42.999s18.334 33.333 29.001 51s21.5 34 32.5 49s27.333 27.333 49 37s47.834 14.5 78.501 14.5c0 -10 0.166992 -22.333 0.5 -37s0.5 -27.667 0.5 -39
c-21.333 0 -40 -5.33301 -56 -16s-28.167 -22.834 -36.5 -36.501l-31.5 -52.5c-12.667 -21.333 -24.667 -38.333 -36 -51c79.333 -44 135.333 -106 168 -186h70v-245h-41l-23 184h-75c0 9.33301 -2.16699 21.166 -6.5 35.499s-11.833 31.5 -22.5 51.5s-27.5 40.333 -50.5 61
s-50.5 38.334 -82.5 53.001c-23.333 -9.33301 -45.333 -14.666 -66 -15.999v-185h-69z" />
    <glyph glyph-name="uni049C" unicode="&#x49c;" horiz-adv-x="565" 
d="M202 581l51.001 0.000976562v-135c13.333 15.333 27.5 35.666 42.5 60.999l41 68c12.333 20 26.833 40 43.5 60s36.834 35.5 60.501 46.5s50.5 16.5 80.5 16.5c0 -10 0.333008 -22.167 1 -36.5s1 -27.166 1 -38.499c-26 0 -49.833 -8.66699 -71.5 -26
s-39 -37.166 -52 -59.499l-49 -81c-19.667 -31.667 -38.834 -56.834 -57.501 -75.501c68 -56.667 126.833 -122 176.5 -196s74.5 -135.667 74.5 -185h-93c0 41.333 -16.833 90.666 -50.5 147.999s-82.834 113 -147.501 167v-136h-51v144
c-16.667 -6.66699 -31.334 -10.667 -44.001 -12v-311h-77v698h77v-311c14.667 2.66699 29.334 8 44.001 16v178z" />
    <glyph glyph-name="uni049D" unicode="&#x49d;" horiz-adv-x="471" 
d="M168 424l46.001 0.00292969v-122c9.33301 10.667 19 25 29 43l27.5 48c8.33301 14 18.5 28 30.5 42s28.167 24.833 48.5 32.5s44.5 11.5 72.5 11.5c0 -10 0.166992 -22.333 0.5 -37s0.5 -27.667 0.5 -39c-21.333 0 -40 -5.33301 -56 -16s-28.167 -22.834 -36.5 -36.501
l-31.5 -52.5c-12.667 -21.333 -24.667 -38.333 -36 -51c58 -32.667 102.833 -73.5 134.5 -122.5s47.5 -90.5 47.5 -124.5h-83c0 9.33301 -2 20.666 -6 33.999s-10.833 29.5 -20.5 48.5s-25 38.5 -46 58.5s-46.167 37.667 -75.5 53v-137h-46v133
c-12.667 -2.66699 -24 -4.33398 -34 -5.00098v-185h-69v479h69v-219c13.333 2 24.666 5 33.999 9v155z" />
    <glyph glyph-name="uni049E" unicode="&#x49e;" horiz-adv-x="568" 
d="M16 524l0.00195312 56.999h68v117h77v-117h75v-57h-75v-137c30.667 6.66699 58 22 82 46s44 50.5 60 79.5s33 57.667 51 86s41.167 52 69.5 71s61.833 28.5 100.5 28.5c0 -10 0.333008 -22.167 1 -36.5s1 -27.166 1 -38.499c-26 0 -49.833 -8.66699 -71.5 -26
s-39 -37.166 -52 -59.499l-49 -81c-19.667 -31.667 -38.834 -56.834 -57.501 -75.501c68 -56.667 126.833 -122 176.5 -196s74.5 -135.667 74.5 -185h-93c0 44 -18.833 96.667 -56.5 158s-92.834 120 -165.501 176c-24 -12 -47.667 -19.667 -71 -23v-311h-77v524h-68z" />
    <glyph glyph-name="uni049F" unicode="&#x49f;" horiz-adv-x="471" 
d="M-3 524l-0.00195312 57.001h68v162h69v-162h70v-57h-70v-264c23.333 4 43.5 12.167 60.5 24.5s29.833 26.666 38.5 42.999s18.334 33.333 29.001 51s21.5 34 32.5 49s27.333 27.333 49 37s47.834 14.5 78.501 14.5c0 -10 0.166992 -22.333 0.5 -37s0.5 -27.667 0.5 -39
c-21.333 0 -40 -5.33301 -56 -16s-28.167 -22.834 -36.5 -36.501l-31.5 -52.5c-12.667 -21.333 -24.667 -38.333 -36 -51c58 -32.667 102.833 -73.5 134.5 -122.5s47.5 -90.5 47.5 -124.5h-83c0 9.33301 -2.16699 21.166 -6.5 35.499s-11.833 31.5 -22.5 51.5
s-27.5 40.333 -50.5 61s-50.5 38.334 -82.5 53.001c-23.333 -9.33301 -45.333 -14.666 -66 -15.999v-185h-69v524h-68z" />
    <glyph glyph-name="uni04A0" unicode="&#x4a0;" horiz-adv-x="681" 
d="M19 698l254.999 -0.000976562v-311c30.667 6.66699 58 22 82 46s44.167 50.5 60.5 79.5s33.333 57.667 51 86s40.834 52 69.501 71s62.334 28.5 101.001 28.5c0 -10 0.333008 -22.167 1 -36.5s1 -27.166 1 -38.499c-26 0 -49.833 -8.66699 -71.5 -26
s-39 -37.166 -52 -59.499l-49 -81c-19.667 -31.667 -38.834 -56.834 -57.501 -75.501c68 -56.667 126.667 -122 176 -196s74 -135.667 74 -185h-93c0 44.667 -18.667 97.5 -56 158.5s-92.333 119.5 -165 175.5c-24 -12 -48 -19.667 -72 -23v-311h-76v639h-179v59z" />
    <glyph glyph-name="uni04A1" unicode="&#x4a1;" horiz-adv-x="530" 
d="M5 479h188.997v-219c23.333 4 43.5 12.167 60.5 24.5s29.833 26.666 38.5 42.999s18.167 33.333 28.5 51s21 34 32 49s27.333 27.333 49 37s47.834 14.5 78.501 14.5c0 -10 0.166992 -22.333 0.5 -37s0.5 -27.667 0.5 -39c-28 0 -50.167 -7.5 -66.5 -22.5
s-32.666 -37.5 -48.999 -67.5s-30.833 -52 -43.5 -66c58 -32.667 102.833 -73.5 134.5 -122.5s47.5 -90.5 47.5 -124.5h-83c0 9.33301 -2.33301 21.166 -7 35.499s-12.167 31.5 -22.5 51.5s-27.166 40.333 -50.499 61s-51 38.334 -83 53.001
c-23.333 -9.33301 -45 -14.666 -65 -15.999v-185h-70v420h-119v59z" />
    <glyph glyph-name="uni04A2" unicode="&#x4a2;" horiz-adv-x="637" 
d="M81 0v698h77v-302h307v302h77v-637h59v-245h-41l-22 184h-73v333h-307v-333h-77z" />
    <glyph glyph-name="uni04A3" unicode="&#x4a3;" horiz-adv-x="566" 
d="M65 0v479h69v-198h275v198h69v-418h60v-245h-41l-23 184h-65v217h-275v-217h-69z" />
    <glyph glyph-name="uni04A4" unicode="&#x4a4;" horiz-adv-x="860" 
d="M81 0v698h77v-302h306v302h391v-64h-313v-634h-78v333h-306v-333h-77z" />
    <glyph glyph-name="uni04A5" unicode="&#x4a5;" horiz-adv-x="718" 
d="M65 0v479h69v-198h275v198h309v-63h-240v-416h-69v217h-275v-217h-69z" />
    <glyph glyph-name="uni04A6" unicode="&#x4a6;" horiz-adv-x="942" 
d="M81 0l0.000976562 697.999h461v-320c38.667 38.667 88 58 148 58c68 0 122.167 -21.667 162.5 -65s60.5 -104.666 60.5 -183.999c0 -91.333 -16.333 -157.5 -49 -198.5s-87.667 -61.5 -165 -61.5v63c52 0 87.5 13.667 106.5 41s28.5 79.333 28.5 156
c0 55.333 -12.833 99.333 -38.5 132s-60.834 49 -105.501 49c-44 0 -79.667 -19.667 -107 -59s-41 -87 -41 -143v-166h-77v635h-307v-635h-77z" />
    <glyph glyph-name="uni04A7" unicode="&#x4a7;" horiz-adv-x="803" 
d="M65 0l-0.00195312 479.001h413v-178c30.667 28.667 69.334 43 116.001 43c56.667 0 100.834 -18.167 132.501 -54.5s47.5 -88.5 47.5 -156.5c0 -77.333 -14 -133.5 -42 -168.5s-74.667 -52.5 -140 -52.5v53c38 0 66.5 12.5 85.5 37.5s28.5 68.5 28.5 130.5
c0 48 -9.16699 85.5 -27.5 112.5s-46.5 40.5 -84.5 40.5c-37.333 0 -66 -16.333 -86 -49s-30 -73.334 -30 -122.001v-115h-69v416h-275v-416h-69z" />
    <glyph glyph-name="uni04A8" unicode="&#x4a8;" horiz-adv-x="793" 
d="M722 120l70 -40c-13.333 -28.667 -35.5 -51.834 -66.5 -69.501s-65.5 -26.5 -103.5 -26.5c-50.667 0 -97 14.667 -139 44c-44.667 -29.333 -94.334 -44 -149.001 -44c-84 0 -153 35.5 -207 106.5s-81 156.833 -81 257.5c0 75.333 18.833 144.333 56.5 207
s85.167 107.667 142.5 135l34 -61c-44.667 -20.667 -81.167 -57.167 -109.5 -109.5s-42.5 -109.5 -42.5 -171.5c0 -79.333 19.5 -148.166 58.5 -206.499s88.5 -87.5 148.5 -87.5c32 0 63.333 8.66699 94 26c-61.333 76.667 -92 188.334 -92 335.001
c0 92 13.167 164.833 39.5 218.5s63.5 80.5 111.5 80.5c46.667 0 84.834 -24.333 114.501 -73s44.5 -124 44.5 -226c0 -144 -33.667 -255.333 -101 -334c27.333 -18 53 -27 77 -27c18.667 0 38 6.16699 58 18.5s34 28.166 42 47.499zM490 136
c50 65.333 75.001 158.335 75.001 279.002c0 75.333 -7.83301 132.166 -23.5 170.499s-33.834 57.5 -54.501 57.5c-18.667 0 -35 -22.333 -49 -67s-21 -98.334 -21 -161.001c0 -118 24.333 -211 73 -279z" />
    <glyph glyph-name="uni04A9" unicode="&#x4a9;" horiz-adv-x="641" 
d="M639 33c-41.333 -32.667 -95.668 -49.001 -163.001 -49.001c-35.333 0 -68.333 7.66699 -99 23c-34.667 -15.333 -74.667 -23 -120 -23c-59.333 0 -111 25.167 -155 75.5s-66 110.5 -66 180.5c0 52.667 15 100.5 45 143.5s67.333 74.5 112 94.5l27 -56
c-33.333 -13.333 -60.833 -36.666 -82.5 -69.999s-32.5 -70.666 -32.5 -111.999c0 -54 14.167 -99.667 42.5 -137s64.166 -56 107.499 -56c21.333 0 41 3 59 9c-46.667 52.667 -70 122 -70 208c0 58 11.5 111 34.5 159s55.833 72 98.5 72c42 0 74.833 -20.833 98.5 -62.5
s35.5 -97.834 35.5 -168.501c0 -92.667 -24 -163.667 -72 -213c14.667 -2.66699 26.334 -4 35.001 -4c46.667 0 86.334 14.333 119.001 43zM371.998 87.999c46 38.667 68.999 97.333 68.999 176c0 55.333 -4.66699 97 -14 125s-25.333 42 -48 42
c-15.333 0 -30.166 -16 -44.499 -48s-21.5 -71.667 -21.5 -119c0 -78 19.667 -136.667 59 -176z" />
    <glyph glyph-name="uni04AA" unicode="&#x4aa;" horiz-adv-x="588" 
d="M302 -15c-72 8.66699 -132.669 48.002 -182.002 118.002s-74 151.667 -74 245c0 99.333 27.5 185.166 82.5 257.499s121.5 108.5 199.5 108.5c84.667 0 158 -48 220 -144l-61 -43c-47.333 78 -100.333 117 -159 117c-59.333 0 -108.166 -29.333 -146.499 -88
s-57.5 -128 -57.5 -208s19 -149 57 -207s87 -87 147 -87c64 0 119.333 43 166 129l66 -36c-56 -96.667 -124.667 -150.334 -206 -161.001l-27 -56c36.667 0 64.167 -6 82.5 -18s27.5 -25.333 27.5 -40c0 -51.333 -70 -77 -210 -77v28c34 0 66.333 3.83301 97 11.5
s46 18.167 46 31.5c0 6.66699 -2.33301 12 -7 16s-15.167 7.16699 -31.5 9.5s-40.166 3.5 -71.499 3.5z" />
    <glyph glyph-name="uni04AB" unicode="&#x4ab;" horiz-adv-x="490" 
d="M252 -15c-56.667 6.66699 -106.833 34.834 -150.5 84.501s-65.5 106.5 -65.5 170.5c0 68.667 24.333 128.5 73 179.5s103.334 76.5 164.001 76.5c33.333 0 66.166 -8.83301 98.499 -26.5s60.166 -41.167 83.499 -70.5l-52 -40c-34.667 48.667 -78 73 -130 73
c-44.667 0 -83.834 -18.833 -117.501 -56.5s-50.5 -82.834 -50.5 -135.501s16.833 -98 50.5 -136s72.834 -57 117.501 -57c35.333 0 62.833 5.33301 82.5 16s38.5 27.667 56.5 51l54 -38c-44.667 -56 -98.667 -86.333 -162 -91l-26 -55c36.667 0 64 -6 82 -18
s27 -25.333 27 -40c0 -51.333 -70 -77 -210 -77v28c34 0 66.5 3.83301 97.5 11.5s46.5 18.167 46.5 31.5c0 6.66699 -2.5 12 -7.5 16s-15.667 7.16699 -32 9.5s-40.166 3.5 -71.499 3.5z" />
    <glyph glyph-name="uni04AC" unicode="&#x4ac;" horiz-adv-x="516" 
d="M19 635v63h476v-63h-200v-574h58v-245h-41l-22 184h-71v635h-200z" />
    <glyph glyph-name="uni04AD" unicode="&#x4ad;" horiz-adv-x="447" 
d="M252 0h-65v416h-185v63h440v-63h-185v-355h58v-245h-41z" />
    <glyph glyph-name="uni04AE" unicode="&#x4ae;" horiz-adv-x="484" 
d="M243 442l153 256h89l-205 -343v-355h-76v358l-204 340h89z" />
    <glyph glyph-name="uni04AF" unicode="&#x4af;" horiz-adv-x="466" 
d="M233 90l157 389h76l-198 -486v-198h-69v197l-198 487h76z" />
    <glyph glyph-name="uni04B0" unicode="&#x4b0;" horiz-adv-x="484" 
d="M106 241v56h98v61l-204 340h89l154 -256l153 256h89l-205 -343v-58h101v-56h-101v-241h-76v241h-98z" />
    <glyph glyph-name="uni04B1" unicode="&#x4b1;" horiz-adv-x="472" 
d="M99 -56v56h100l-195 479h76l157 -389l156 389h76l-195 -479h100v-56h-103v-149h-69v149h-103z" />
    <glyph glyph-name="uni04B2" unicode="&#x4b2;" horiz-adv-x="507" 
d="M424 0h-23l-147 276l-146 -276h-86l189 357l-181 341h86l138 -261l139 261h86l-182 -341l190 -357v-184h-41z" />
    <glyph glyph-name="uni04B3" unicode="&#x4b3;" horiz-adv-x="424" 
d="M171 250l-143 229h82l102 -164l102 164h83l-143 -229l156 -250v-184h-41l-23 184h-19l-115 183l-115 -183h-82z" />
    <glyph glyph-name="uni04B4" unicode="&#x4b4;" horiz-adv-x="833" 
d="M19 635v63h476v-63h-199v-572h348v635h77v-635h73v-147h-77v84h-498v635h-200z" />
    <glyph glyph-name="uni04B5" unicode="&#x4b5;" horiz-adv-x="688" 
d="M659 63v-147h-69v84h-403v416h-185v63h440v-63h-185v-353h274v416h70v-416h58z" />
    <glyph glyph-name="uni04B6" unicode="&#x4b6;" horiz-adv-x="612" 
d="M440 537l-0.00195312 161h78v-637h56v-245h-40l-23 184h-71v334c-44 -44 -99 -66 -165 -66c-72 0 -130.333 25.833 -175 77.5s-67 115.5 -67 191.5v161h77v-161c0 -56 14.833 -104 44.5 -144s69.834 -60 120.501 -60s90.834 20 120.501 60s44.5 88 44.5 144z" />
    <glyph glyph-name="uni04B7" unicode="&#x4b7;" horiz-adv-x="505" 
d="M28 355v123.998h68v-124c0 -37.333 10.833 -68.166 32.5 -92.499s53.5 -36.5 95.5 -36.5s73.5 17.833 94.5 53.5s31.5 81.834 31.5 138.501v61h71v-418h55v-245h-41l-22 184h-63v212c-33.333 -33.333 -75.333 -50 -126 -50c-60 0 -107.667 17 -143 51s-53 81.333 -53 142
z" />
    <glyph glyph-name="uni04B8" unicode="&#x4b8;" horiz-adv-x="599" 
d="M247 465h61.001v-129c41.333 8 73.666 31 96.999 69s35 82 35 132v161h78v-698h-78v334c-36.667 -36.667 -80.667 -58 -132 -64v-100h-61v100c-64.667 6.66699 -116.5 35.167 -155.5 85.5s-58.5 110.833 -58.5 181.5v161h77v-161c0 -50 12.167 -94.333 36.5 -133
s57.833 -61.667 100.5 -69v130z" />
    <glyph glyph-name="uni04B9" unicode="&#x4b9;" horiz-adv-x="485" 
d="M196 350l61 -0.000976562v-120c31.333 8.66699 54.666 30 69.999 64s23 75.333 23 124v61h71v-479h-71v212c-25.333 -25.333 -56.333 -41 -93 -47v-93h-61v91c-51.333 5.33301 -92.166 24.833 -122.499 58.5s-45.5 78.167 -45.5 133.5v124h68v-124
c0 -32.667 8.5 -60.667 25.5 -84s41.833 -37.666 74.5 -42.999v122z" />
    <glyph glyph-name="uni04BA" unicode="&#x4ba;" horiz-adv-x="607" 
d="M159 226l0.00195312 -226h-78v698h78v-269c44 44 99 66 165 66c72 0 130.333 -25.833 175 -77.5s67 -115.5 67 -191.5v-226h-77v226c0 56 -14.833 104 -44.5 144s-69.834 60 -120.501 60s-90.834 -20 -120.501 -60s-44.5 -88 -44.5 -144z" />
    <glyph glyph-name="uni04BB" unicode="&#x4bb;" horiz-adv-x="547" 
d="M488 303l0.000976562 -302.999h-69v303c0 36 -13.167 66.5 -39.5 91.5s-60.833 37.5 -103.5 37.5s-77 -18.333 -103 -55s-39 -82.334 -39 -137.001v-240h-69v743h69v-308c39.333 40.667 86.666 61 141.999 61c61.333 0 112 -17.167 152 -51.5s60 -81.5 60 -141.5z" />
    <glyph glyph-name="uni04BC" unicode="&#x4bc;" horiz-adv-x="741" 
d="M690 147c-62.667 -108.667 -140 -162.999 -232 -162.999c-78 0 -144.5 35.833 -199.5 107.5s-82.5 157.167 -82.5 256.5c0 14.667 0.333008 25.334 1 32.001c-57.333 2.66699 -97 21.5 -119 56.5s-33 102.5 -33 202.5h65c0 -76 5.5 -126.833 16.5 -152.5
s37.5 -39.834 79.5 -42.501c16.667 78 50.167 142.5 100.5 193.5s107.5 76.5 171.5 76.5c43.333 0 81 -8.83301 113 -26.5s56.833 -42.5 74.5 -74.5s30.5 -67.333 38.5 -106s12 -81.334 12 -128.001h-441c-0.666992 -6.66699 -1 -17 -1 -31c0 -80 19 -149 57 -207
s87 -87 147 -87c64 0 119.333 43 166 129zM265 444.001h352.998c-6.66699 59.333 -23.167 107.5 -49.5 144.5s-63.166 55.5 -110.499 55.5c-46.667 0 -87.167 -18.667 -121.5 -56s-58.166 -85.333 -71.499 -144z" />
    <glyph glyph-name="uni04BD" unicode="&#x4bd;" horiz-adv-x="669" 
d="M628 76c-24.667 -30.667 -51.667 -53.668 -81 -69.001s-66 -23 -110 -23c-60.667 0 -115.667 25.5 -165 76.5s-74 110.833 -74 179.5v12h-5c-46 0 -81 6.16699 -105 18.5s-42.333 37.333 -55 75s-19 93.167 -19 166.5h66c0 -79.333 6.33301 -131.666 19 -156.999
s44 -38 94 -38h17c16.667 51.333 46.5 94 89.5 128s88.167 51 135.5 51c62 0 110.5 -21.5 145.5 -64.5s52.5 -102.833 52.5 -179.5h-366v-12c0 -52.667 16.833 -98 50.5 -136s72.834 -57 117.501 -57c35.333 0 62.666 5.33301 81.999 16s38 27.667 56 51zM283 316.999h279
c-14.667 76.667 -57 115 -127 115c-32.667 0 -62.667 -10.5 -90 -31.5s-48 -48.833 -62 -83.5z" />
    <glyph glyph-name="uni04BE" unicode="&#x4be;" horiz-adv-x="743" 
d="M266 444h354c-6.66699 59.333 -23.334 107.5 -50.001 144.5s-63.667 55.5 -111 55.5c-46.667 0 -87.167 -18.667 -121.5 -56s-58.166 -85.333 -71.499 -144zM426 -14c-70.667 10.667 -129.833 50.834 -177.5 120.501s-71.5 150.167 -71.5 241.5
c0 14.667 0.333008 25.334 1 32.001c-57.333 2.66699 -97 21.5 -119 56.5s-33 102.5 -33 202.5h65c0 -76 5.5 -126.833 16.5 -152.5s37.5 -39.834 79.5 -42.501c16.667 78 50.167 142.5 100.5 193.5s107.5 76.5 171.5 76.5c43.333 0 81 -8.83301 113 -26.5
s56.833 -42.5 74.5 -74.5s30.5 -67.333 38.5 -106s12 -81.334 12 -128.001h-441c-0.666992 -6.66699 -1 -17 -1 -31c0 -80 19 -149 57 -207s87 -87 147 -87c64 0 119.333 43 166 129l66 -36c-56 -97.333 -124 -151 -204 -161v-191h-61v191z" />
    <glyph glyph-name="uni04BF" unicode="&#x4bf;" horiz-adv-x="671" 
d="M284 317h279c-14.667 76.667 -57 115 -127 115c-32.667 0 -62.667 -10.5 -90 -31.5s-48 -48.833 -62 -83.5zM411 -14c-56 8 -105.333 36.499 -148 85.499s-64 105.167 -64 168.5v12h-5c-46 0 -81 6.16699 -105 18.5s-42.333 37.333 -55 75s-19 93.167 -19 166.5h66
c0 -79.333 6.33301 -131.666 19 -156.999s44 -38 94 -38h17c16.667 51.333 46.5 94 89.5 128s88.167 51 135.5 51c62 0 110.5 -21.5 145.5 -64.5s52.5 -102.833 52.5 -179.5h-366v-12c0 -52.667 16.833 -98 50.5 -136s72.834 -57 117.501 -57
c35.333 0 62.666 5.33301 81.999 16s38 27.667 56 51l55 -38c-42.667 -53.333 -95 -83.333 -157 -90v-191h-61v191z" />
    <glyph glyph-name="uni04C0" unicode="&#x4c0;" horiz-adv-x="238" 
d="M158 698v-698h-77v698h77z" />
    <glyph glyph-name="uni04C1" unicode="&#x4c1;" horiz-adv-x="892" 
d="M461 736h-27c-40.667 0 -74 6.16699 -100 18.5s-39 28.5 -39 48.5c0 13.333 7.33301 28.333 22 45h40c-4.66699 -12.667 -7 -22 -7 -28c0 -14.667 7 -24.667 21 -30s35 -8 63 -8h27c28 0 49 2.66699 63 8s21 15.333 21 30c0 8 -2 17.333 -6 28h40c14 -16 21 -31 21 -45
c0 -20 -13 -36.167 -39 -48.5s-59.333 -18.5 -100 -18.5zM43 623c0 11.333 0.331055 24.166 0.998047 38.499s1 26.5 1 36.5c38.667 0 72.334 -9.5 101.001 -28.5s51.834 -42.667 69.501 -71s34.667 -57 51 -86s36.5 -55.5 60.5 -79.5s51.333 -39.333 82 -46v311h76v-311
c30.667 6.66699 58 22 82 46s44.167 50.5 60.5 79.5s33.333 57.667 51 86s40.834 52 69.501 71s62.334 28.5 101.001 28.5c0 -10 0.333008 -22.167 1 -36.5s1 -27.166 1 -38.499c-26 0 -49.833 -8.66699 -71.5 -26s-39 -37.166 -52 -59.499l-49 -81
c-19.667 -31.667 -38.834 -56.834 -57.501 -75.501c68 -56.667 126.667 -122 176 -196s74 -135.667 74 -185h-93c0 44.667 -18.667 97.5 -56 158.5s-92.333 119.5 -165 175.5c-24 -12 -48 -19.667 -72 -23v-311h-76v311c-24 3.33301 -48 11 -72 23
c-72.667 -56 -127.667 -114.5 -165 -175.5s-56 -113.833 -56 -158.5h-93c0 49.333 24.667 111 74 185s108 139.333 176 196c-18.667 18.667 -37.834 43.834 -57.501 75.501l-49 81c-13 22.333 -30.333 42.166 -52 59.499s-45.5 26 -71.5 26z" />
    <glyph glyph-name="uni04C2" unicode="&#x4c2;" horiz-adv-x="743" 
d="M386 580h-27c-40.667 0 -74 6.16699 -100 18.5s-39 28.5 -39 48.5c0 13.333 7.33301 28.333 22 45h40c-4.66699 -12.667 -7 -22 -7 -28c0 -14.667 7 -24.667 21 -30s35 -8 63 -8h27c28 0 49 2.66699 63 8s21 15.333 21 30c0 8 -2 17.333 -6 28h40c14 -16 21 -31 21 -45
c0 -20 -13 -36.167 -39 -48.5s-59.333 -18.5 -100 -18.5zM48 403c0 11.333 0.161133 24.332 0.494141 38.999s0.5 27 0.5 37c30.667 0 56.834 -4.83301 78.501 -14.5s38 -22 49 -37s21.833 -31.333 32.5 -49s20.167 -34.667 28.5 -51s21 -30.666 38 -42.999
s37.167 -20.5 60.5 -24.5v219h72v-219c23.333 4 43.5 12.167 60.5 24.5s29.667 26.666 38 42.999s17.833 33.333 28.5 51s21.334 34 32.001 49s26.834 27.333 48.501 37s47.834 14.5 78.501 14.5c0 -10 0.166992 -22.333 0.5 -37s0.5 -27.667 0.5 -39
c-28 0 -50.167 -7.5 -66.5 -22.5s-32.666 -37.5 -48.999 -67.5s-30.833 -52 -43.5 -66c58 -32.667 102.833 -73.5 134.5 -122.5s47.5 -90.5 47.5 -124.5h-83c0 9.33301 -2.33301 21.166 -7 35.499s-12.167 31.5 -22.5 51.5s-27.166 40.333 -50.499 61s-51 38.334 -83 53.001
c-24 -9.33301 -45.333 -14.666 -64 -15.999v-185h-72v185c-20 1.33301 -41.667 6.66602 -65 15.999c-32 -14.667 -59.5 -32.334 -82.5 -53.001s-39.833 -41 -50.5 -61s-18.167 -37.167 -22.5 -51.5s-6.5 -26.166 -6.5 -35.499h-83c0 34 15.833 75.5 47.5 124.5
s76.5 89.833 134.5 122.5c-11.333 12.667 -23.333 29.667 -36 51l-31.5 52.5c-8.33301 13.667 -20.5 25.834 -36.5 36.501s-34.667 16 -56 16z" />
    <glyph glyph-name="uni04C3" unicode="&#x4c3;" horiz-adv-x="567" 
d="M339 -205l0.00195312 52.998c38 0 66.167 12.333 84.5 37s27.5 68.334 27.5 131.001c0 42.667 -18.5 92.167 -55.5 148.5s-92.5 112.833 -166.5 169.5c-24 -12 -47.667 -19.667 -71 -23v-311h-77v698h77v-311c30.667 6.66699 58 22 82 46s44 50.5 60 79.5
s33 57.667 51 86s41.167 52 69.5 71s61.833 28.5 100.5 28.5c0 -10 0.333008 -22.167 1 -36.5s1 -27.166 1 -38.499c-26 0 -49.833 -8.66699 -71.5 -26s-39 -37.166 -52 -59.499l-49 -81c-19.667 -31.667 -38.834 -56.834 -57.501 -75.501
c69.333 -58 127.666 -121.167 174.999 -189.5s71 -126.833 71 -175.5c0 -76 -16.5 -131.833 -49.5 -167.5s-83.167 -53.5 -150.5 -53.5z" />
    <glyph glyph-name="uni04C4" unicode="&#x4c4;" horiz-adv-x="473" 
d="M445 16c0 -76 -15.668 -131.832 -47.001 -167.499s-80.333 -53.5 -147 -53.5v53c37.333 0 65.166 12.333 83.499 37s27.5 68.334 27.5 131.001c0 9.33301 -2.16699 20.333 -6.5 33s-11.833 28 -22.5 46s-27.5 36.5 -50.5 55.5s-50.5 35.833 -82.5 50.5
c-23.333 -9.33301 -45.333 -14.666 -66 -15.999v-185h-69v479h69v-219c23.333 4 43.5 12.167 60.5 24.5s29.833 26.666 38.5 42.999s18.334 33.333 29.001 51s21.5 34 32.5 49s27.333 27.333 49 37s47.834 14.5 78.501 14.5c0 -10 0.166992 -22.333 0.5 -37
s0.5 -27.667 0.5 -39c-21.333 0 -40 -5.33301 -56 -16s-28.167 -22.834 -36.5 -36.501l-31.5 -52.5c-12.667 -21.333 -24.667 -38.333 -36 -51c59.333 -32.667 104.5 -71.334 135.5 -116.001s46.5 -83 46.5 -115z" />
    <glyph glyph-name="uni04C5" unicode="&#x4c5;" horiz-adv-x="706" 
d="M229 152c0 -42 -14.667 -77.833 -44 -107.5s-65 -44.5 -107 -44.5h-70v63h63c23.333 0 42.833 8.83301 58.5 26.5s23.5 38.5 23.5 62.5v546h429v-665h127l-111 -201h-47l61 168h-107v635h-276v-483z" />
    <glyph glyph-name="uni04C6" unicode="&#x4c6;" horiz-adv-x="582" 
d="M215 152c0 -42.667 -13.668 -78.667 -41.001 -108s-61.666 -44 -102.999 -44h-70v63h62c23.333 0 42.833 8.83301 58.5 26.5s23.5 38.5 23.5 62.5v327h313v-446h127l-111 -201h-47l61 168h-100v416h-173v-264z" />
    <glyph glyph-name="uni04C7" unicode="&#x4c7;" horiz-adv-x="621" 
d="M541 16c0 -76 -16.5 -131.832 -49.5 -167.499s-83.167 -53.5 -150.5 -53.5v53c39.333 0 69.833 12.667 91.5 38s32.5 68.666 32.5 129.999v317h-307v-333h-77v698h77v-302h307v302h77z" />
    <glyph glyph-name="uni04C8" unicode="&#x4c8;" horiz-adv-x="542" 
d="M478 16c0 -76 -16.333 -131.833 -49 -167.5s-82.667 -53.5 -150 -53.5v53c86.667 0 130 56 130 168v201h-275v-217h-69v479h69v-198h275v198h69v-463z" />
    <glyph glyph-name="uni04C9" unicode="&#x4c9;" horiz-adv-x="666" 
d="M81 0v698h77v-302h307v302h77v-665h127l-111 -201h-47l61 168h-107v333h-307v-333h-77z" />
    <glyph glyph-name="uni04CA" unicode="&#x4ca;" horiz-adv-x="603" 
d="M65 0v479h69v-198h275v198h69v-446h127l-110 -201h-48l62 168h-100v217h-275v-217h-69z" />
    <glyph glyph-name="uni04CB" unicode="&#x4cb;" horiz-adv-x="599" 
d="M440 537l-0.00195312 161h78v-698h-77l-22 -184h-41v245h62v273c-44 -44 -99 -66 -165 -66c-72 0 -130.333 25.833 -175 77.5s-67 115.5 -67 191.5v161h77v-161c0 -56 14.833 -104 44.5 -144s69.834 -60 120.501 -60s90.834 20 120.501 60s44.5 88 44.5 144z" />
    <glyph glyph-name="uni04CC" unicode="&#x4cc;" horiz-adv-x="485" 
d="M28 355v123.998h68v-124c0 -37.333 10.833 -68.166 32.5 -92.499s53.5 -36.5 95.5 -36.5s73.5 17.833 94.5 53.5s31.5 81.834 31.5 138.501v61h71v-479h-70l-22 -184h-41v245h62v151c-33.333 -33.333 -75.333 -50 -126 -50c-60 0 -107.667 17 -143 51s-53 81.333 -53 142
z" />
    <glyph glyph-name="uni04CD" unicode="&#x4cd;" horiz-adv-x="856" 
d="M81 0v698h83l243 -597l241 597h83v-665h127l-110 -201h-48l62 168h-107v515l-208 -515h-81l-208 514v-514h-77z" />
    <glyph glyph-name="uni04CE" unicode="&#x4ce;" horiz-adv-x="692" 
d="M603 0h-91l-36 344l-126 -344h-74l-124 344l-36 -344h-70l50 479h80l137 -378l138 378h80l48 -446h120l-110 -201h-47z" />
    <glyph glyph-name="uni04CF" unicode="&#x4cf;" horiz-adv-x="205" 
d="M141 698v-698h-76v698h76z" />
    <glyph glyph-name="uni04D0" unicode="&#x4d0;" horiz-adv-x="589" 
d="M308 736h-27c-40.667 0 -74 6.16699 -100 18.5s-39 28.5 -39 48.5c0 13.333 7.33301 28.333 22 45h40c-4.66699 -12.667 -7 -22 -7 -28c0 -14.667 7 -24.667 21 -30s35 -8 63 -8h27c28 0 49 2.66699 63 8s21 15.333 21 30c0 8 -2 17.333 -6 28h40c14 -16 21 -31 21 -45
c0 -20 -13 -36.167 -39 -48.5s-59.333 -18.5 -100 -18.5zM336 696l254 -696h-82l-72 196h-282l-71 -196h-82l253 696v2h83zM295 584l-118 -325h237z" />
    <glyph glyph-name="uni04D1" unicode="&#x4d1;" 
d="M301 580h-27c-40.667 0 -74 6.16699 -100 18.5s-39 28.5 -39 48.5c0 13.333 7.33301 28.333 22 45h40c-4.66699 -12.667 -7 -22 -7 -28c0 -14.667 7 -24.667 21 -30s35 -8 63 -8h27c28 0 49 2.66699 63 8s21 15.333 21 30c0 8 -2 17.333 -6 28h40c14 -16 21 -31 21 -45
c0 -20 -13 -36.167 -39 -48.5s-59.333 -18.5 -100 -18.5zM35 240c0 68.667 24.332 128.5 72.999 179.5s103.334 76.5 164.001 76.5c63.333 0 119.333 -26.667 168 -80v63h70v-479h-70v62c-48 -52 -103.333 -78 -166 -78c-60.667 0 -115.667 25.5 -165 76.5
s-74 110.833 -74 179.5zM103.999 240c0 -52.667 16.833 -98 50.5 -136s72.834 -57 117.501 -57s83.834 19 117.501 57s50.5 83.333 50.5 136s-16.833 97.834 -50.5 135.501s-72.834 56.5 -117.501 56.5s-83.834 -18.833 -117.501 -56.5s-50.5 -82.834 -50.5 -135.501z" />
    <glyph glyph-name="uni04D2" unicode="&#x4d2;" horiz-adv-x="589" 
d="M339 790c0 15.333 5.33301 28.333 16 39s23.667 16 39 16s28.666 -5.33301 39.999 -16s17 -23.667 17 -39s-5.66699 -28.5 -17 -39.5s-24.666 -16.5 -39.999 -16.5s-28.333 5.5 -39 16.5s-16 24.167 -16 39.5zM139 790c0 15.333 5.5 28.333 16.5 39s24.167 16 39.5 16
s28.5 -5.33301 39.5 -16s16.5 -23.667 16.5 -39s-5.5 -28.5 -16.5 -39.5s-24.167 -16.5 -39.5 -16.5s-28.5 5.5 -39.5 16.5s-16.5 24.167 -16.5 39.5zM336 696l254 -696h-82l-72 196h-282l-71 -196h-82l253 696v2h83zM295 584l-118 -325h237z" />
    <glyph glyph-name="uni04D3" unicode="&#x4d3;" 
d="M327 628c0 15.333 5.33301 28.333 16 39s23.667 16 39 16s28.666 -5.33301 39.999 -16s17 -23.667 17 -39s-5.66699 -28.5 -17 -39.5s-24.666 -16.5 -39.999 -16.5s-28.333 5.5 -39 16.5s-16 24.167 -16 39.5zM127 628c0 15.333 5.5 28.333 16.5 39s24.167 16 39.5 16
s28.5 -5.33301 39.5 -16s16.5 -23.667 16.5 -39s-5.5 -28.5 -16.5 -39.5s-24.167 -16.5 -39.5 -16.5s-28.5 5.5 -39.5 16.5s-16.5 24.167 -16.5 39.5zM35 240c0 68.667 24.332 128.5 72.999 179.5s103.334 76.5 164.001 76.5c63.333 0 119.333 -26.667 168 -80v63h70v-479
h-70v62c-48 -52 -103.333 -78 -166 -78c-60.667 0 -115.667 25.5 -165 76.5s-74 110.833 -74 179.5zM103.999 240c0 -52.667 16.833 -98 50.5 -136s72.834 -57 117.501 -57s83.834 19 117.501 57s50.5 83.333 50.5 136s-16.833 97.834 -50.5 135.501
s-72.834 56.5 -117.501 56.5s-83.834 -18.833 -117.501 -56.5s-50.5 -82.834 -50.5 -135.501z" />
    <glyph glyph-name="uni04D4" unicode="&#x4d4;" horiz-adv-x="790" 
d="M167 196l-106 -196h-81l376 696v2h392v-64h-316v-223h246v-63h-246v-285h319v-63h-395v196h-189zM202 259h154v286z" />
    <glyph glyph-name="uni04D5" unicode="&#x4d5;" horiz-adv-x="887" 
d="M114 365l-55.0029 32.9971c17.333 22 32.166 38.833 44.499 50.5s30.666 22.334 54.999 32.001s52.5 14.5 84.5 14.5c84.667 0 144.667 -40 180 -120c22.667 36 52 65 88 87s73 33 111 33c60.667 0 115.334 -25.167 164.001 -75.5s73 -110.166 73 -179.499h-405
c0 -52.667 16.833 -98 50.5 -136s72.834 -57 117.501 -57c34 0 62 3.83301 84 11.5s38.167 17 48.5 28s21.5 26.5 33.5 46.5l56 -36c-24.667 -38 -53.167 -66.333 -85.5 -85s-77.166 -28 -134.499 -28c-62 0 -116.667 24.333 -164 73c-58.667 -48.667 -141 -73 -247 -73
c-53.333 0 -97.5 13.333 -132.5 40s-52.5 62.334 -52.5 107.001c0 47.333 21.833 86.833 65.5 118.5s112.834 47.5 207.501 47.5c26.667 0 53.667 -4 81 -12c-4 37.333 -18 71 -42 101s-56.333 45 -97 45c-24 0 -44.167 -3 -60.5 -9s-28.666 -13 -36.999 -21
s-18.833 -20 -31.5 -36zM463.997 302.997h315c-12 38 -32.5 68.833 -61.5 92.5s-60.833 35.5 -95.5 35.5s-66.667 -11.833 -96 -35.5s-50 -54.5 -62 -92.5zM417.997 112.997c-21.333 38.667 -32.999 75.666 -34.999 110.999c-37.333 8.66699 -64.333 13 -81 13
c-64.667 0 -113.834 -9.33301 -147.501 -28s-50.5 -45 -50.5 -79c0 -21.333 6.83301 -38.666 20.5 -51.999s28.167 -21.833 43.5 -25.5s31.333 -5.5 48 -5.5c80.667 0 148 22 202 66z" />
    <glyph glyph-name="uni04D6" unicode="&#x4d6;" horiz-adv-x="515" 
d="M297 736h-27c-40.667 0 -74 6.16699 -100 18.5s-39 28.5 -39 48.5c0 13.333 7.33301 28.333 22 45h40c-4.66699 -12.667 -7 -22 -7 -28c0 -14.667 7 -24.667 21 -30s35 -8 63 -8h27c28 0 49 2.66699 63 8s21 15.333 21 30c0 8 -2 17.333 -6 28h40c14 -16 21 -31 21 -45
c0 -20 -13 -36.167 -39 -48.5s-59.333 -18.5 -100 -18.5zM81 0v698h391v-64h-314v-223h245v-63h-245v-285h317v-63h-394z" />
    <glyph glyph-name="uni04D7" unicode="&#x4d7;" horiz-adv-x="538" 
d="M288 580h-27c-40.667 0 -74 6.16699 -100 18.5s-39 28.5 -39 48.5c0 13.333 7.33301 28.333 22 45h40c-4.66699 -12.667 -7 -22 -7 -28c0 -14.667 7 -24.667 21 -30s35 -8 63 -8h27c28 0 49 2.66699 63 8s21 15.333 21 30c0 8 -2 17.333 -6 28h40c14 -16 21 -31 21 -45
c0 -20 -13 -36.167 -39 -48.5s-59.333 -18.5 -100 -18.5zM104 240c0 -52.667 16.832 -98.001 50.499 -136.001s72.834 -57 117.501 -57c48.667 0 84.167 6.83301 106.5 20.5s42.5 35.834 60.5 66.501l56 -37c-24.667 -38 -53.334 -66.333 -86.001 -85s-77.667 -28 -135 -28
c-60.667 0 -115.667 25.5 -165 76.5s-74 110.833 -74 179.5s24.333 128.5 73 179.5s103.334 76.5 164.001 76.5s115.5 -25.5 164.5 -76.5s73.5 -110.833 73.5 -179.5h-406zM114.999 302.999h315c-12 38 -32.667 69 -62 93s-61.333 36 -96 36s-66.5 -12 -95.5 -36
s-49.5 -55 -61.5 -93z" />
    <glyph glyph-name="uni04D8" unicode="&#x4d8;" horiz-adv-x="644" 
d="M66 550c28.667 50 64 89.832 106 119.499s86.667 44.5 134 44.5c78.667 0 147.334 -36.333 206.001 -109s88 -158 88 -256c0 -99.333 -27.5 -185 -82.5 -257s-121.5 -108 -199.5 -108c-87.333 0 -156.5 32.333 -207.5 97s-76.5 143.667 -76.5 237h487
c0.666992 6.66699 1 17 1 31c0 78.667 -20.833 147.334 -62.5 206.001s-92.834 88 -153.501 88c-69.333 0 -127.333 -43 -174 -129zM511 252.999h-395.999c12.667 -56.667 37.5 -104.167 74.5 -142.5s79.833 -57.5 128.5 -57.5c46.667 0 87.167 18.667 121.5 56
s58.166 85.333 71.499 144z" />
    <glyph glyph-name="afii10846" unicode="&#x4d9;" horiz-adv-x="539" 
d="M436 240c0 52.667 -16.832 98.001 -50.499 136.001s-72.834 57 -117.501 57c-48.667 0 -84.167 -6.83301 -106.5 -20.5s-42.5 -35.834 -60.5 -66.501l-56 37c24.667 38 53.334 66.333 86.001 85s77.667 28 135 28c60.667 0 115.667 -25.5 165 -76.5
s74 -110.833 74 -179.5s-24.333 -128.5 -73 -179.5s-103.334 -76.5 -164.001 -76.5s-115.5 25.5 -164.5 76.5s-73.5 110.833 -73.5 179.5h406zM427.001 177.001h-317.001c12 -38 32.667 -69 62 -93s61.333 -36 96 -36s66.834 12 96.501 36s50.5 55 62.5 93z" />
    <glyph glyph-name="uni04DA" unicode="&#x4da;" horiz-adv-x="644" 
d="M351 790c0 15.333 5.33301 28.333 16 39s23.667 16 39 16s28.666 -5.33301 39.999 -16s17 -23.667 17 -39s-5.66699 -28.5 -17 -39.5s-24.666 -16.5 -39.999 -16.5s-28.333 5.5 -39 16.5s-16 24.167 -16 39.5zM151 790c0 15.333 5.5 28.333 16.5 39s24.167 16 39.5 16
s28.5 -5.33301 39.5 -16s16.5 -23.667 16.5 -39s-5.5 -28.5 -16.5 -39.5s-24.167 -16.5 -39.5 -16.5s-28.5 5.5 -39.5 16.5s-16.5 24.167 -16.5 39.5zM66 550c28.667 50 64 89.832 106 119.499s86.667 44.5 134 44.5c78.667 0 147.334 -36.333 206.001 -109s88 -158 88 -256
c0 -99.333 -27.5 -185 -82.5 -257s-121.5 -108 -199.5 -108c-87.333 0 -156.5 32.333 -207.5 97s-76.5 143.667 -76.5 237h487c0.666992 6.66699 1 17 1 31c0 78.667 -20.833 147.334 -62.5 206.001s-92.834 88 -153.501 88c-69.333 0 -127.333 -43 -174 -129zM511 252.999
h-395.999c12.667 -56.667 37.5 -104.167 74.5 -142.5s79.833 -57.5 128.5 -57.5c46.667 0 87.167 18.667 121.5 56s58.166 85.333 71.499 144z" />
    <glyph glyph-name="uni04DB" unicode="&#x4db;" horiz-adv-x="539" 
d="M312 628c0 15.333 5.33301 28.333 16 39s23.667 16 39 16s28.666 -5.33301 39.999 -16s17 -23.667 17 -39s-5.66699 -28.5 -17 -39.5s-24.666 -16.5 -39.999 -16.5s-28.333 5.5 -39 16.5s-16 24.167 -16 39.5zM112 628c0 15.333 5.5 28.333 16.5 39s24.167 16 39.5 16
s28.5 -5.33301 39.5 -16s16.5 -23.667 16.5 -39s-5.5 -28.5 -16.5 -39.5s-24.167 -16.5 -39.5 -16.5s-28.5 5.5 -39.5 16.5s-16.5 24.167 -16.5 39.5zM436 240c0 52.667 -16.832 98.001 -50.499 136.001s-72.834 57 -117.501 57c-48.667 0 -84.167 -6.83301 -106.5 -20.5
s-42.5 -35.834 -60.5 -66.501l-56 37c24.667 38 53.334 66.333 86.001 85s77.667 28 135 28c60.667 0 115.667 -25.5 165 -76.5s74 -110.833 74 -179.5s-24.333 -128.5 -73 -179.5s-103.334 -76.5 -164.001 -76.5s-115.5 25.5 -164.5 76.5s-73.5 110.833 -73.5 179.5h406z
M427.001 177.001h-317.001c12 -38 32.667 -69 62 -93s61.333 -36 96 -36s66.834 12 96.501 36s50.5 55 62.5 93z" />
    <glyph glyph-name="uni04DC" unicode="&#x4dc;" horiz-adv-x="892" 
d="M491 790c0 15.333 5.33301 28.333 16 39s23.667 16 39 16s28.5 -5.33301 39.5 -16s16.5 -23.667 16.5 -39s-5.5 -28.5 -16.5 -39.5s-24.167 -16.5 -39.5 -16.5s-28.333 5.5 -39 16.5s-16 24.167 -16 39.5zM291 790c0 15.333 5.33301 28.333 16 39s23.667 16 39 16
s28.666 -5.33301 39.999 -16s17 -23.667 17 -39s-5.66699 -28.5 -17 -39.5s-24.666 -16.5 -39.999 -16.5s-28.333 5.5 -39 16.5s-16 24.167 -16 39.5zM43 623c0 11.333 0.331055 24.166 0.998047 38.499s1 26.5 1 36.5c38.667 0 72.334 -9.5 101.001 -28.5
s51.834 -42.667 69.501 -71s34.667 -57 51 -86s36.5 -55.5 60.5 -79.5s51.333 -39.333 82 -46v311h76v-311c30.667 6.66699 58 22 82 46s44.167 50.5 60.5 79.5s33.333 57.667 51 86s40.834 52 69.501 71s62.334 28.5 101.001 28.5c0 -10 0.333008 -22.167 1 -36.5
s1 -27.166 1 -38.499c-26 0 -49.833 -8.66699 -71.5 -26s-39 -37.166 -52 -59.499l-49 -81c-19.667 -31.667 -38.834 -56.834 -57.501 -75.501c68 -56.667 126.667 -122 176 -196s74 -135.667 74 -185h-93c0 44.667 -18.667 97.5 -56 158.5s-92.333 119.5 -165 175.5
c-24 -12 -48 -19.667 -72 -23v-311h-76v311c-24 3.33301 -48 11 -72 23c-72.667 -56 -127.667 -114.5 -165 -175.5s-56 -113.833 -56 -158.5h-93c0 49.333 24.667 111 74 185s108 139.333 176 196c-18.667 18.667 -37.834 43.834 -57.501 75.501l-49 81
c-13 22.333 -30.333 42.166 -52 59.499s-45.5 26 -71.5 26z" />
    <glyph glyph-name="uni04DD" unicode="&#x4dd;" horiz-adv-x="743" 
d="M415 628c0 15.333 5.33301 28.333 16 39s23.667 16 39 16s28.5 -5.33301 39.5 -16s16.5 -23.667 16.5 -39s-5.5 -28.5 -16.5 -39.5s-24.167 -16.5 -39.5 -16.5s-28.333 5.5 -39 16.5s-16 24.167 -16 39.5zM215 628c0 15.333 5.33301 28.333 16 39s23.667 16 39 16
s28.666 -5.33301 39.999 -16s17 -23.667 17 -39s-5.66699 -28.5 -17 -39.5s-24.666 -16.5 -39.999 -16.5s-28.333 5.5 -39 16.5s-16 24.167 -16 39.5zM48 403c0 11.333 0.161133 24.332 0.494141 38.999s0.5 27 0.5 37c30.667 0 56.834 -4.83301 78.501 -14.5s38 -22 49 -37
s21.833 -31.333 32.5 -49s20.167 -34.667 28.5 -51s21 -30.666 38 -42.999s37.167 -20.5 60.5 -24.5v219h72v-219c23.333 4 43.5 12.167 60.5 24.5s29.667 26.666 38 42.999s17.833 33.333 28.5 51s21.334 34 32.001 49s26.834 27.333 48.501 37s47.834 14.5 78.501 14.5
c0 -10 0.166992 -22.333 0.5 -37s0.5 -27.667 0.5 -39c-28 0 -50.167 -7.5 -66.5 -22.5s-32.666 -37.5 -48.999 -67.5s-30.833 -52 -43.5 -66c58 -32.667 102.833 -73.5 134.5 -122.5s47.5 -90.5 47.5 -124.5h-83c0 9.33301 -2.33301 21.166 -7 35.499
s-12.167 31.5 -22.5 51.5s-27.166 40.333 -50.499 61s-51 38.334 -83 53.001c-24 -9.33301 -45.333 -14.666 -64 -15.999v-185h-72v185c-20 1.33301 -41.667 6.66602 -65 15.999c-32 -14.667 -59.5 -32.334 -82.5 -53.001s-39.833 -41 -50.5 -61
s-18.167 -37.167 -22.5 -51.5s-6.5 -26.166 -6.5 -35.499h-83c0 34 15.833 75.5 47.5 124.5s76.5 89.833 134.5 122.5c-11.333 12.667 -23.333 29.667 -36 51l-31.5 52.5c-8.33301 13.667 -20.5 25.834 -36.5 36.501s-34.667 16 -56 16z" />
    <glyph glyph-name="uni04DE" unicode="&#x4de;" horiz-adv-x="525" 
d="M301 790c0 15.333 5.33301 28.333 16 39s23.667 16 39 16s28.5 -5.33301 39.5 -16s16.5 -23.667 16.5 -39s-5.5 -28.5 -16.5 -39.5s-24.167 -16.5 -39.5 -16.5s-28.333 5.5 -39 16.5s-16 24.167 -16 39.5zM101 790c0 15.333 5.33301 28.333 16 39s23.667 16 39 16
s28.666 -5.33301 39.999 -16s17 -23.667 17 -39s-5.66699 -28.5 -17 -39.5s-24.666 -16.5 -39.999 -16.5s-28.333 5.5 -39 16.5s-16 24.167 -16 39.5zM378 374c68.667 -32 103 -87.668 103 -167.001c0 -70.667 -22.167 -125.5 -66.5 -164.5s-102.5 -58.5 -174.5 -58.5
c-58 0 -104.5 8.16699 -139.5 24.5s-65.167 40.5 -90.5 72.5l55 43c33.333 -47.333 91.666 -71 174.999 -71c46.667 0 85.667 13.5 117 40.5s47 59.167 47 96.5c0 42.667 -16.5 77.5 -49.5 104.5s-78.833 40.5 -137.5 40.5v68c57.333 0 99 11.333 125 34
s39 51.334 39 86.001c0 32.667 -11.667 61.167 -35 85.5s-53.666 36.5 -90.999 36.5c-28 0 -56.5 -4.16699 -85.5 -12.5s-51.5 -21.833 -67.5 -40.5l-51 48c23.333 24.667 54.333 43.167 93 55.5s75.667 18.5 111 18.5c58.667 0 107.167 -16 145.5 -48
s57.5 -79.667 57.5 -143c0 -65.333 -26.667 -115 -80 -149z" />
    <glyph glyph-name="uni04DF" unicode="&#x4df;" horiz-adv-x="433" 
d="M249 628c0 15.333 5.33301 28.333 16 39s23.667 16 39 16s28.5 -5.33301 39.5 -16s16.5 -23.667 16.5 -39s-5.5 -28.5 -16.5 -39.5s-24.167 -16.5 -39.5 -16.5s-28.333 5.5 -39 16.5s-16 24.167 -16 39.5zM49 628c0 15.333 5.33301 28.333 16 39s23.667 16 39 16
s28.666 -5.33301 39.999 -16s17 -23.667 17 -39s-5.66699 -28.5 -17 -39.5s-24.666 -16.5 -39.999 -16.5s-28.333 5.5 -39 16.5s-16 24.167 -16 39.5zM179 227v64c70 5.33301 105 26 105 62c0 48.667 -26.667 73 -80 73c-30.667 0 -67 -25.333 -109 -76l-48 41
c2 2.66699 7.33301 9.16699 16 19.5s14.5 17.166 17.5 20.499s8.66699 9.16602 17 17.499s15.5 14 21.5 17l22.5 11.5c9 4.66699 18.667 7.83398 29 9.50098s21.5 2.5 33.5 2.5c47.333 0 85.333 -12 114 -36s43 -57.333 43 -100c0 -36.667 -18.333 -65.667 -55 -87
c62.667 -28 94 -71 94 -129c0 -45.333 -18.667 -81.166 -56 -107.499s-80 -39.5 -128 -39.5c-26.667 0 -50.5 2.33301 -71.5 7s-39.667 12.167 -56 22.5s-28.5 18.833 -36.5 25.5s-19 17 -33 31l46 45c45.333 -45.333 95 -68 149 -68c29.333 0 54.833 8 76.5 24
s32.5 36 32.5 60c0 60 -48 90 -144 90z" />
    <glyph glyph-name="uni04E0" unicode="&#x4e0;" horiz-adv-x="543" 
d="M36 635l0.00292969 62.999h436v-76l-207 -197c72 -14 129.167 -40.833 171.5 -80.5s63.5 -84.167 63.5 -133.5c0 -151.333 -80.667 -227 -242 -227c-58 0 -104.333 8.16699 -139 24.5s-64.667 40.5 -90 72.5l54 43c33.333 -47.333 91.666 -71 174.999 -71
c53.333 0 94.166 13.667 122.499 41s42.5 61 42.5 101c0 44.667 -22.833 84.334 -68.5 119.001s-107.834 52 -186.501 52v68l200 201h-332z" />
    <glyph glyph-name="uni04E1" unicode="&#x4e1;" horiz-adv-x="408" 
d="M13 416l0.000976562 63.001h336v-63l-192 -213c81.333 -10.667 140.166 -35.334 176.499 -74.001s54.5 -81.667 54.5 -129c0 -66.667 -20 -117.5 -60 -152.5s-91.667 -52.5 -155 -52.5c-64.667 0 -123.334 26.333 -176.001 79l45 44
c40.667 -40.667 85.334 -61 134.001 -61c44 0 78.667 12.333 104 37s38 60 38 106c0 34.667 -20.167 67.167 -60.5 97.5s-99.833 45.5 -178.5 45.5v64l188 209h-254z" />
    <glyph glyph-name="uni04E2" unicode="&#x4e2;" horiz-adv-x="644" 
d="M183 789h274v-46h-274v46zM563 0h-77v570l-329 -570h-76v698h76v-572l329 572h77v-698z" />
    <glyph glyph-name="uni04E3" unicode="&#x4e3;" horiz-adv-x="542" 
d="M136 627h274v-46h-274v46zM65 0v479h69v-400l258 400h86v-479h-69v395l-255 -395h-89z" />
    <glyph glyph-name="uni04E4" unicode="&#x4e4;" horiz-adv-x="644" 
d="M366 790c0 15.333 5.33301 28.333 16 39s23.667 16 39 16s28.5 -5.33301 39.5 -16s16.5 -23.667 16.5 -39s-5.5 -28.5 -16.5 -39.5s-24.167 -16.5 -39.5 -16.5s-28.333 5.5 -39 16.5s-16 24.167 -16 39.5zM166 790c0 15.333 5.33301 28.333 16 39s23.667 16 39 16
s28.666 -5.33301 39.999 -16s17 -23.667 17 -39s-5.66699 -28.5 -17 -39.5s-24.666 -16.5 -39.999 -16.5s-28.333 5.5 -39 16.5s-16 24.167 -16 39.5zM563 0h-77v570l-329 -570h-76v698h76v-572l329 572h77v-698z" />
    <glyph glyph-name="uni04E5" unicode="&#x4e5;" horiz-adv-x="542" 
d="M319 628c0 15.333 5.33301 28.333 16 39s23.667 16 39 16s28.5 -5.33301 39.5 -16s16.5 -23.667 16.5 -39s-5.5 -28.5 -16.5 -39.5s-24.167 -16.5 -39.5 -16.5s-28.333 5.5 -39 16.5s-16 24.167 -16 39.5zM119 628c0 15.333 5.33301 28.333 16 39s23.667 16 39 16
s28.666 -5.33301 39.999 -16s17 -23.667 17 -39s-5.66699 -28.5 -17 -39.5s-24.666 -16.5 -39.999 -16.5s-28.333 5.5 -39 16.5s-16 24.167 -16 39.5zM65 0v479h69v-400l258 400h86v-479h-69v395l-255 -395h-89z" />
    <glyph glyph-name="uni04E6" unicode="&#x4e6;" horiz-adv-x="689" 
d="M388 790c0 15.333 5.33301 28.333 16 39s23.667 16 39 16s28.666 -5.33301 39.999 -16s17 -23.667 17 -39s-5.66699 -28.5 -17 -39.5s-24.666 -16.5 -39.999 -16.5s-28.333 5.5 -39 16.5s-16 24.167 -16 39.5zM188 790c0 15.333 5.5 28.333 16.5 39s24.167 16 39.5 16
s28.5 -5.33301 39.5 -16s16.5 -23.667 16.5 -39s-5.5 -28.5 -16.5 -39.5s-24.167 -16.5 -39.5 -16.5s-28.5 5.5 -39.5 16.5s-16.5 24.167 -16.5 39.5zM124 348c0 -78 21.333 -146.5 64 -205.5s94.334 -88.5 155.001 -88.5s112.334 29.5 155.001 88.5s64 127.5 64 205.5
c0 78.667 -21.333 147.667 -64 207s-94.334 89 -155.001 89s-112.334 -29.667 -155.001 -89s-64 -128.333 -64 -207zM43 348c0 98 30.167 183.5 90.5 256.5s130.166 109.5 209.499 109.5s149.166 -36.5 209.499 -109.5s90.5 -158.5 90.5 -256.5
s-30.167 -183.167 -90.5 -255.5s-130.166 -108.5 -209.499 -108.5s-149.166 36.167 -209.499 108.5s-90.5 157.5 -90.5 255.5z" />
    <glyph glyph-name="uni04E7" unicode="&#x4e7;" horiz-adv-x="562" 
d="M317 628c0 15.333 5.33301 28.333 16 39s23.667 16 39 16s28.5 -5.33301 39.5 -16s16.5 -23.667 16.5 -39s-5.5 -28.5 -16.5 -39.5s-24.167 -16.5 -39.5 -16.5s-28.333 5.5 -39 16.5s-16 24.167 -16 39.5zM117 628c0 15.333 5.33301 28.333 16 39s23.667 16 39 16
s28.666 -5.33301 39.999 -16s17 -23.667 17 -39s-5.66699 -28.5 -17 -39.5s-24.666 -16.5 -39.999 -16.5s-28.333 5.5 -39 16.5s-16 24.167 -16 39.5zM104 240c0 -52.667 16.833 -98 50.5 -136s72.834 -57 117.501 -57s83.834 19 117.501 57s50.5 83.333 50.5 136
s-16.833 97.834 -50.5 135.501s-72.834 56.5 -117.501 56.5s-83.834 -18.833 -117.501 -56.5s-50.5 -82.834 -50.5 -135.501zM35 240c0 68.667 24.332 128.5 72.999 179.5s103.334 76.5 164.001 76.5s115.5 -25.5 164.5 -76.5s73.5 -110.833 73.5 -179.5
c0 -69.333 -24.167 -129.333 -72.5 -180s-102.833 -76 -163.5 -76s-115.667 25.5 -165 76.5s-74 110.833 -74 179.5z" />
    <glyph glyph-name="uni04E8" unicode="&#x4e8;" horiz-adv-x="686" 
d="M43 348c0 98 30.167 183.5 90.5 256.5s130.166 109.5 209.499 109.5s149.166 -36.5 209.499 -109.5s90.5 -158.5 90.5 -256.5s-30.167 -183.167 -90.5 -255.5s-130.166 -108.5 -209.499 -108.5s-149.166 36.167 -209.499 108.5s-90.5 157.5 -90.5 255.5zM125 381h436
c-6 72 -29.833 133.833 -71.5 185.5s-90.5 77.5 -146.5 77.5s-104.833 -26 -146.5 -78s-65.5 -113.667 -71.5 -185zM561 317h-436.001c5.33301 -72 28.833 -133.833 70.5 -185.5s90.834 -77.5 147.501 -77.5s105.667 25.833 147 77.5s65 113.5 71 185.5z" />
    <glyph glyph-name="uni04E9" unicode="&#x4e9;" horiz-adv-x="544" 
d="M35 240c0 68.667 24.332 128.5 72.999 179.5s103.334 76.5 164.001 76.5s115.5 -25.5 164.5 -76.5s73.5 -110.833 73.5 -179.5c0 -69.333 -24.167 -129.333 -72.5 -180s-102.833 -76 -163.5 -76s-115.667 25.5 -165 76.5s-74 110.833 -74 179.5zM107.999 273
l328.998 -0.00195312c-6.66699 44.667 -26 82.334 -58 113.001s-67.667 46 -107 46s-74.666 -15.167 -105.999 -45.5s-50.666 -68.166 -57.999 -113.499zM437.997 209.998h-332c6.66699 -46 26 -84.667 58 -116s68 -47 108 -47s76 15.667 108 47s51.333 70 58 116z" />
    <glyph glyph-name="uni04EA" unicode="&#x4ea;" horiz-adv-x="686" 
d="M386 790c0 15.333 5.33301 28.333 16 39s23.667 16 39 16s28.5 -5.33301 39.5 -16s16.5 -23.667 16.5 -39s-5.5 -28.5 -16.5 -39.5s-24.167 -16.5 -39.5 -16.5s-28.333 5.5 -39 16.5s-16 24.167 -16 39.5zM186 790c0 15.333 5.33301 28.333 16 39s23.667 16 39 16
s28.666 -5.33301 39.999 -16s17 -23.667 17 -39s-5.66699 -28.5 -17 -39.5s-24.666 -16.5 -39.999 -16.5s-28.333 5.5 -39 16.5s-16 24.167 -16 39.5zM43 348c0 98 30.167 183.5 90.5 256.5s130.166 109.5 209.499 109.5s149.166 -36.5 209.499 -109.5
s90.5 -158.5 90.5 -256.5s-30.167 -183.167 -90.5 -255.5s-130.166 -108.5 -209.499 -108.5s-149.166 36.167 -209.499 108.5s-90.5 157.5 -90.5 255.5zM125 381h436c-6 72 -29.833 133.833 -71.5 185.5s-90.5 77.5 -146.5 77.5s-104.833 -26 -146.5 -78
s-65.5 -113.667 -71.5 -185zM561 317h-436.001c5.33301 -72 28.833 -133.833 70.5 -185.5s90.834 -77.5 147.501 -77.5s105.667 25.833 147 77.5s65 113.5 71 185.5z" />
    <glyph glyph-name="uni04EB" unicode="&#x4eb;" horiz-adv-x="544" 
d="M318 628c0 15.333 5.33301 28.333 16 39s23.667 16 39 16s28.5 -5.33301 39.5 -16s16.5 -23.667 16.5 -39s-5.5 -28.5 -16.5 -39.5s-24.167 -16.5 -39.5 -16.5s-28.333 5.5 -39 16.5s-16 24.167 -16 39.5zM118 628c0 15.333 5.33301 28.333 16 39s23.667 16 39 16
s28.666 -5.33301 39.999 -16s17 -23.667 17 -39s-5.66699 -28.5 -17 -39.5s-24.666 -16.5 -39.999 -16.5s-28.333 5.5 -39 16.5s-16 24.167 -16 39.5zM35 240c0 68.667 24.332 128.5 72.999 179.5s103.334 76.5 164.001 76.5s115.5 -25.5 164.5 -76.5
s73.5 -110.833 73.5 -179.5c0 -69.333 -24.167 -129.333 -72.5 -180s-102.833 -76 -163.5 -76s-115.667 25.5 -165 76.5s-74 110.833 -74 179.5zM107.999 273l328.998 -0.00195312c-6.66699 44.667 -26 82.334 -58 113.001s-67.667 46 -107 46
s-74.666 -15.167 -105.999 -45.5s-50.666 -68.166 -57.999 -113.499zM437.997 209.998h-332c6.66699 -46 26 -84.667 58 -116s68 -47 108 -47s76 15.667 108 47s51.333 70 58 116z" />
    <glyph glyph-name="uni04EC" unicode="&#x4ec;" horiz-adv-x="586" 
d="M308 790c0 15.333 5.33301 28.333 16 39s23.667 16 39 16s28.5 -5.33301 39.5 -16s16.5 -23.667 16.5 -39s-5.5 -28.5 -16.5 -39.5s-24.167 -16.5 -39.5 -16.5s-28.333 5.5 -39 16.5s-16 24.167 -16 39.5zM108 790c0 15.333 5.33301 28.333 16 39s23.667 16 39 16
s28.666 -5.33301 39.999 -16s17 -23.667 17 -39s-5.66699 -28.5 -17 -39.5s-24.666 -16.5 -39.999 -16.5s-28.333 5.5 -39 16.5s-16 24.167 -16 39.5zM28 147l65.999 35.999c46.667 -86 102 -129 166 -129c55.333 0 101.666 25.5 138.999 76.5s58.666 113.167 63.999 186.5
h-272v64h272c-5.33301 72.667 -26.666 134.667 -63.999 186s-83.666 77 -138.999 77c-59.333 0 -112.666 -39 -159.999 -117l-60 43c62 96 135.333 144 220 144c78 0 144.5 -36.167 199.5 -108.5s82.5 -158.166 82.5 -257.499s-27.5 -184.833 -82.5 -256.5
s-121.5 -107.5 -199.5 -107.5c-92 0 -169.333 54.333 -232 163z" />
    <glyph glyph-name="uni04ED" unicode="&#x4ed;" horiz-adv-x="484" 
d="M256 628c0 15.333 5.33301 28.333 16 39s23.667 16 39 16s28.5 -5.33301 39.5 -16s16.5 -23.667 16.5 -39s-5.5 -28.5 -16.5 -39.5s-24.167 -16.5 -39.5 -16.5s-28.333 5.5 -39 16.5s-16 24.167 -16 39.5zM56 628c0 15.333 5.33301 28.333 16 39s23.667 16 39 16
s28.666 -5.33301 39.999 -16s17 -23.667 17 -39s-5.66699 -28.5 -17 -39.5s-24.666 -16.5 -39.999 -16.5s-28.333 5.5 -39 16.5s-16 24.167 -16 39.5zM19 76l55.001 38c18 -23.333 36.667 -40.333 56 -51s46.666 -16 81.999 -16c41.333 0 78.333 16.333 111 49
s51.334 73 56.001 121h-246v64h243c-8.66699 43.333 -28.5 79.333 -59.5 108s-65.833 43 -104.5 43c-52 0 -95.333 -24.333 -130 -73l-51 40c23.333 29.333 51 52.833 83 70.5s64.667 26.5 98 26.5c60.667 0 115.5 -25.5 164.5 -76.5s73.5 -110.833 73.5 -179.5
s-24.833 -128.5 -74.5 -179.5s-104.834 -76.5 -165.501 -76.5c-44 0 -80.667 7.66699 -110 23s-56.333 38.333 -81 69z" />
    <glyph glyph-name="uni04EE" unicode="&#x4ee;" horiz-adv-x="457" 
d="M101 789h274v-46h-274v46zM457 698l-187.001 -542c-35.333 -104 -107.666 -156 -216.999 -156v63c68 0 113.667 33.333 137 100l21 58l-193 477h83l148 -367l127 367h81z" />
    <glyph glyph-name="uni04EF" unicode="&#x4ef;" horiz-adv-x="466" 
d="M99 627h274v-46h-274v46zM233 90l157 389h76l-278 -684h-74l82 204l-195 480h76z" />
    <glyph glyph-name="uni04F0" unicode="&#x4f0;" horiz-adv-x="457" 
d="M282 790c0 15.333 5.33301 28.333 16 39s23.667 16 39 16s28.5 -5.33301 39.5 -16s16.5 -23.667 16.5 -39s-5.5 -28.5 -16.5 -39.5s-24.167 -16.5 -39.5 -16.5s-28.333 5.5 -39 16.5s-16 24.167 -16 39.5zM82 790c0 15.333 5.33301 28.333 16 39s23.667 16 39 16
s28.666 -5.33301 39.999 -16s17 -23.667 17 -39s-5.66699 -28.5 -17 -39.5s-24.666 -16.5 -39.999 -16.5s-28.333 5.5 -39 16.5s-16 24.167 -16 39.5zM457 698l-187.001 -542c-35.333 -104 -107.666 -156 -216.999 -156v63c68 0 113.667 33.333 137 100l21 58l-193 477h83
l148 -367l127 367h81z" />
    <glyph glyph-name="uni04F1" unicode="&#x4f1;" horiz-adv-x="466" 
d="M277 628c0 15.333 5.33301 28.333 16 39s23.667 16 39 16s28.5 -5.33301 39.5 -16s16.5 -23.667 16.5 -39s-5.5 -28.5 -16.5 -39.5s-24.167 -16.5 -39.5 -16.5s-28.333 5.5 -39 16.5s-16 24.167 -16 39.5zM77 628c0 15.333 5.33301 28.333 16 39s23.667 16 39 16
s28.666 -5.33301 39.999 -16s17 -23.667 17 -39s-5.66699 -28.5 -17 -39.5s-24.666 -16.5 -39.999 -16.5s-28.333 5.5 -39 16.5s-16 24.167 -16 39.5zM233 90l157 389h76l-278 -684h-74l82 204l-195 480h76z" />
    <glyph glyph-name="uni04F2" unicode="&#x4f2;" horiz-adv-x="457" 
d="M297 772l176 197l49 -49l-197 -176zM121 772l176 197l49 -49l-197 -176zM457 698l-187.001 -542c-35.333 -104 -107.666 -156 -216.999 -156v63c68 0 113.667 33.333 137 100l21 58l-193 477h83l148 -367l127 367h81z" />
    <glyph glyph-name="uni04F3" unicode="&#x4f3;" horiz-adv-x="466" 
d="M298 608l176 197l49 -49l-197 -176zM122 608l176 197l49 -49l-197 -176zM233 90l157 389h76l-278 -684h-74l82 204l-195 480h76z" />
    <glyph glyph-name="uni04F4" unicode="&#x4f4;" horiz-adv-x="599" 
d="M316 790c0 15.333 5.33301 28.333 16 39s23.667 16 39 16s28.5 -5.33301 39.5 -16s16.5 -23.667 16.5 -39s-5.5 -28.5 -16.5 -39.5s-24.167 -16.5 -39.5 -16.5s-28.333 5.5 -39 16.5s-16 24.167 -16 39.5zM116 790c0 15.333 5.33301 28.333 16 39s23.667 16 39 16
s28.666 -5.33301 39.999 -16s17 -23.667 17 -39s-5.66699 -28.5 -17 -39.5s-24.666 -16.5 -39.999 -16.5s-28.333 5.5 -39 16.5s-16 24.167 -16 39.5zM440 537l-0.00195312 161h78v-698h-78v334c-44 -44 -99 -66 -165 -66c-72 0 -130.333 25.833 -175 77.5
s-67 115.5 -67 191.5v161h77v-161c0 -56 14.833 -104 44.5 -144s69.834 -60 120.501 -60s90.834 20 120.501 60s44.5 88 44.5 144z" />
    <glyph glyph-name="uni04F5" unicode="&#x4f5;" horiz-adv-x="485" 
d="M267 628c0 15.333 5.33301 28.333 16 39s23.667 16 39 16s28.5 -5.33301 39.5 -16s16.5 -23.667 16.5 -39s-5.5 -28.5 -16.5 -39.5s-24.167 -16.5 -39.5 -16.5s-28.333 5.5 -39 16.5s-16 24.167 -16 39.5zM67 628c0 15.333 5.33301 28.333 16 39s23.667 16 39 16
s28.666 -5.33301 39.999 -16s17 -23.667 17 -39s-5.66699 -28.5 -17 -39.5s-24.666 -16.5 -39.999 -16.5s-28.333 5.5 -39 16.5s-16 24.167 -16 39.5zM28 355v123.998h68v-124c0 -37.333 10.833 -68.166 32.5 -92.499s53.5 -36.5 95.5 -36.5s73.5 17.833 94.5 53.5
s31.5 81.834 31.5 138.501v61h71v-479h-71v212c-33.333 -33.333 -75.333 -50 -126 -50c-60 0 -107.667 17 -143 51s-53 81.333 -53 142z" />
    <glyph glyph-name="uni04F6" unicode="&#x4f6;" horiz-adv-x="478" 
d="M151 0h-70v698h391v-64h-314v-573h56v-245h-41z" />
    <glyph glyph-name="uni04F7" unicode="&#x4f7;" horiz-adv-x="375" 
d="M65 0v479h309v-63h-240v-355h57v-245h-40l-23 184h-63z" />
    <glyph glyph-name="uni04F8" unicode="&#x4f8;" horiz-adv-x="801" 
d="M432 790c0 15.333 5.33301 28.333 16 39s23.667 16 39 16s28.5 -5.33301 39.5 -16s16.5 -23.667 16.5 -39s-5.5 -28.5 -16.5 -39.5s-24.167 -16.5 -39.5 -16.5s-28.333 5.5 -39 16.5s-16 24.167 -16 39.5zM232 790c0 15.333 5.33301 28.333 16 39s23.667 16 39 16
s28.666 -5.33301 39.999 -16s17 -23.667 17 -39s-5.66699 -28.5 -17 -39.5s-24.666 -16.5 -39.999 -16.5s-28.333 5.5 -39 16.5s-16 24.167 -16 39.5zM711 631v-563h37v-68h-151v68h37v563h-37v67h151v-67h-37zM81 0l-0.000976562 698h77v-288h146
c65.333 0 122.5 -17.667 171.5 -53s73.5 -86 73.5 -152s-24.167 -116.667 -72.5 -152s-105.166 -53 -170.499 -53h-225zM157.999 346v-282.999h146c46 0 84.333 12.333 115 37s46 59.667 46 105s-15.167 80.166 -45.5 104.499s-68.833 36.5 -115.5 36.5h-146z" />
    <glyph glyph-name="uni04F9" unicode="&#x4f9;" horiz-adv-x="643" 
d="M362 628c0 15.333 5.33301 28.333 16 39s23.667 16 39 16s28.5 -5.33301 39.5 -16s16.5 -23.667 16.5 -39s-5.5 -28.5 -16.5 -39.5s-24.167 -16.5 -39.5 -16.5s-28.333 5.5 -39 16.5s-16 24.167 -16 39.5zM162 628c0 15.333 5.33301 28.333 16 39s23.667 16 39 16
s28.666 -5.33301 39.999 -16s17 -23.667 17 -39s-5.66699 -28.5 -17 -39.5s-24.666 -16.5 -39.999 -16.5s-28.333 5.5 -39 16.5s-16 24.167 -16 39.5zM509 0v479h70v-479h-70zM65 0l0.000976562 478.999h69v-162h88c66.667 0 120.167 -13.667 160.5 -41
s60.5 -66.333 60.5 -117c0 -51.333 -19.833 -90.666 -59.5 -117.999s-92.834 -41 -159.501 -41h-159zM134.001 253.999v-191h88c45.333 0 80.666 8 105.999 24s38 40 38 72c0 31.333 -12.667 55 -38 71s-60.666 24 -105.999 24h-88z" />
    <glyph glyph-name="uni04FA" unicode="&#x4fa;" horiz-adv-x="480" 
d="M16 423v56h68v219h391v-64h-314v-155h140v-56h-140v-382h135v-132c0 -31.333 -9 -55.5 -27 -72.5s-41 -25.5 -69 -25.5c-32.667 0 -59 16.667 -79 50l29 21c16 -22.667 31.333 -34 46 -34c36.667 0 55 24.333 55 73v79h-167v423h-68z" />
    <glyph glyph-name="uni04FB" unicode="&#x4fb;" horiz-adv-x="382" 
d="M11 255v56h62v168h309v-63h-240v-105h106v-56h-106v-214h136v-132c0 -31.333 -9.16699 -55.5 -27.5 -72.5s-41.5 -25.5 -69.5 -25.5c-32.667 0 -59 16.667 -79 50l29 21c16 -22.667 31.333 -34 46 -34c36.667 0 55 24.333 55 73v79h-159v255h-62z" />
    <glyph glyph-name="uni04FC" unicode="&#x4fc;" horiz-adv-x="561" 
d="M520 0h-119l-147 276l-146 -276h-86l189 357l-181 341h86l138 -261l139 261h86l-182 -341l169 -316h99v-132c0 -31.333 -9 -55.5 -27 -72.5s-41 -25.5 -69 -25.5c-32.667 0 -59 16.667 -79 50l30 21c16 -22.667 31 -34 45 -34c36.667 0 55 24.333 55 73v79z" />
    <glyph glyph-name="uni04FD" unicode="&#x4fd;" horiz-adv-x="506" 
d="M171 250l-143 229h82l102 -164l102 164h83l-143 -229l130 -209h114v-132c0 -31.333 -9.16699 -55.5 -27.5 -72.5s-41.5 -25.5 -69.5 -25.5c-32 0 -58 16.667 -78 50l29 21c16 -22.667 31 -34 45 -34c37.333 0 56 24.333 56 73v79h-126l-115 183l-115 -183h-82z" />
    <glyph glyph-name="uni04FE" unicode="&#x4fe;" horiz-adv-x="506" 
d="M65 328v63h128l-164 307h86l138 -261l139 261h86l-164 -307h131v-63h-133l174 -328h-86l-147 276l-147 -276h-86l175 328h-130z" />
    <glyph glyph-name="uni04FF" unicode="&#x4ff;" horiz-adv-x="429" 
d="M36 225v64h114l-119 190h82l102 -164l102 164h83l-118 -190h104v-64h-114l141 -225h-83l-115 183l-115 -183h-82l141 225h-123z" />
    <glyph glyph-name=".null" horiz-adv-x="0" 
 />
    <glyph glyph-name="nonmarkingreturn" horiz-adv-x="341" 
 />
    <glyph glyph-name="dieresis" horiz-adv-x="452" 
d="M259 628c0 15.333 5.33301 28.333 16 39s23.667 16 39 16s28.666 -5.33301 39.999 -16s17 -23.667 17 -39s-5.66699 -28.5 -17 -39.5s-24.666 -16.5 -39.999 -16.5s-28.333 5.5 -39 16.5s-16 24.167 -16 39.5zM59 628c0 15.333 5.5 28.333 16.5 39s24.167 16 39.5 16
s28.5 -5.33301 39.5 -16s16.5 -23.667 16.5 -39s-5.5 -28.5 -16.5 -39.5s-24.167 -16.5 -39.5 -16.5s-28.5 5.5 -39.5 16.5s-16.5 24.167 -16.5 39.5z" />
    <glyph glyph-name="Adieresis" horiz-adv-x="589" 
d="M339 790c0 15.333 5.33301 28.333 16 39s23.667 16 39 16s28.666 -5.33301 39.999 -16s17 -23.667 17 -39s-5.66699 -28.5 -17 -39.5s-24.666 -16.5 -39.999 -16.5s-28.333 5.5 -39 16.5s-16 24.167 -16 39.5zM139 790c0 15.333 5.5 28.333 16.5 39s24.167 16 39.5 16
s28.5 -5.33301 39.5 -16s16.5 -23.667 16.5 -39s-5.5 -28.5 -16.5 -39.5s-24.167 -16.5 -39.5 -16.5s-28.5 5.5 -39.5 16.5s-16.5 24.167 -16.5 39.5zM336 696l254 -696h-82l-72 196h-282l-71 -196h-82l253 696v2h83zM295 584l-118 -325h237z" />
    <glyph glyph-name="AE" horiz-adv-x="790" 
d="M167 196l-106 -196h-81l376 696v2h392v-64h-316v-223h246v-63h-246v-285h319v-63h-395v196h-189zM202 259h154v286z" />
    <glyph glyph-name="Ccedilla" horiz-adv-x="588" 
d="M302 -15c-72 8.66699 -132.669 48.002 -182.002 118.002s-74 151.667 -74 245c0 99.333 27.5 185.166 82.5 257.499s121.5 108.5 199.5 108.5c84.667 0 158 -48 220 -144l-61 -43c-47.333 78 -100.333 117 -159 117c-59.333 0 -108.166 -29.333 -146.499 -88
s-57.5 -128 -57.5 -208s19 -149 57 -207s87 -87 147 -87c64 0 119.333 43 166 129l66 -36c-56 -96.667 -124.667 -150.334 -206 -161.001l-27 -56c36.667 0 64.167 -6 82.5 -18s27.5 -25.333 27.5 -40c0 -51.333 -70 -77 -210 -77v28c34 0 66.333 3.83301 97 11.5
s46 18.167 46 31.5c0 6.66699 -2.33301 12 -7 16s-15.167 7.16699 -31.5 9.5s-40.166 3.5 -71.499 3.5z" />
    <glyph glyph-name="Egrave" horiz-adv-x="515" 
d="M352 743l-236 119l35 60l221 -145zM81 0v698h391v-64h-314v-223h245v-63h-245v-285h317v-63h-394z" />
    <glyph glyph-name="Edieresis" horiz-adv-x="515" 
d="M337 790c0 15.333 5.33301 28.333 16 39s23.667 16 39 16s28.666 -5.33301 39.999 -16s17 -23.667 17 -39s-5.66699 -28.5 -17 -39.5s-24.666 -16.5 -39.999 -16.5s-28.333 5.5 -39 16.5s-16 24.167 -16 39.5zM137 790c0 15.333 5.5 28.333 16.5 39s24.167 16 39.5 16
s28.5 -5.33301 39.5 -16s16.5 -23.667 16.5 -39s-5.5 -28.5 -16.5 -39.5s-24.167 -16.5 -39.5 -16.5s-28.5 5.5 -39.5 16.5s-16.5 24.167 -16.5 39.5zM81 0v698h391v-64h-314v-223h245v-63h-245v-285h317v-63h-394z" />
    <glyph glyph-name="Idieresis" horiz-adv-x="259" 
d="M175 790c0 15.333 5.33301 28.333 16 39s23.667 16 39 16s28.666 -5.33301 39.999 -16s17 -23.667 17 -39s-5.66699 -28.5 -17 -39.5s-24.666 -16.5 -39.999 -16.5s-28.333 5.5 -39 16.5s-16 24.167 -16 39.5zM-25 790c0 15.333 5.5 28.333 16.5 39s24.167 16 39.5 16
s28.5 -5.33301 39.5 -16s16.5 -23.667 16.5 -39s-5.5 -28.5 -16.5 -39.5s-24.167 -16.5 -39.5 -16.5s-28.5 5.5 -39.5 16.5s-16.5 24.167 -16.5 39.5zM168 631v-563h37v-68h-151v68h37v563h-37v67h151v-67h-37z" />
    <glyph glyph-name="Odieresis" horiz-adv-x="686" 
d="M388 790c0 15.333 5.33301 28.333 16 39s23.667 16 39 16s28.666 -5.33301 39.999 -16s17 -23.667 17 -39s-5.66699 -28.5 -17 -39.5s-24.666 -16.5 -39.999 -16.5s-28.333 5.5 -39 16.5s-16 24.167 -16 39.5zM188 790c0 15.333 5.5 28.333 16.5 39s24.167 16 39.5 16
s28.5 -5.33301 39.5 -16s16.5 -23.667 16.5 -39s-5.5 -28.5 -16.5 -39.5s-24.167 -16.5 -39.5 -16.5s-28.5 5.5 -39.5 16.5s-16.5 24.167 -16.5 39.5zM124 348c0 -78 21.333 -146.5 64 -205.5s94.334 -88.5 155.001 -88.5s112.334 29.5 155.001 88.5s64 127.5 64 205.5
c0 78.667 -21.333 147.667 -64 207s-94.334 89 -155.001 89s-112.334 -29.667 -155.001 -89s-64 -128.333 -64 -207zM43 348c0 98 30.167 183.5 90.5 256.5s130.166 109.5 209.499 109.5s149.166 -36.5 209.499 -109.5s90.5 -158.5 90.5 -256.5
s-30.167 -183.167 -90.5 -255.5s-130.166 -108.5 -209.499 -108.5s-149.166 36.167 -209.499 108.5s-90.5 157.5 -90.5 255.5z" />
    <glyph glyph-name="adieresis" 
d="M327 628c0 15.333 5.33301 28.333 16 39s23.667 16 39 16s28.666 -5.33301 39.999 -16s17 -23.667 17 -39s-5.66699 -28.5 -17 -39.5s-24.666 -16.5 -39.999 -16.5s-28.333 5.5 -39 16.5s-16 24.167 -16 39.5zM127 628c0 15.333 5.5 28.333 16.5 39s24.167 16 39.5 16
s28.5 -5.33301 39.5 -16s16.5 -23.667 16.5 -39s-5.5 -28.5 -16.5 -39.5s-24.167 -16.5 -39.5 -16.5s-28.5 5.5 -39.5 16.5s-16.5 24.167 -16.5 39.5zM35 240c0 68.667 24.332 128.5 72.999 179.5s103.334 76.5 164.001 76.5c63.333 0 119.333 -26.667 168 -80v63h70v-479
h-70v62c-48 -52 -103.333 -78 -166 -78c-60.667 0 -115.667 25.5 -165 76.5s-74 110.833 -74 179.5zM103.999 240c0 -52.667 16.833 -98 50.5 -136s72.834 -57 117.501 -57s83.834 19 117.501 57s50.5 83.333 50.5 136s-16.833 97.834 -50.5 135.501
s-72.834 56.5 -117.501 56.5s-83.834 -18.833 -117.501 -56.5s-50.5 -82.834 -50.5 -135.501z" />
    <glyph glyph-name="ae" horiz-adv-x="887" 
d="M114 365l-55.0029 32.9971c17.333 22 32.166 38.833 44.499 50.5s30.666 22.334 54.999 32.001s52.5 14.5 84.5 14.5c84.667 0 144.667 -40 180 -120c22.667 36 52 65 88 87s73 33 111 33c60.667 0 115.334 -25.167 164.001 -75.5s73 -110.166 73 -179.499h-405
c0 -52.667 16.833 -98 50.5 -136s72.834 -57 117.501 -57c34 0 62 3.83301 84 11.5s38.167 17 48.5 28s21.5 26.5 33.5 46.5l56 -36c-24.667 -38 -53.167 -66.333 -85.5 -85s-77.166 -28 -134.499 -28c-62 0 -116.667 24.333 -164 73c-58.667 -48.667 -141 -73 -247 -73
c-53.333 0 -97.5 13.333 -132.5 40s-52.5 62.334 -52.5 107.001c0 47.333 21.833 86.833 65.5 118.5s112.834 47.5 207.501 47.5c26.667 0 53.667 -4 81 -12c-4 37.333 -18 71 -42 101s-56.333 45 -97 45c-24 0 -44.167 -3 -60.5 -9s-28.666 -13 -36.999 -21
s-18.833 -20 -31.5 -36zM463.997 302.997h315c-12 38 -32.5 68.833 -61.5 92.5s-60.833 35.5 -95.5 35.5s-66.667 -11.833 -96 -35.5s-50 -54.5 -62 -92.5zM417.997 112.997c-21.333 38.667 -32.999 75.666 -34.999 110.999c-37.333 8.66699 -64.333 13 -81 13
c-64.667 0 -113.834 -9.33301 -147.501 -28s-50.5 -45 -50.5 -79c0 -21.333 6.83301 -38.666 20.5 -51.999s28.167 -21.833 43.5 -25.5s31.333 -5.5 48 -5.5c80.667 0 148 22 202 66z" />
    <glyph glyph-name="ccedilla" horiz-adv-x="490" 
d="M252 -15c-56.667 6.66699 -106.833 34.834 -150.5 84.501s-65.5 106.5 -65.5 170.5c0 68.667 24.333 128.5 73 179.5s103.334 76.5 164.001 76.5c33.333 0 66.166 -8.83301 98.499 -26.5s60.166 -41.167 83.499 -70.5l-52 -40c-34.667 48.667 -78 73 -130 73
c-44.667 0 -83.834 -18.833 -117.501 -56.5s-50.5 -82.834 -50.5 -135.501s16.833 -98 50.5 -136s72.834 -57 117.501 -57c35.333 0 62.833 5.33301 82.5 16s38.5 27.667 56.5 51l54 -38c-44.667 -56 -98.667 -86.333 -162 -91l-26 -55c36.667 0 64 -6 82 -18
s27 -25.333 27 -40c0 -51.333 -70 -77 -210 -77v28c34 0 66.5 3.83301 97.5 11.5s46.5 18.167 46.5 31.5c0 6.66699 -2.5 12 -7.5 16s-15.667 7.16699 -32 9.5s-40.166 3.5 -71.499 3.5z" />
    <glyph glyph-name="egrave" horiz-adv-x="538" 
d="M332 581l-236 119l35 60l221 -145zM104 240c0 -52.667 16.832 -98.001 50.499 -136.001s72.834 -57 117.501 -57c48.667 0 84.167 6.83301 106.5 20.5s42.5 35.834 60.5 66.501l56 -37c-24.667 -38 -53.334 -66.333 -86.001 -85s-77.667 -28 -135 -28
c-60.667 0 -115.667 25.5 -165 76.5s-74 110.833 -74 179.5s24.333 128.5 73 179.5s103.334 76.5 164.001 76.5s115.5 -25.5 164.5 -76.5s73.5 -110.833 73.5 -179.5h-406zM114.999 302.999h315c-12 38 -32.667 69 -62 93s-61.333 36 -96 36s-66.5 -12 -95.5 -36
s-49.5 -55 -61.5 -93z" />
    <glyph glyph-name="edieresis" horiz-adv-x="538" 
d="M317 628c0 15.333 5.33301 28.333 16 39s23.667 16 39 16s28.5 -5.33301 39.5 -16s16.5 -23.667 16.5 -39s-5.5 -28.5 -16.5 -39.5s-24.167 -16.5 -39.5 -16.5s-28.333 5.5 -39 16.5s-16 24.167 -16 39.5zM117 628c0 15.333 5.33301 28.333 16 39s23.667 16 39 16
s28.666 -5.33301 39.999 -16s17 -23.667 17 -39s-5.66699 -28.5 -17 -39.5s-24.666 -16.5 -39.999 -16.5s-28.333 5.5 -39 16.5s-16 24.167 -16 39.5zM104 240c0 -52.667 16.832 -98.001 50.499 -136.001s72.834 -57 117.501 -57c48.667 0 84.167 6.83301 106.5 20.5
s42.5 35.834 60.5 66.501l56 -37c-24.667 -38 -53.334 -66.333 -86.001 -85s-77.667 -28 -135 -28c-60.667 0 -115.667 25.5 -165 76.5s-74 110.833 -74 179.5s24.333 128.5 73 179.5s103.334 76.5 164.001 76.5s115.5 -25.5 164.5 -76.5s73.5 -110.833 73.5 -179.5h-406z
M114.999 302.999h315c-12 38 -32.667 69 -62 93s-61.333 36 -96 36s-66.5 -12 -95.5 -36s-49.5 -55 -61.5 -93z" />
    <glyph glyph-name="idieresis" horiz-adv-x="198" 
d="M144 628c0 15.333 5.33301 28.333 16 39s23.667 16 39 16s28.5 -5.33301 39.5 -16s16.5 -23.667 16.5 -39s-5.5 -28.5 -16.5 -39.5s-24.167 -16.5 -39.5 -16.5s-28.333 5.5 -39 16.5s-16 24.167 -16 39.5zM-56 628c0 15.333 5.33301 28.333 16 39s23.667 16 39 16
s28.666 -5.33301 39.999 -16s17 -23.667 17 -39s-5.66699 -28.5 -17 -39.5s-24.666 -16.5 -39.999 -16.5s-28.333 5.5 -39 16.5s-16 24.167 -16 39.5zM65 0v479h69v-479h-69z" />
    <glyph glyph-name="odieresis" horiz-adv-x="544" 
d="M317 628c0 15.333 5.33301 28.333 16 39s23.667 16 39 16s28.5 -5.33301 39.5 -16s16.5 -23.667 16.5 -39s-5.5 -28.5 -16.5 -39.5s-24.167 -16.5 -39.5 -16.5s-28.333 5.5 -39 16.5s-16 24.167 -16 39.5zM117 628c0 15.333 5.33301 28.333 16 39s23.667 16 39 16
s28.666 -5.33301 39.999 -16s17 -23.667 17 -39s-5.66699 -28.5 -17 -39.5s-24.666 -16.5 -39.999 -16.5s-28.333 5.5 -39 16.5s-16 24.167 -16 39.5zM104 240c0 -52.667 16.833 -98 50.5 -136s72.834 -57 117.501 -57s83.834 19 117.501 57s50.5 83.333 50.5 136
s-16.833 97.834 -50.5 135.501s-72.834 56.5 -117.501 56.5s-83.834 -18.833 -117.501 -56.5s-50.5 -82.834 -50.5 -135.501zM35 240c0 68.667 24.332 128.5 72.999 179.5s103.334 76.5 164.001 76.5s115.5 -25.5 164.5 -76.5s73.5 -110.833 73.5 -179.5
c0 -69.333 -24.167 -129.333 -72.5 -180s-102.833 -76 -163.5 -76s-115.667 25.5 -165 76.5s-74 110.833 -74 179.5z" />
    <glyph glyph-name="ydieresis" horiz-adv-x="466" 
d="M277 628c0 15.333 5.33301 28.333 16 39s23.667 16 39 16s28.5 -5.33301 39.5 -16s16.5 -23.667 16.5 -39s-5.5 -28.5 -16.5 -39.5s-24.167 -16.5 -39.5 -16.5s-28.333 5.5 -39 16.5s-16 24.167 -16 39.5zM77 628c0 15.333 5.33301 28.333 16 39s23.667 16 39 16
s28.666 -5.33301 39.999 -16s17 -23.667 17 -39s-5.66699 -28.5 -17 -39.5s-24.666 -16.5 -39.999 -16.5s-28.333 5.5 -39 16.5s-16 24.167 -16 39.5zM233 90l157 389h76l-278 -684h-74l82 204l-195 480h76z" />
    <glyph glyph-name="dotlessi" horiz-adv-x="198" 
d="M65 0v479h69v-479h-69z" />
    <glyph glyph-name="uni02CA" horiz-adv-x="398" 
d="M60 615l222 145l34 -60l-235 -119z" />
    <glyph glyph-name="uni02CB" horiz-adv-x="398" 
d="M296 581l-236 119l35 60l221 -145z" />
    <glyph glyph-name="gravecomb" horiz-adv-x="0" 
d="M-259 581l-236 119l35 60l221 -145z" />
    <glyph glyph-name="uni0304" horiz-adv-x="0" 
d="M-464 646h274v-46h-274v46z" />
    <glyph glyph-name="uni0308" horiz-adv-x="0" 
d="M-274 628c0 15.333 5.33301 28.333 16 39s23.667 16 39 16s28.5 -5.33301 39.5 -16s16.5 -23.667 16.5 -39s-5.5 -28.5 -16.5 -39.5s-24.167 -16.5 -39.5 -16.5s-28.333 5.5 -39 16.5s-16 24.167 -16 39.5zM-474 628c0 15.333 5.33301 28.333 16 39s23.667 16 39 16
s28.666 -5.33301 39.999 -16s17 -23.667 17 -39s-5.66699 -28.5 -17 -39.5s-24.666 -16.5 -39.999 -16.5s-28.333 5.5 -39 16.5s-16 24.167 -16 39.5z" />
    <glyph glyph-name="uni030B" horiz-adv-x="0" 
d="M-264 601l176 197l49 -49l-197 -176zM-440 601l176 197l49 -49l-197 -176z" />
    <glyph glyph-name="Gamma" horiz-adv-x="477" 
d="M158 634v-634h-77v698h391v-64h-314z" />
    <glyph glyph-name="Pi" horiz-adv-x="622" 
d="M81 0v698h77h307h77v-698h-77v635h-307v-635h-77z" />
    <glyph glyph-name="Phi" horiz-adv-x="653" 
d="M367 78v-77.998h-77v77c-71.333 8.66699 -133 39.167 -185 91.5s-78 112.166 -78 179.499s26 127.5 78 180.5s113.667 83.833 185 92.5v77h77v-78c70.667 -9.33301 131.667 -40.333 183 -93s77 -112.334 77 -179.001s-25.5 -126 -76.5 -178s-112.167 -82.667 -183.5 -92z
M367 549.002v-398.999c49.333 9.33301 91.5 32.833 126.5 70.5s52.5 80.167 52.5 127.5c0 48 -17.5 91.167 -52.5 129.5s-77.167 62.166 -126.5 71.499zM290 550.003c-50 -8.66699 -92.833 -32.5 -128.5 -71.5s-53.5 -82.5 -53.5 -130.5s17.833 -91.167 53.5 -129.5
s78.5 -61.833 128.5 -70.5v402z" />
    <glyph glyph-name="tau" horiz-adv-x="466" 
d="M268 416v-416h-69v416h-186v63h441v-63h-186z" />
    <glyph glyph-name="uniE000" horiz-adv-x="644" 
d="M341 736h-27c-40.667 0 -74 6.16699 -100 18.5s-39 28.5 -39 48.5c0 13.333 7.33301 28.333 22 45h40c-4.66699 -12.667 -7 -22 -7 -28c0 -14.667 7 -24.667 21 -30s35 -8 63 -8h27c28 0 49 2.66699 63 8s21 15.333 21 30c0 8 -2 17.333 -6 28h40c14 -16 21 -31 21 -45
c0 -20 -13 -36.167 -39 -48.5s-59.333 -18.5 -100 -18.5z" />
    </font>
</defs>
</svg>
